<svg width="450" height="450" viewBox="0 0 450 450" fill="none" xmlns="http://www.w3.org/2000/svg">
<path d="M100.467 404.946C170.262 439.893 283.428 439.893 353.232 404.946C423.036 369.999 423.027 313.326 353.232 278.37C283.437 243.414 170.262 243.414 100.467 278.37C30.672 313.326 30.663 369.99 100.467 404.946Z" fill="#FAFAFA"/>
<path d="M358.812 359.982C378.5 359.982 394.461 351.307 394.461 340.605C394.461 329.903 378.5 321.228 358.812 321.228C339.124 321.228 323.163 329.903 323.163 340.605C323.163 351.307 339.124 359.982 358.812 359.982Z" fill="#E6E6E6"/>
<path d="M93.906 357.498C113.594 357.498 129.555 348.823 129.555 338.121C129.555 327.419 113.594 318.744 93.906 318.744C74.2176 318.744 58.257 327.419 58.257 338.121C58.257 348.823 74.2176 357.498 93.906 357.498Z" fill="#E6E6E6"/>
<path d="M78.102 315.405C78.102 315.405 77.76 307.548 74.313 301.221C70.866 294.894 65.799 290.745 60.813 289.998C55.827 289.251 51.57 293.544 56.7 297.063C61.83 300.582 71.028 304.452 74.547 316.512L78.102 315.405Z" fill="#282828"/>
<path opacity="0.15" d="M78.102 315.405C78.102 315.405 77.76 307.548 74.313 301.221C70.866 294.894 65.799 290.745 60.813 289.998C55.827 289.251 51.57 293.544 56.7 297.063C61.83 300.582 71.028 304.452 74.547 316.512L78.102 315.405Z" fill="black"/>
<path d="M76.788 313.272H76.842C76.908 313.249 76.9627 313.202 76.9946 313.14C77.0265 313.078 77.0331 313.006 77.013 312.939C72.675 299.646 63.063 293.544 58.59 292.176C58.5563 292.165 58.5208 292.161 58.4855 292.164C58.4503 292.167 58.416 292.178 58.3849 292.194C58.3537 292.211 58.3263 292.234 58.3043 292.262C58.2823 292.29 58.2662 292.322 58.257 292.356C58.2369 292.423 58.2435 292.495 58.2754 292.557C58.3073 292.619 58.362 292.666 58.428 292.689C62.82 294.03 72.234 300.015 76.5 313.101C76.5203 313.159 76.5603 313.208 76.613 313.239C76.6656 313.27 76.7276 313.282 76.788 313.272Z" fill="white"/>
<path d="M50.085 311.544C50.481 312.66 51.624 313.299 52.686 313.821C53.8124 314.212 54.7776 314.965 55.431 315.963C56.475 318.105 54.315 320.868 55.431 322.965C55.7052 323.385 56.0606 323.747 56.4763 324.028C56.8921 324.309 57.3598 324.505 57.852 324.603C58.653 324.81 59.49 324.864 60.309 324.999C60.7047 325.022 61.1013 325.022 61.497 324.999C62.6607 324.82 63.8508 325.032 64.881 325.602C66.456 326.637 66.807 328.743 67.689 330.408C68.2386 331.391 68.9946 332.244 69.905 332.907C70.8154 333.571 71.8586 334.029 72.963 334.251C73.9028 334.508 74.8942 334.508 75.834 334.251L75.996 334.161C76.104 334.053 76.248 333.909 76.302 333.837V333.792C76.671 332.739 76.302 331.596 76.302 330.489C76.302 330.417 76.302 330.354 76.302 330.291C76.44 329.013 76.566 327.735 76.68 326.457C76.914 324.105 77.106 321.75 77.256 319.392C77.346 317.862 77.643 316.197 77.103 314.703C76.491 313.074 74.718 312.903 74.151 311.31C73.926 310.671 73.827 309.987 73.611 309.348C73.2715 308.398 72.6772 307.559 71.893 306.924C71.1088 306.289 70.165 305.882 69.165 305.748C66.069 305.37 63.099 307.692 60.003 307.242C59.206 307.079 58.4187 306.872 57.645 306.621C55.161 305.973 52.191 306.486 50.625 308.52C50.2933 308.941 50.0704 309.437 49.9762 309.964C49.882 310.492 49.9194 311.034 50.085 311.544Z" fill="#282828"/>
<path d="M76.977 328.896C77.0119 328.89 77.0451 328.876 77.0749 328.857C77.1046 328.838 77.1302 328.813 77.1503 328.783C77.1703 328.754 77.1844 328.721 77.1918 328.686C77.1991 328.652 77.1995 328.616 77.193 328.581C74.025 312.138 57.177 308.61 53.181 308.619C53.119 308.631 53.0629 308.663 53.0225 308.712C52.9822 308.76 52.9601 308.821 52.9601 308.885C52.9601 308.948 52.9822 309.009 53.0225 309.057C53.0629 309.106 53.119 309.139 53.181 309.15C57.096 309.15 73.566 312.597 76.662 328.689C76.6771 328.758 76.7186 328.818 76.7774 328.857C76.8363 328.895 76.9079 328.909 76.977 328.896Z" fill="white"/>
<path d="M58.653 319.392C58.7063 319.386 58.7566 319.364 58.797 319.329C60.4636 318.077 62.3861 317.208 64.4273 316.785C66.4685 316.362 68.578 316.395 70.605 316.881C70.6741 316.894 70.7458 316.88 70.8046 316.842C70.8634 316.803 70.9049 316.743 70.92 316.674C70.928 316.64 70.9292 316.605 70.9235 316.571C70.9178 316.537 70.9054 316.504 70.887 316.475C70.8686 316.446 70.8445 316.42 70.8161 316.4C70.7878 316.38 70.7558 316.366 70.722 316.359C68.6132 315.855 66.4192 315.824 64.2969 316.267C62.1746 316.711 60.1766 317.618 58.446 318.924C58.4043 318.962 58.3757 319.012 58.3641 319.068C58.3525 319.123 58.3586 319.181 58.3814 319.232C58.4043 319.284 58.4428 319.327 58.4915 319.356C58.5402 319.385 58.5967 319.397 58.653 319.392Z" fill="white"/>
<path d="M372.852 321.669C372.798 317.007 376.047 307.269 380.808 301.203C385.569 295.137 393.12 290.583 398.547 292.365C403.596 294.021 403.128 300.627 397.08 305.073C391.032 309.519 381.924 315.126 379.332 322.713L373.815 332.1L372.852 321.669Z" fill="#282828"/>
<path opacity="0.1" d="M372.852 321.669C372.798 317.007 376.047 307.269 380.808 301.203C385.569 295.137 393.12 290.583 398.547 292.365C403.596 294.021 403.128 300.627 397.08 305.073C391.032 309.519 381.924 315.126 379.332 322.713L373.815 332.1L372.852 321.669Z" fill="black"/>
<path d="M372.6 328.05C372.675 328.043 372.745 328.012 372.8 327.962C372.855 327.912 372.893 327.845 372.906 327.771C375.831 311.823 388.548 298.737 396.216 295.794C396.299 295.76 396.366 295.695 396.403 295.613C396.44 295.531 396.444 295.438 396.414 295.353C396.376 295.281 396.312 295.226 396.236 295.198C396.16 295.17 396.076 295.171 396 295.2C388.179 298.206 375.237 311.508 372.258 327.69C372.25 327.734 372.251 327.78 372.261 327.824C372.271 327.868 372.289 327.909 372.315 327.946C372.341 327.983 372.374 328.014 372.412 328.038C372.45 328.062 372.493 328.078 372.537 328.086L372.6 328.05Z" fill="white"/>
<path d="M375.075 338.202C375.795 335.574 378.945 331.209 384.075 327.582C389.754 323.559 396.972 321.66 398.61 318.582C400.572 314.865 397.413 311.382 391.545 312.21C385.677 313.038 375.426 321.156 373.923 333.261L375.075 338.202Z" fill="#282828"/>
<path d="M373.905 335.466C373.971 335.461 374.034 335.437 374.087 335.398C374.14 335.358 374.18 335.303 374.202 335.241C378.909 321.552 389.25 316.647 394.056 315.963C394.101 315.958 394.145 315.943 394.184 315.921C394.223 315.898 394.258 315.868 394.286 315.832C394.313 315.796 394.333 315.755 394.345 315.711C394.357 315.667 394.359 315.621 394.353 315.576C394.34 315.487 394.291 315.406 394.219 315.352C394.146 315.298 394.055 315.275 393.966 315.288C388.647 316.044 378.369 321.048 373.554 335.016C373.525 335.101 373.531 335.194 373.569 335.274C373.608 335.355 373.677 335.417 373.761 335.448C373.808 335.462 373.856 335.468 373.905 335.466Z" fill="white"/>
<path d="M314.1 210.204C315.18 211.104 316.404 211.554 317.826 212.904C318.721 213.925 319.852 214.713 321.12 215.199C322.749 215.838 324.288 215.649 328.824 214.929C334.368 214.029 336.762 213.129 339.147 211.068C341.946 208.674 348.21 201.483 351.234 198.657C354.429 195.66 358.83 196.857 358.83 196.857C357.46 201.281 355.427 205.472 352.8 209.286C350.379 212.733 345.852 216.036 343.8 217.737C340.524 220.437 338.787 221.544 331.587 222.084C328.07 222.473 324.53 222.612 320.994 222.498C319.383 222.444 318.384 222.435 315.756 222.21C314.61 222.141 313.475 221.944 312.372 221.625C311.133 221.338 309.944 220.868 308.844 220.23C307.409 219.297 306.253 217.994 305.496 216.459C305.077 215.621 304.861 214.696 304.866 213.759C304.879 212.812 305.227 211.9 305.847 211.185C305.968 211.04 306.122 210.925 306.297 210.852C306.64 210.794 306.991 210.872 307.278 211.068C308.964 212.074 310.7 212.993 312.48 213.822C313.983 214.407 315.126 214.605 315.018 214.299C314.91 213.993 313.992 213.723 313.056 212.67C312.12 211.617 311.895 210.141 312.498 209.691C313.101 209.241 313.002 209.313 314.1 210.204Z" fill="#FFA8A7"/>
<path d="M360.099 196.812C358.391 195.982 356.449 195.766 354.6 196.2C351.801 197.001 349.56 198.828 346.887 201.699C344.214 204.57 339.687 209.196 339.687 209.196C339.687 209.196 341.901 214.812 346.887 216.81L357.336 207.135L360.099 196.812Z" fill="#282828"/>
<path opacity="0.1" d="M360.099 196.812C358.391 195.982 356.449 195.766 354.6 196.2C351.801 197.001 349.56 198.828 346.887 201.699C344.214 204.57 339.687 209.196 339.687 209.196C339.687 209.196 341.901 214.812 346.887 216.81L357.336 207.135L360.099 196.812Z" fill="black"/>
<path d="M310.896 210.744L320.796 204.984C321.275 204.742 321.803 204.616 322.34 204.616C322.876 204.616 323.404 204.742 323.883 204.984L333.333 209.871C333.787 210.165 334.165 210.564 334.434 211.034C334.703 211.503 334.856 212.03 334.881 212.571L334.926 224.037C334.903 224.576 334.753 225.102 334.487 225.572C334.221 226.041 333.847 226.441 333.396 226.737L323.496 232.497C323.017 232.739 322.489 232.865 321.953 232.865C321.416 232.865 320.888 232.739 320.409 232.497L310.959 227.61C310.506 227.314 310.13 226.915 309.861 226.446C309.592 225.976 309.438 225.45 309.411 224.91L309.366 213.453C309.389 212.913 309.54 212.386 309.806 211.915C310.072 211.444 310.445 211.043 310.896 210.744Z" fill="#37474F"/>
<path opacity="0.4" d="M334.881 212.256C334.773 211.473 334.134 211.185 333.36 211.635L323.46 217.404C322.888 217.769 322.444 218.304 322.191 218.934C322.244 218.805 322.304 218.678 322.371 218.556L309.834 211.905C310.09 211.432 310.465 211.035 310.923 210.753L320.823 204.984C321.3 204.742 321.827 204.616 322.362 204.616C322.897 204.616 323.424 204.742 323.901 204.984L333.36 209.871C333.768 210.138 334.115 210.489 334.377 210.9C334.639 211.311 334.811 211.773 334.881 212.256Z" fill="#455A64"/>
<path d="M309.411 224.883C309.438 225.423 309.592 225.95 309.861 226.419C310.13 226.888 310.506 227.287 310.959 227.583L320.409 232.47C320.845 232.688 321.323 232.81 321.81 232.829C322.298 232.848 322.783 232.762 323.235 232.578C322.506 232.857 321.957 232.452 321.948 231.57L321.903 220.113C321.921 219.576 322.076 219.052 322.353 218.592L309.816 211.941C309.538 212.401 309.383 212.925 309.366 213.462L309.411 224.883Z" fill="#282828"/>
<path d="M375.453 325.125H369.117V335.97H375.453V325.125Z" fill="#FFA8A7"/>
<path d="M357.921 327.852L351.594 328.068L351.27 316.593L357.921 316.377V327.852Z" fill="#FFA8A7"/>
<path d="M378.153 244.134C378.153 250.182 377.082 285.372 377.082 285.372C377.235 287.118 378.882 290.214 379.035 296.478C379.224 305.577 375.723 330.543 375.723 330.543C374.631 331.082 373.433 331.374 372.215 331.399C370.998 331.423 369.789 331.18 368.676 330.687C368.676 330.687 365.796 296.838 364.662 287.838C363.672 279.981 361.962 258.642 361.962 258.642L358.983 284.283C359.717 287.586 359.981 290.977 359.766 294.354C359.469 298.521 358.299 324.297 358.299 324.297C357.201 324.925 355.978 325.305 354.716 325.409C353.455 325.513 352.187 325.34 351 324.9C351 324.9 346.5 288.153 346.455 284.328C346.374 279.972 348.111 235.521 348.111 235.521L378.153 244.134Z" fill="#37474F"/>
<path d="M373.995 199.629C375.388 200.248 376.483 201.389 377.046 202.806C377.686 204.557 377.992 206.414 377.946 208.278V220.689L378.126 244.089C369.036 248.886 357.471 249.201 347.769 242.118C347.769 242.118 348.309 211.941 348.309 207.018C348.309 206.793 348.309 206.568 348.309 206.343C348.421 204.685 348.898 203.072 349.706 201.62C350.514 200.168 351.634 198.913 352.984 197.944C354.335 196.976 355.883 196.318 357.517 196.018C359.152 195.718 360.833 195.783 362.439 196.209L368.181 197.694L373.95 199.593L373.995 199.629Z" fill="#282828"/>
<path d="M329.904 222.912C331.092 223.641 332.379 223.92 333.972 225.09C335.009 225.973 336.244 226.59 337.572 226.89C339.282 227.304 352.71 222.759 355.203 220.842C360.261 216.945 364.635 209.601 367.065 206.82C369.072 204.525 371.349 201.069 373.815 201.051C377.901 202.293 376.974 208.368 373.554 213.84C369.793 219.485 364.939 224.32 359.28 228.06C356.337 229.995 342.765 233.46 338.256 233.793C336.888 233.883 335.871 234.189 333.261 234.558C332.19 234.779 331.092 234.84 330.003 234.738C328.667 234.528 327.367 234.131 326.142 233.559C324.593 232.832 323.266 231.704 322.299 230.292C321.764 229.52 321.421 228.631 321.3 227.7C321.172 226.756 321.389 225.797 321.912 225C322.009 224.834 322.149 224.697 322.317 224.604C322.647 224.498 323.005 224.524 323.316 224.676C325.122 225.441 326.966 226.111 328.842 226.683C330.417 227.052 331.542 227.088 331.425 226.8C331.308 226.512 330.327 226.368 329.256 225.459C328.185 224.55 327.753 223.119 328.284 222.588C328.815 222.057 328.707 222.183 329.904 222.912Z" fill="#FFA8A7"/>
<path d="M357.723 185.238C362.53 185.238 366.426 181.342 366.426 176.535C366.426 171.728 362.53 167.832 357.723 167.832C352.916 167.832 349.02 171.728 349.02 176.535C349.02 181.342 352.916 185.238 357.723 185.238Z" fill="#282828"/>
<path d="M372.771 182.7C372.771 182.7 371.367 189.333 370.8 190.422C370.422 191.093 369.8 191.593 369.063 191.817L369.162 187.155L372.771 182.7Z" fill="#282828"/>
<path d="M371.007 173.232C371.499 173.174 371.998 173.229 372.466 173.392C372.934 173.556 373.358 173.824 373.707 174.177C374.868 175.365 374.22 179.082 372.807 182.727L370.152 183.033L371.007 173.232Z" fill="#282828"/>
<path d="M369.324 183.033C369.855 183.348 370.611 182.331 371.268 181.638C371.528 181.344 371.858 181.12 372.227 180.988C372.597 180.856 372.994 180.819 373.381 180.882C373.769 180.945 374.134 181.105 374.443 181.348C374.751 181.59 374.994 181.907 375.147 182.268C376.236 184.563 374.202 187.605 372.51 188.136C369.603 189.036 369.162 187.182 369.162 187.182L368.946 197.982C365.346 202.626 355.284 202.23 359.469 197.388V194.193C358.172 194.398 356.856 194.465 355.545 194.391C353.403 194.058 352.053 192.366 351.405 190.053C350.361 186.327 349.965 183.33 350.856 176.004C351.819 167.985 361.152 167.904 366.156 171.072C371.16 174.24 369.324 183.033 369.324 183.033Z" fill="#FFA8A7"/>
<path d="M369.324 183.933C369.585 183.933 370.611 182.241 371.268 181.638C372.168 180.801 371.007 173.232 371.007 173.232C371.246 172.575 371.288 171.862 371.128 171.181C370.968 170.5 370.613 169.881 370.107 169.398C368.847 168.012 366.741 167.859 363.15 167.292C361.269 166.995 358.407 166.473 356.526 166.122C354.276 165.699 352.413 165.222 350.829 166.635C350.202 167.179 349.76 167.904 349.563 168.71C349.367 169.516 349.425 170.364 349.731 171.135C350.182 172.09 350.99 172.83 351.981 173.196C351.981 173.196 352.962 174.096 356.373 174.483C359.522 174.718 362.686 174.658 365.823 174.303C366.813 174.168 367.02 175.131 367.551 177.75C368.028 180 368.415 183.915 369.324 183.933Z" fill="#282828"/>
<path d="M370.998 173.817L374.22 172.089C374.115 171.874 373.968 171.682 373.788 171.525C373.607 171.367 373.398 171.247 373.171 171.172C372.943 171.097 372.704 171.067 372.465 171.086C372.226 171.104 371.994 171.17 371.781 171.279C371.35 171.521 371.028 171.919 370.882 172.391C370.736 172.864 370.778 173.374 370.998 173.817Z" fill="#282828"/>
<path d="M359.478 194.211C359.478 194.211 364.257 193.248 365.922 192.357C366.906 191.846 367.713 191.049 368.235 190.071C367.984 191.051 367.537 191.969 366.921 192.771C365.706 194.337 359.478 195.471 359.478 195.471V194.211Z" fill="#F28F8F"/>
<path d="M359.712 181.8C359.708 181.928 359.73 182.056 359.776 182.176C359.823 182.296 359.892 182.406 359.981 182.498C360.069 182.591 360.176 182.666 360.293 182.717C360.411 182.769 360.538 182.797 360.666 182.799C360.865 182.808 361.063 182.757 361.233 182.653C361.403 182.549 361.538 182.396 361.62 182.215C361.703 182.033 361.729 181.831 361.696 181.634C361.663 181.437 361.571 181.255 361.433 181.111C361.296 180.967 361.118 180.867 360.923 180.825C360.728 180.782 360.525 180.799 360.34 180.874C360.155 180.948 359.996 181.075 359.884 181.241C359.772 181.406 359.712 181.601 359.712 181.8Z" fill="#282828"/>
<path d="M360.729 178.2L362.772 179.325C362.918 179.044 362.951 178.718 362.862 178.414C362.773 178.111 362.57 177.853 362.295 177.696C362.16 177.621 362.011 177.574 361.858 177.559C361.704 177.544 361.549 177.56 361.402 177.608C361.256 177.655 361.12 177.732 361.004 177.834C360.888 177.936 360.795 178.06 360.729 178.2Z" fill="#282828"/>
<path d="M359.91 188.451L357.723 189.279C357.772 189.425 357.849 189.56 357.95 189.675C358.052 189.791 358.175 189.885 358.314 189.952C358.452 190.019 358.602 190.058 358.756 190.066C358.91 190.074 359.063 190.051 359.208 189.999C359.503 189.882 359.741 189.656 359.872 189.367C360.002 189.078 360.016 188.75 359.91 188.451Z" fill="#F28F8F"/>
<path d="M351.45 179.019L353.313 177.579C353.225 177.454 353.112 177.348 352.982 177.268C352.851 177.187 352.706 177.134 352.555 177.112C352.403 177.089 352.249 177.097 352.101 177.136C351.953 177.174 351.814 177.242 351.693 177.336C351.444 177.532 351.28 177.816 351.235 178.129C351.19 178.442 351.267 178.761 351.45 179.019Z" fill="#282828"/>
<path d="M352.026 181.566C352.033 181.755 352.096 181.938 352.206 182.092C352.317 182.246 352.47 182.363 352.647 182.43C352.824 182.498 353.017 182.511 353.201 182.469C353.386 182.427 353.554 182.332 353.685 182.195C353.815 182.058 353.903 181.886 353.936 181.699C353.97 181.513 353.947 181.321 353.872 181.147C353.797 180.974 353.672 180.826 353.513 180.723C353.355 180.62 353.169 180.565 352.98 180.567C352.852 180.569 352.725 180.597 352.607 180.649C352.49 180.7 352.383 180.775 352.295 180.868C352.206 180.96 352.137 181.07 352.09 181.19C352.044 181.31 352.022 181.438 352.026 181.566Z" fill="#282828"/>
<path d="M356.904 180.657L356.589 186.417L353.583 185.391L356.904 180.657Z" fill="#F28F8F"/>
<path d="M369.117 332.838V331.938C368.514 332.199 367.101 337.572 364.617 339.867C362.619 341.667 359.892 343.791 359.217 345.825C358.542 347.859 363.015 349.11 364.878 348.777C367.047 348.39 370.809 346.86 371.754 345.447C372.699 344.034 373.14 341.946 373.905 340.902C374.67 339.858 376.443 338.706 376.857 337.509C376.98 336.386 376.857 335.25 376.497 334.179C376.2 333.063 375.885 331.83 375.498 331.938V332.622C374.597 333.334 373.478 333.712 372.33 333.693C371.358 333.729 369.108 333.549 369.117 332.838Z" fill="#282828"/>
<path d="M351.522 326.115C351.198 326.115 350.928 326.592 350.199 327.375C349.12 328.48 347.86 329.394 346.473 330.075C344.106 331.263 339.489 333.09 337.401 334.035C336.096 334.62 336.159 336.195 337.509 337.095C338.859 337.995 342.108 338.634 346.014 337.761C348.147 337.284 350.919 335.322 352.674 335.421C354.429 335.52 357.705 335.502 358.974 334.611C360.243 333.72 359.757 331.812 359.388 330.174C358.992 328.374 358.488 325.602 357.894 325.728V326.34C357.138 327.492 353.205 327.96 351.531 327.114L351.522 326.115Z" fill="#282828"/>
<path d="M361.989 258.642C358.716 257.618 355.706 255.892 353.169 253.584C353.169 253.584 354.87 256.77 359.937 259.731L359.262 282.132L361.989 258.642Z" fill="#282828"/>
<path d="M374.058 199.629C377.073 201.105 378.297 203.355 376.956 208.377C375.75 212.877 371.133 220.554 367.506 224.316C367.506 224.316 361.287 221.373 357.984 217.539C361.26 212.535 362.835 209.583 365.913 205.344C368.991 201.105 372.213 199.116 374.058 199.629Z" fill="#282828"/>
<g opacity="0.1">
<path d="M374.058 199.629C377.073 201.105 378.297 203.355 376.956 208.377C375.75 212.877 371.133 220.554 367.506 224.316C367.506 224.316 361.287 221.373 357.984 217.539C361.26 212.535 362.835 209.583 365.913 205.344C368.991 201.105 372.213 199.116 374.058 199.629Z" fill="black"/>
</g>
<path d="M95.157 195.3C98.496 195.3 102.033 194.346 104.877 198.657C107.721 202.968 116.046 222.129 116.046 222.129C116.046 222.129 109.269 225.729 109.098 225.477C108.927 225.225 97.515 206.154 97.515 206.154L95.157 195.3Z" fill="#FFA8A7"/>
<path d="M91.449 191.34C87.7707 191.34 84.2431 189.879 81.6421 187.278C79.0412 184.677 77.58 181.149 77.58 177.471V176.058C77.58 172.941 78.8184 169.951 81.0227 167.747C83.227 165.542 86.2167 164.304 89.334 164.304H93.6C96.708 164.318 99.6838 165.563 101.876 167.766C104.069 169.968 105.3 172.95 105.3 176.058V177.471C105.3 181.146 103.841 184.671 101.244 187.271C98.6472 189.872 95.1242 191.335 91.449 191.34Z" fill="#282828"/>
<g opacity="0.2">
<path d="M91.449 191.34C87.7707 191.34 84.2431 189.879 81.6421 187.278C79.0412 184.677 77.58 181.149 77.58 177.471V176.058C77.58 172.941 78.8184 169.951 81.0227 167.747C83.227 165.542 86.2167 164.304 89.334 164.304H93.6C96.708 164.318 99.6838 165.563 101.876 167.766C104.069 169.968 105.3 172.95 105.3 176.058V177.471C105.3 181.146 103.841 184.671 101.244 187.271C98.6472 189.872 95.1242 191.335 91.449 191.34Z" fill="black"/>
</g>
<path d="M71.649 192.789C72.4995 192.789 73.3415 192.621 74.1268 192.294C74.9121 191.968 75.625 191.489 76.2247 190.886C76.8244 190.283 77.299 189.568 77.6212 188.78C77.9433 187.993 78.1067 187.15 78.102 186.3V173.502C77.2508 173.502 76.408 173.67 75.6221 173.997C74.8362 174.325 74.1229 174.804 73.5231 175.408C72.9232 176.012 72.4489 176.729 72.1272 177.517C71.8056 178.305 71.6431 179.149 71.649 180V192.789Z" fill="#282828"/>
<path opacity="0.2" d="M71.649 192.789C72.4995 192.789 73.3415 192.621 74.1268 192.294C74.9121 191.968 75.625 191.489 76.2247 190.886C76.8244 190.283 77.299 189.568 77.6212 188.78C77.9433 187.993 78.1067 187.15 78.102 186.3V173.502C77.2508 173.502 76.408 173.67 75.6221 173.997C74.8362 174.325 74.1229 174.804 73.5231 175.408C72.9232 176.012 72.4489 176.729 72.1272 177.517C71.8056 178.305 71.6431 179.149 71.649 180V192.789Z" fill="black"/>
<path d="M105.732 331.92C107.378 333.66 109.186 335.24 111.132 336.636C111.444 336.831 111.704 337.1 111.888 337.419C112.14 337.95 112.536 339.219 110.088 340.119C108.863 340.545 107.561 340.701 106.27 340.577C104.979 340.452 103.73 340.051 102.609 339.399C100.62 338.157 100.53 335.565 98.649 334.08C97.254 332.982 95.517 332.703 94.392 331.272C93.609 330.273 93.816 328.95 94.221 327.312C94.671 325.512 94.869 324.162 95.463 324.297L95.373 325.125C96.111 326.304 99.945 326.655 101.673 325.836C102.918 327.934 104.273 329.965 105.732 331.92Z" fill="#282828"/>
<path d="M107.415 333.594C106.839 333.063 106.272 332.523 105.732 331.929C104.598 330.453 103.553 328.911 102.6 327.312C101.872 326.32 101.41 325.158 101.259 323.937C101.259 322.353 101.376 319.536 101.376 319.536L95.688 319.158L95.409 325.125C95.265 326.484 96.381 327.681 98.361 329.382C100.341 331.083 102.861 335.061 104.661 336.06C106.461 337.059 107.73 337.023 108.495 336.519C109.26 336.015 109.341 335.565 107.415 333.594Z" fill="#FFA8A7"/>
<path d="M86.805 337.599C88.4505 339.34 90.2588 340.919 92.205 342.315C92.5153 342.513 92.7743 342.781 92.961 343.098C93.213 343.629 93.609 344.898 91.161 345.798C89.9348 346.225 88.6307 346.382 87.3382 346.258C86.0456 346.134 84.7953 345.731 83.673 345.078C81.684 343.836 81.594 341.244 79.722 339.759C78.327 338.67 76.59 338.382 75.465 336.951C74.682 335.961 74.88 334.629 75.294 332.991C75.735 331.191 75.942 329.841 76.536 329.976L76.437 330.804C77.175 331.983 81.018 332.334 82.737 331.515C83.9883 333.611 85.346 335.642 86.805 337.599Z" fill="#282828"/>
<path d="M88.488 339.3C87.912 338.769 87.354 338.229 86.805 337.635C85.678 336.154 84.6411 334.606 83.7 333C82.998 331.976 82.545 330.801 82.377 329.571C82.269 328.176 82.377 325.287 82.377 325.287H76.698L76.5 330.795C76.356 332.145 77.472 333.342 79.452 335.043C81.432 336.744 83.952 340.731 85.752 341.73C87.552 342.729 88.821 342.693 89.586 342.18C90.351 341.667 90.423 341.244 88.488 339.3Z" fill="#FFA8A7"/>
<path d="M76.563 233.217C71.613 244.017 77.247 285.048 77.247 285.048C77.094 286.803 75.546 289.548 75.366 294.894C75.132 301.779 76.356 327.195 76.356 327.195C77.3511 327.721 78.4556 328.006 79.581 328.028C80.7064 328.05 81.8212 327.808 82.836 327.321C82.836 327.321 88.704 292.824 89.847 283.743C90.846 275.823 92.763 257.202 92.763 257.202L96.705 283.698C95.5206 286.364 94.7992 289.213 94.572 292.122C94.437 297.477 95.229 322.362 95.229 322.362C97.3777 322.927 99.6257 323.004 101.808 322.587C101.808 322.587 107.775 288.918 108.342 282.492C108.675 278.649 105.804 231.588 105.804 231.588L76.563 233.217Z" fill="#37474F"/>
<path d="M92.763 257.202L94.374 248.355C94.374 248.355 101.178 246.951 104.274 244.044C102.148 246.543 99.3637 248.396 96.237 249.39L94.437 257.13L96.237 280.251L92.763 257.202Z" fill="#282828"/>
<path d="M86.229 195.588C81.891 196.191 79.56 197.154 78.129 201.24C77.2896 204.286 77.3774 207.514 78.381 210.51L82.179 221.607C79.8866 225.263 77.9947 229.156 76.536 233.217C87.642 239.409 102.438 236.115 105.777 231.588C105.921 230.634 105.021 225.99 105.291 221.076C105.579 215.829 106.416 209.799 105.597 206.559C104.058 200.538 99.855 196.605 95.13 195.336L86.229 195.588Z" fill="#F5F5F5"/>
<path d="M83.637 207.243C83.448 210.096 82.593 217.944 82.593 217.944L86.193 223.695L82.17 221.607L78.57 211.176L83.637 207.243Z" fill="#E6E6E6"/>
<path d="M100.647 170.046C102.15 170.946 104.004 174.708 103.824 182.646C103.662 189.351 101.493 191.007 100.395 191.484C99.297 191.961 97.2 191.673 95.157 191.331V195.3C95.157 195.3 97.983 198.594 97.803 200.439C97.623 202.284 93.717 202.716 91.071 200.916C89.3557 199.683 87.8847 198.142 86.733 196.371V186.669C86.5172 186.932 86.2516 187.15 85.9513 187.31C85.6511 187.47 85.3222 187.569 84.9834 187.602C84.6447 187.635 84.3029 187.6 83.9777 187.5C83.6524 187.4 83.35 187.237 83.088 187.02C80.829 185.517 80.739 181.8 82.053 180.468C83.367 179.136 86.202 179.568 86.733 181.368C89.4178 181.26 92.0326 180.48 94.338 179.1C96.0264 178.192 97.4774 176.899 98.5734 175.326C99.6695 173.753 100.38 171.944 100.647 170.046Z" fill="#FFA8A7"/>
<path d="M96.3 180.945C96.3073 181.056 96.2926 181.168 96.2567 181.273C96.2209 181.378 96.1645 181.476 96.0909 181.559C96.0173 181.643 95.928 181.711 95.8279 181.76C95.7279 181.809 95.6192 181.838 95.508 181.845C95.3101 181.807 95.1306 181.704 94.9983 181.552C94.866 181.4 94.7884 181.208 94.778 181.007C94.7676 180.806 94.8251 180.607 94.9411 180.443C95.0571 180.278 95.2251 180.157 95.418 180.099C95.5321 180.094 95.646 180.112 95.7528 180.153C95.8596 180.193 95.9572 180.255 96.0396 180.334C96.122 180.413 96.1876 180.508 96.2323 180.613C96.2771 180.718 96.3001 180.831 96.3 180.945Z" fill="#282828"/>
<path d="M96.552 186.624L98.514 187.254C98.4789 187.385 98.4178 187.507 98.3344 187.613C98.2509 187.72 98.1469 187.809 98.0285 187.874C97.9101 187.94 97.7797 187.981 97.6451 187.995C97.5104 188.009 97.3744 187.996 97.245 187.956C96.9793 187.867 96.7585 187.679 96.6292 187.43C96.4999 187.181 96.4722 186.892 96.552 186.624Z" fill="#F28F8F"/>
<path d="M103.248 178.353L101.538 177.165C101.611 177.051 101.706 176.952 101.818 176.876C101.929 176.799 102.055 176.746 102.188 176.719C102.321 176.692 102.457 176.692 102.59 176.719C102.723 176.746 102.849 176.8 102.96 176.877C103.187 177.04 103.343 177.284 103.396 177.558C103.45 177.832 103.397 178.116 103.248 178.353Z" fill="#282828"/>
<g opacity="0.2">
<path d="M103.248 178.353L101.538 177.165C101.611 177.051 101.706 176.952 101.818 176.876C101.929 176.799 102.055 176.746 102.188 176.719C102.321 176.692 102.457 176.692 102.59 176.719C102.723 176.746 102.849 176.8 102.96 176.877C103.187 177.04 103.343 177.284 103.396 177.558C103.45 177.832 103.397 178.116 103.248 178.353Z" fill="black"/>
</g>
<path d="M102.852 180.333C102.853 180.555 102.772 180.771 102.624 180.937C102.476 181.103 102.272 181.208 102.051 181.233C101.823 181.234 101.603 181.147 101.436 180.992C101.269 180.837 101.167 180.624 101.151 180.396C101.15 180.173 101.231 179.958 101.379 179.792C101.527 179.626 101.731 179.52 101.952 179.496C102.18 179.495 102.4 179.582 102.567 179.737C102.734 179.892 102.836 180.105 102.852 180.333Z" fill="#282828"/>
<path d="M98.874 179.847L99.009 184.923L101.682 184.095L98.874 179.847Z" fill="#F28F8F"/>
<path d="M95.157 191.313C92.997 191.034 88.56 189.756 87.867 188.001C88.1453 188.889 88.6886 189.671 89.424 190.242C90.747 191.376 95.157 192.654 95.157 192.654V191.313Z" fill="#F28F8F"/>
<path d="M130.689 212.148L107.685 218.214L100.899 246.753L122.769 240.408L130.689 212.148Z" fill="#282828"/>
<path opacity="0.1" d="M120.663 231.039C120.87 231.624 122.13 233.244 124.812 233.118L125.145 231.93L120.663 231.039Z" fill="black"/>
<path opacity="0.1" d="M115.515 231.93C115.416 232.695 113.85 234.108 111.213 234.981C108.198 235.989 103.581 235.458 103.581 235.458L103.995 234.036L115.515 231.93Z" fill="black"/>
<path opacity="0.1" d="M123.957 216.288L124.146 215.388C124.245 214.902 122.895 214.884 121.131 215.343L117.738 216.243C115.938 216.702 114.453 217.467 114.345 217.953L114.156 218.853L123.957 216.288Z" fill="black"/>
<path d="M125.55 212.976C125.613 212.67 125.064 212.598 124.326 212.796L122.985 213.165C122.985 213.165 123.381 211.275 120.411 211.932C119.62 212.055 118.875 212.379 118.244 212.872C117.614 213.365 117.121 214.011 116.811 214.749L115.38 215.163C114.588 215.388 113.877 215.811 113.778 216.117L113.607 216.657L125.46 213.543C125.46 213.543 125.478 213.3 125.55 212.976Z" fill="#37474F"/>
<path d="M123.921 213.921C122.832 214.182 122.382 214.326 122.22 215.073C122.058 215.82 121.959 216.558 121.959 216.558L116.712 217.944C116.712 217.944 116.964 216.864 117.045 216.441C117.126 216.018 116.946 215.766 116.145 215.982L116.073 215.649L124.29 213.561L123.921 213.921Z" fill="#37474F"/>
<path d="M124.101 216.369C124.101 216.369 124.182 215.973 124.29 215.469C124.398 214.965 123.039 214.965 121.275 215.424L117.882 216.324C116.082 216.783 114.597 217.548 114.489 218.034L114.3 218.934L124.101 216.369Z" fill="#37474F"/>
<path d="M75.348 230.094L79.542 223.101C79.542 223.101 97.965 228.501 99.792 228.636C100.761 228.664 101.715 228.398 102.53 227.872C103.345 227.347 103.981 226.587 104.355 225.693C105.048 223.893 106.281 224.118 106.281 224.118C106.281 224.118 105.741 226.395 105.561 227.124C105.381 227.853 109.782 228.447 112.212 227.628C114.642 226.809 118.161 227.997 115.983 231.309C113.805 234.621 109.557 235.008 106.614 235.008C105.383 234.999 104.154 234.915 102.933 234.756C101.979 234.639 101.025 234.54 100.071 234.468C94.041 234.045 78.084 230.958 75.348 230.094Z" fill="#FFA8A7"/>
<path d="M128.349 220.5L127.323 224.1C127.134 224.802 124.452 226.08 122.769 226.539C121.086 226.998 119.223 227.556 120.069 229.923C120.807 232.101 123.588 232.623 125.01 232.533C126.432 232.443 128.367 231.12 129.123 228.933C130.104 226.143 129.573 223.173 129.96 221.544C130.347 219.915 129.195 219.528 128.349 220.5Z" fill="#FFA8A7"/>
<path d="M79.542 223.101L83.223 209.097C83.223 209.097 85.347 201.51 83.223 196.182C83.223 196.182 81.477 195.561 78.804 197.766C76.131 199.971 74.664 204.966 73.737 209.007C72.81 213.048 70.902 226.413 71.127 227.799C71.352 229.185 73.827 230.04 81.198 231.399L79.542 223.101Z" fill="#FFA8A7"/>
<path d="M224.757 261.45C211.761 261.45 201.222 267.525 201.222 275.013V307.71C201.222 315.198 211.761 321.273 224.757 321.273C237.753 321.273 248.292 315.198 248.292 307.71V275.013C248.292 267.525 237.753 261.45 224.757 261.45Z" fill="#EBEBEB"/>
<path d="M224.757 261.45C211.761 261.45 201.222 267.525 201.222 275.013V307.71C201.222 315.198 211.761 321.273 224.757 321.273C237.753 321.273 248.292 315.198 248.292 307.71V275.013C248.292 267.525 237.753 261.45 224.757 261.45Z" fill="#282828"/>
<path opacity="0.1" d="M201.222 275.013V307.71C201.222 313.776 208.134 318.906 217.674 320.643V262.08C208.134 263.808 201.222 268.947 201.222 275.013Z" fill="black"/>
<path d="M251.874 278.199C252.054 277.929 317.088 173.313 317.088 173.313C317.088 173.313 284.22 194.526 224.775 194.526C214.101 194.539 203.438 193.823 192.861 192.384C153.684 186.984 132.453 173.313 132.453 173.313L197.622 278.181C201.618 284.589 212.256 289.17 224.748 289.17C237.24 289.17 247.869 284.589 251.865 278.181L251.874 278.199Z" fill="#EBEBEB"/>
<path d="M177.534 200.358L167.634 187.344C144.639 181.188 132.417 173.313 132.417 173.313L197.586 278.181C200.799 283.338 208.314 287.307 217.629 288.657L177.534 200.358Z" fill="#E0E0E0"/>
<path d="M306.9 91.71C287.028 80.235 261.747 73.791 235.8 72.378C202.5 70.578 168.201 77.013 142.74 91.719C97.407 117.9 97.416 160.335 142.74 186.507C153.681 192.674 165.407 197.334 177.597 200.358C208.728 208.35 244.71 208.035 275.472 199.458C279.804 198.258 284.019 196.884 288.117 195.336C289.827 194.697 291.519 194.022 293.175 193.32C295.533 192.33 297.834 191.283 300.078 190.179C302.418 189.018 304.704 187.812 306.909 186.534C352.197 160.326 352.206 117.9 306.9 91.71Z" fill="#282828"/>
<path opacity="0.1" d="M235.737 72.378C202.437 70.578 168.138 77.013 142.677 91.719C97.344 117.9 97.353 160.335 142.677 186.507C153.618 192.674 165.344 197.334 177.534 200.358C173.205 194.319 170.334 179.937 178.677 179.046C167.883 176.324 157.499 172.177 147.798 166.716C134.766 159.192 125.937 150.219 122.22 140.76C119.061 132.66 119.799 124.56 124.434 116.523C128.934 108.738 137.034 101.349 147.771 95.121C169.425 82.611 198.837 76.608 227.934 77.121C227.934 77.094 227.277 73.458 235.737 72.378Z" fill="black"/>
<path d="M301.5 95.103C281.475 83.547 254.817 77.526 227.907 77.103C198.81 76.608 169.407 82.611 147.744 95.103C136.944 101.331 128.889 108.72 124.407 116.505C119.772 124.506 119.007 132.705 122.193 140.742C125.91 150.201 134.739 159.174 147.771 166.698C157.472 172.159 167.856 176.306 178.65 179.028C182.916 180.153 187.29 181.107 191.745 181.899C199.647 183.29 207.633 184.159 215.649 184.5C217.305 184.578 218.961 184.632 220.617 184.662C223.362 184.734 226.134 184.743 228.879 184.662C238.202 184.491 247.499 183.613 256.689 182.034L257.004 181.98C262.905 180.959 268.746 179.616 274.5 177.957C278.556 176.757 282.486 175.422 286.29 173.952C287.883 173.34 289.44 172.683 290.988 172.008C292.833 171.189 294.651 170.325 296.433 169.434C298.215 168.543 299.835 167.634 301.482 166.734C312.282 160.497 320.382 153.09 324.882 145.314C334.8 128.052 326.079 109.287 301.5 95.103Z" fill="#F5F5F5"/>
<path d="M224.757 151.047C197.496 151.047 174.24 160.884 165.033 174.726C169.505 176.393 174.059 177.832 178.677 179.037C182.943 180.162 187.317 181.116 191.772 181.908C199.666 183.295 207.642 184.16 215.649 184.5C217.305 184.578 218.961 184.632 220.617 184.662C223.362 184.734 226.134 184.743 228.879 184.662C238.202 184.491 247.499 183.613 256.689 182.034L257.004 181.98C262.905 180.958 268.745 179.615 274.5 177.957C277.896 176.967 281.196 175.869 284.4 174.663C275.202 160.857 252 151.047 224.757 151.047Z" fill="#EBEBEB"/>
<path d="M252.63 163.053C258.759 163.053 263.727 158.085 263.727 151.956C263.727 145.827 258.759 140.859 252.63 140.859C246.501 140.859 241.533 145.827 241.533 151.956C241.533 158.085 246.501 163.053 252.63 163.053Z" fill="#282828"/>
<path opacity="0.1" d="M249.534 155.952C244.251 152.118 243.819 144.603 247.95 141.894C246.142 142.729 244.592 144.035 243.463 145.675C242.334 147.315 241.667 149.229 241.532 151.215C241.396 153.202 241.798 155.188 242.695 156.966C243.592 158.744 244.951 160.248 246.629 161.32C248.307 162.392 250.242 162.993 252.232 163.059C254.223 163.126 256.194 162.655 257.94 161.698C259.686 160.74 261.142 159.33 262.155 157.616C263.169 155.902 263.702 153.947 263.7 151.956C263.304 157.302 254.817 159.777 249.534 155.952Z" fill="black"/>
<path d="M290.709 120.258C300.988 120.258 309.321 111.925 309.321 101.646C309.321 91.3669 300.988 83.0341 290.709 83.0341C280.43 83.0341 272.097 91.3669 272.097 101.646C272.097 111.925 280.43 120.258 290.709 120.258Z" fill="#455A64"/>
<path d="M285.516 108.342C276.651 101.916 275.922 89.298 282.861 84.762C279.833 86.1691 277.24 88.3643 275.352 91.1179C273.464 93.8714 272.35 97.0819 272.129 100.413C271.908 103.745 272.586 107.074 274.093 110.053C275.6 113.033 277.88 115.552 280.695 117.347C283.51 119.143 286.755 120.149 290.092 120.259C293.429 120.37 296.734 119.581 299.662 117.976C302.589 116.371 305.031 114.008 306.732 111.135C308.433 108.262 309.33 104.985 309.33 101.646C308.619 110.61 294.39 114.759 285.516 108.342Z" fill="#37474F"/>
<path d="M176.737 65.9942C182.438 60.2933 182.438 51.0504 176.737 45.3495C171.037 39.6487 161.794 39.6487 156.093 45.3495C150.392 51.0504 150.392 60.2933 156.093 65.9942C161.794 71.6951 171.037 71.6951 176.737 65.9942Z" fill="#455A64"/>
<path d="M162.342 60.9211C155.385 55.8901 154.818 45.9901 160.254 42.4351C157.881 43.5387 155.848 45.2599 154.369 47.4185C152.889 49.5772 152.017 52.0939 151.844 54.7051C151.671 57.3164 152.203 59.9263 153.384 62.2615C154.565 64.5967 156.353 66.5713 158.559 67.9788C160.766 69.3862 163.31 70.1746 165.925 70.2615C168.541 70.3484 171.132 69.7306 173.427 68.4727C175.722 67.2148 177.636 65.3631 178.97 63.1115C180.304 60.8599 181.008 58.2911 181.008 55.6741C180.45 62.7031 169.29 65.9611 162.342 60.9211Z" fill="#37474F"/>
<path d="M147.141 125.451L154.845 108.702C155.246 107.94 155.821 107.283 156.523 106.784C157.225 106.286 158.034 105.959 158.886 105.831L175.86 103.5C176.72 103.469 177.575 103.64 178.356 104C179.138 104.359 179.824 104.897 180.36 105.57L191.016 120.618C191.475 121.348 191.756 122.175 191.836 123.034C191.915 123.892 191.792 124.757 191.475 125.559L183.771 142.308C183.368 143.07 182.791 143.727 182.088 144.226C181.384 144.724 180.574 145.051 179.721 145.179L162.756 147.483C161.896 147.515 161.041 147.345 160.259 146.985C159.477 146.626 158.791 146.087 158.256 145.413L147.6 130.392C147.139 129.663 146.857 128.835 146.777 127.977C146.697 127.118 146.822 126.252 147.141 125.451Z" fill="#282828"/>
<path opacity="0.1" d="M158.256 145.44C158.791 146.114 159.477 146.653 160.259 147.012C161.041 147.372 161.896 147.542 162.756 147.51L179.721 145.206C180.494 145.088 181.234 144.809 181.891 144.385C182.549 143.962 183.11 143.404 183.537 142.749C182.844 143.775 181.737 143.757 180.918 142.605L170.262 127.548C169.784 126.829 169.502 125.998 169.443 125.136L146.781 127.971C146.841 128.835 147.124 129.669 147.6 130.392L158.256 145.44Z" fill="black"/>
<path opacity="0.4" d="M180.117 105.3C179.217 104.4 178.137 104.589 177.543 105.885L169.83 122.643C169.42 123.653 169.328 124.765 169.569 125.829C169.522 125.612 169.489 125.393 169.47 125.172L146.808 128.007C146.706 127.147 146.83 126.275 147.168 125.478L154.872 108.729C155.274 107.966 155.85 107.308 156.554 106.81C157.258 106.311 158.069 105.985 158.922 105.858L175.887 103.5C176.68 103.478 177.468 103.628 178.198 103.938C178.928 104.249 179.583 104.713 180.117 105.3Z" fill="white"/>
<path d="M253.152 29.997L268.668 28.026C269.396 27.973 270.126 28.093 270.798 28.3761C271.471 28.6592 272.067 29.0975 272.538 29.655L281.817 40.833C282.225 41.4376 282.486 42.1296 282.578 42.8533C282.671 43.577 282.592 44.3123 282.348 45L276.3 59.4C275.981 60.0576 275.512 60.631 274.93 61.0735C274.349 61.516 273.671 61.8152 272.952 61.947L257.4 63.945C256.672 63.9958 255.943 63.8748 255.271 63.5919C254.599 63.3089 254.002 62.8718 253.53 62.316L244.278 51.138C243.87 50.5334 243.609 49.8414 243.517 49.1177C243.424 48.394 243.503 47.6587 243.747 46.971L249.804 32.571C250.12 31.9083 250.587 31.3296 251.169 30.8823C251.751 30.4349 252.43 30.1316 253.152 29.997Z" fill="#282828"/>
<path opacity="0.1" d="M243.747 46.971C243.503 47.6587 243.424 48.394 243.517 49.1177C243.609 49.8414 243.87 50.5334 244.278 51.138L253.557 62.316C253.987 62.82 254.519 63.2273 255.118 63.5111C255.717 63.795 256.369 63.949 257.031 63.963C255.978 63.963 255.501 63.117 255.96 62.01L262.017 47.61C262.313 46.9287 262.785 46.3385 263.385 45.9L251.172 30.87C250.579 31.3001 250.107 31.8769 249.804 32.544L243.747 46.971Z" fill="black"/>
<path opacity="0.4" d="M282.483 44.676C282.762 43.623 282.105 42.93 280.908 43.083L265.383 45.054C264.472 45.2155 263.631 45.6484 262.971 46.296C263.106 46.17 263.25 46.044 263.403 45.927L251.199 30.888C251.767 30.4169 252.451 30.1062 253.179 29.988L268.686 28.017C269.414 27.963 270.145 28.0815 270.819 28.363C271.493 28.6445 272.091 29.081 272.565 29.637L281.844 40.815C282.222 41.3748 282.474 42.0095 282.585 42.6758C282.695 43.3421 282.66 44.0243 282.483 44.676Z" fill="white"/>
<path d="M216.459 93.204L224.838 93.348C225.233 93.3691 225.618 93.4847 225.959 93.6852C226.301 93.8856 226.589 94.165 226.8 94.5L230.859 101.133C231.036 101.483 231.128 101.87 231.128 102.262C231.128 102.655 231.036 103.042 230.859 103.392L226.548 110.592C226.327 110.915 226.034 111.182 225.692 111.371C225.35 111.56 224.968 111.666 224.577 111.681L216.198 111.537C215.808 111.509 215.43 111.39 215.096 111.188C214.761 110.986 214.479 110.708 214.272 110.376L210.213 103.743C210.035 103.395 209.943 103.009 209.943 102.618C209.943 102.227 210.035 101.841 210.213 101.493L214.524 94.293C214.74 93.9738 215.027 93.7092 215.363 93.5202C215.699 93.3312 216.074 93.223 216.459 93.204Z" fill="#37474F"/>
<path opacity="0.4" d="M230.886 103.239C231.111 102.699 230.823 102.276 230.166 102.267L221.796 102.123C221.299 102.136 220.818 102.302 220.419 102.6C220.501 102.538 220.588 102.483 220.68 102.438L215.361 93.528C215.701 93.3318 216.085 93.2235 216.477 93.213L224.847 93.357C225.239 93.3814 225.62 93.4975 225.96 93.696C226.299 93.8946 226.587 94.1699 226.8 94.5L230.859 101.133C231.015 101.461 231.098 101.82 231.103 102.183C231.108 102.547 231.034 102.907 230.886 103.239Z" fill="#455A64"/>
<path d="M210.177 101.484C209.999 101.832 209.907 102.218 209.907 102.609C209.907 103 209.999 103.386 210.177 103.734L214.236 110.367C214.425 110.668 214.676 110.925 214.972 111.12C215.269 111.316 215.604 111.446 215.955 111.501C215.397 111.402 215.199 110.943 215.532 110.385L219.843 103.185C220.07 102.85 220.38 102.58 220.743 102.402L215.424 93.4919C215.061 93.6701 214.751 93.94 214.524 94.2749L210.177 101.484Z" fill="#263238"/>
<path d="M227.765 355.134C228.852 348.437 224.305 342.127 217.607 341.04C210.91 339.952 204.6 344.5 203.513 351.197C202.426 357.895 206.974 364.205 213.671 365.292C220.368 366.379 226.678 361.831 227.765 355.134Z" fill="#282828"/>
<path opacity="0.1" d="M212.211 357.57C206.361 353.331 205.911 344.97 210.456 342.009C208.458 342.937 206.747 344.385 205.501 346.201C204.255 348.018 203.52 350.136 203.373 352.333C203.227 354.531 203.674 356.728 204.668 358.694C205.661 360.66 207.166 362.322 209.022 363.507C210.879 364.692 213.02 365.356 215.222 365.429C217.423 365.502 219.604 364.982 221.536 363.924C223.467 362.865 225.079 361.306 226.201 359.411C227.324 357.516 227.916 355.354 227.916 353.151C227.448 359.1 218.061 361.8 212.211 357.57Z" fill="black"/>
<path d="M236.358 328.635L242.721 328.752C243.019 328.776 243.307 328.87 243.562 329.026C243.817 329.183 244.032 329.397 244.188 329.652L247.266 334.701C247.401 334.966 247.472 335.259 247.472 335.556C247.472 335.853 247.401 336.146 247.266 336.411L243.99 341.865C243.823 342.111 243.601 342.314 243.342 342.457C243.082 342.601 242.793 342.682 242.496 342.693L236.133 342.585C235.834 342.563 235.546 342.469 235.291 342.313C235.035 342.156 234.821 341.941 234.666 341.685L231.579 336.645C231.446 336.38 231.377 336.087 231.377 335.79C231.377 335.493 231.446 335.2 231.579 334.935L234.855 329.472C235.024 329.226 235.248 329.022 235.508 328.877C235.769 328.732 236.06 328.649 236.358 328.635Z" fill="#37474F"/>
<path opacity="0.4" d="M247.311 336.258C247.482 335.853 247.266 335.529 246.771 335.52L240.408 335.412C240.031 335.42 239.666 335.546 239.364 335.772L239.553 335.646L235.512 328.878C235.774 328.733 236.067 328.653 236.367 328.644L242.73 328.752C243.028 328.776 243.316 328.87 243.571 329.026C243.826 329.183 244.041 329.397 244.197 329.652L247.275 334.692C247.391 334.936 247.455 335.201 247.461 335.471C247.467 335.741 247.416 336.009 247.311 336.258Z" fill="#455A64"/>
<path d="M231.579 334.926C231.446 335.191 231.377 335.484 231.377 335.781C231.377 336.078 231.446 336.371 231.579 336.636L234.666 341.676C234.805 341.912 234.994 342.115 235.219 342.27C235.444 342.426 235.701 342.53 235.971 342.576C235.548 342.495 235.395 342.144 235.647 341.73L238.923 336.276C239.084 336.026 239.307 335.821 239.571 335.682L235.53 328.914C235.269 329.053 235.047 329.254 234.882 329.499L231.579 334.926Z" fill="#263238"/>
</svg>
