<svg width="450" height="450" viewBox="0 0 450 450" fill="none" xmlns="http://www.w3.org/2000/svg">
<path d="M86.769 99.819C86.769 99.819 69.921 109.449 67.5 133.506C65.079 157.563 91.557 191.268 95.571 221.706C99.585 252.144 67.5 259.452 80.352 297.954C93.204 336.456 160.569 345.276 196.659 330.039C232.749 314.802 249.606 276.3 303.354 276.3C357.102 276.3 395.595 251.424 392.4 196.074C389.205 140.724 377.145 123.885 333.828 91.8C290.511 59.715 139.707 45.27 86.769 99.819Z" fill="#FAFAFA"/>
<path opacity="0.85" d="M86.769 99.819C86.769 99.819 69.921 109.449 67.5 133.506C65.079 157.563 91.557 191.268 95.571 221.706C99.585 252.144 67.5 259.452 80.352 297.954C93.204 336.456 160.569 345.276 196.659 330.039C232.749 314.802 249.606 276.3 303.354 276.3C357.102 276.3 395.595 251.424 392.4 196.074C389.205 140.724 377.145 123.885 333.828 91.8C290.511 59.715 139.707 45.27 86.769 99.819Z" fill="#FAFAFA"/>
<path d="M239.112 395.856C326.201 395.856 396.801 392.242 396.801 387.783C396.801 383.324 326.201 379.71 239.112 379.71C152.023 379.71 81.423 383.324 81.423 387.783C81.423 392.242 152.023 395.856 239.112 395.856Z" fill="#FAFAFA"/>
<path opacity="0.3" d="M239.112 395.856C326.201 395.856 396.801 392.242 396.801 387.783C396.801 383.324 326.201 379.71 239.112 379.71C152.023 379.71 81.423 383.324 81.423 387.783C81.423 392.242 152.023 395.856 239.112 395.856Z" fill="white"/>
<path d="M390.762 265.464H385.83H163.188H158.256V275.319H163.188V375.552H385.83V275.319H390.762V265.464Z" fill="#282828"/>
<path opacity="0.5" d="M390.762 265.464H385.83H163.188H158.256V275.319H163.188V375.552H385.83V275.319H390.762V265.464Z" fill="white"/>
<path d="M169.146 317.835H229.869V285.435H169.146V317.835ZM170.379 286.623H228.6V316.611H170.379V286.623Z" fill="white"/>
<path d="M244.557 317.835H305.289V285.435H244.557V317.835ZM245.79 286.623H304.056V316.611H245.79V286.623Z" fill="white"/>
<path d="M319.977 285.39V317.79H380.7V285.39H319.977ZM379.467 316.611H321.21V286.623H379.467V316.611Z" fill="white"/>
<path d="M169.146 361.386H229.869V328.932H169.146V361.386ZM170.379 330.165H228.6V360.153H170.379V330.165Z" fill="white"/>
<path d="M244.557 361.386H305.289V328.932H244.557V361.386ZM245.79 330.165H304.056V360.153H245.79V330.165Z" fill="white"/>
<path d="M319.977 361.386H380.7V328.932H319.977V361.386ZM321.21 330.165H379.467V360.153H321.21V330.165Z" fill="white"/>
<path d="M200.16 298.323C194.715 298.323 190.26 299.979 190.26 302.022C190.26 304.065 194.679 305.721 200.16 305.721C205.641 305.721 210.015 304.065 210.015 302.022C210.015 299.979 205.605 298.323 200.16 298.323Z" fill="white"/>
<path d="M275.211 298.323C269.766 298.323 265.311 299.979 265.311 302.022C265.311 304.065 269.73 305.721 275.211 305.721C280.692 305.721 285.066 304.065 285.066 302.022C285.066 299.979 280.656 298.323 275.211 298.323Z" fill="white"/>
<path d="M352.44 305.721C357.84 305.721 362.295 304.065 362.295 302.022C362.295 299.979 357.885 298.323 352.44 298.323C346.995 298.323 342.54 299.979 342.54 302.022C342.54 304.065 346.995 305.721 352.44 305.721Z" fill="white"/>
<path d="M200.16 349.263C205.603 349.263 210.015 347.607 210.015 345.564C210.015 343.521 205.603 341.865 200.16 341.865C194.717 341.865 190.305 343.521 190.305 345.564C190.305 347.607 194.717 349.263 200.16 349.263Z" fill="white"/>
<path d="M275.211 349.263C280.654 349.263 285.066 347.607 285.066 345.564C285.066 343.521 280.654 341.865 275.211 341.865C269.768 341.865 265.356 343.521 265.356 345.564C265.356 347.607 269.768 349.263 275.211 349.263Z" fill="white"/>
<path d="M352.44 349.263C357.883 349.263 362.295 347.607 362.295 345.564C362.295 343.521 357.883 341.865 352.44 341.865C346.997 341.865 342.585 343.521 342.585 345.564C342.585 347.607 346.997 349.263 352.44 349.263Z" fill="white"/>
<path d="M121.149 275.148C121.149 275.148 121.905 272.385 121.932 272.205C122.22 270.108 121.554 265.905 119.412 264.852C119.053 264.69 118.664 264.605 118.27 264.604C117.875 264.603 117.486 264.684 117.125 264.844C116.765 265.004 116.443 265.238 116.179 265.531C115.916 265.824 115.717 266.169 115.596 266.544C115.029 268.11 115.749 270.045 116.613 271.368C117.621 272.934 121.14 275.148 121.149 275.148Z" fill="#282828"/>
<path d="M80.478 286.29C82.278 286.551 85.959 285.471 86.256 285.39C86.8644 287.515 87.6161 289.595 88.506 291.618C89.019 292.806 89.568 293.976 90.135 295.155C89.802 294.651 89.487 294.21 89.442 294.156C88.056 292.554 84.438 290.277 82.242 291.204C81.8828 291.368 81.5623 291.606 81.3014 291.903C81.0405 292.199 80.8451 292.547 80.7279 292.924C80.6107 293.302 80.5743 293.699 80.6212 294.091C80.6681 294.483 80.7972 294.861 81 295.2C81.81 296.667 83.7 297.387 85.302 297.621C86.904 297.855 90.081 297 90.918 296.721C91.143 297.171 91.359 297.621 91.584 298.062C92.655 300.204 93.744 302.337 94.734 304.461C95.094 305.217 95.409 305.964 95.733 306.711C95.427 306.27 95.175 305.901 95.13 305.811C93.744 304.209 90.126 301.932 87.93 302.859C87.565 303.023 87.2393 303.263 86.9751 303.564C86.7108 303.864 86.514 304.218 86.398 304.601C86.282 304.984 86.2495 305.387 86.3026 305.784C86.3558 306.18 86.4933 306.561 86.706 306.9C87.516 308.367 89.406 309.096 91.008 309.321C92.61 309.546 95.508 308.781 96.471 308.502C96.777 309.276 97.083 310.059 97.371 310.824C97.542 311.355 97.74 311.85 97.875 312.39C98.01 312.93 98.172 313.443 98.316 313.965C98.559 314.982 98.82 316.026 99.027 317.016C99.18 317.709 99.315 318.375 99.45 319.032C99.108 318.285 98.415 316.836 98.343 316.719C97.209 314.919 93.978 312.129 91.683 312.714C91.3071 312.826 90.9588 313.015 90.6605 313.269C90.3622 313.524 90.1204 313.838 89.9509 314.191C89.7813 314.545 89.6876 314.93 89.676 315.322C89.6643 315.714 89.7348 316.104 89.883 316.467C90.459 318.033 92.259 319.041 93.771 319.509C95.436 320.013 99.126 319.554 99.585 319.509C99.801 320.607 100.008 321.687 100.188 322.704C100.809 326.223 101.187 329.175 101.43 331.245C101.475 331.614 101.511 331.947 101.538 332.253H94.401L96.642 375.867H109.539L111.78 332.253H105.129C105.174 332.154 105.228 332.055 105.273 331.947C106.173 330.048 107.451 327.312 108.819 323.973C109.251 322.92 109.719 321.786 110.142 320.607C110.592 320.706 114.237 321.444 115.938 321.066C117.486 320.715 119.349 319.842 120.042 318.312C120.216 317.959 120.315 317.573 120.33 317.179C120.346 316.786 120.278 316.393 120.132 316.028C119.986 315.662 119.765 315.331 119.483 315.056C119.201 314.781 118.864 314.569 118.494 314.433C116.244 313.677 112.815 316.233 111.555 317.934C111.483 318.042 110.799 319.221 110.376 319.968C110.556 319.491 110.736 319.068 110.916 318.537C111.276 317.556 111.6 316.566 111.96 315.504C112.113 314.991 112.275 314.469 112.428 313.938C112.581 313.407 112.707 312.849 112.851 312.3C113.157 311.013 113.409 309.699 113.625 308.367C114.48 308.673 117.54 309.744 119.124 309.627C120.708 309.51 122.724 308.943 123.624 307.539C123.853 307.22 124.012 306.855 124.091 306.47C124.17 306.085 124.167 305.688 124.082 305.304C123.997 304.92 123.832 304.559 123.598 304.243C123.364 303.927 123.066 303.664 122.724 303.471C120.618 302.382 116.838 304.371 115.344 305.883C115.245 305.973 114.291 307.161 113.778 307.827C113.904 307.026 114.03 306.234 114.129 305.415C114.426 303.066 114.651 300.672 114.876 298.296C114.948 297.558 115.029 296.838 115.11 296.109C115.407 296.226 119.016 297.567 120.798 297.441C122.373 297.333 124.398 296.748 125.298 295.353C125.526 295.032 125.684 294.668 125.762 294.282C125.84 293.897 125.837 293.499 125.752 293.115C125.667 292.731 125.503 292.369 125.27 292.052C125.036 291.735 124.74 291.471 124.398 291.276C122.283 290.196 118.512 292.176 117.009 293.688C116.892 293.805 115.524 295.488 115.209 295.974C115.38 294.372 115.56 292.779 115.812 291.213C116.131 289.086 116.585 286.982 117.171 284.913C117.315 284.967 121.077 286.389 122.895 286.263C124.47 286.146 126.45 285.57 127.395 284.166C127.621 283.843 127.776 283.477 127.851 283.09C127.926 282.703 127.918 282.305 127.829 281.921C127.74 281.538 127.571 281.177 127.333 280.863C127.096 280.549 126.795 280.288 126.45 280.098C124.344 279.009 120.564 280.998 119.061 282.51C118.962 282.609 117.918 283.914 117.432 284.553L117.315 284.49C117.961 282.436 118.792 280.445 119.799 278.541C120.339 277.488 120.915 276.507 121.491 275.562C122.166 275.904 125.262 277.407 126.891 277.47C128.52 277.533 130.491 277.173 131.562 275.877C131.822 275.582 132.017 275.236 132.135 274.86C132.252 274.485 132.289 274.089 132.243 273.699C132.198 273.308 132.07 272.931 131.869 272.593C131.668 272.255 131.397 271.964 131.076 271.737C129.096 270.423 125.127 271.998 123.471 273.321C123.381 273.393 122.571 274.221 121.941 274.833C122.211 274.41 122.481 273.978 122.751 273.582C123.741 272.088 124.74 270.774 125.631 269.631C126.153 268.974 126.63 268.398 127.08 267.831C127.917 267.831 131.265 267.714 132.732 267.021C134.199 266.328 135.801 265.095 136.152 263.421C136.247 263.038 136.259 262.64 136.19 262.252C136.12 261.864 135.97 261.495 135.748 261.169C135.527 260.843 135.239 260.567 134.904 260.36C134.569 260.153 134.194 260.018 133.803 259.965C131.445 259.713 128.646 262.944 127.782 264.879C127.71 265.05 126.882 267.795 126.882 267.795H126.927C126.486 268.299 126.027 268.848 125.505 269.46C124.605 270.594 123.552 271.881 122.526 273.357C121.396 274.938 120.362 276.585 119.43 278.289C118.378 280.188 117.496 282.175 116.793 284.229V284.31C116.793 283.617 116.793 281.673 116.793 281.52C116.523 279.423 114.759 275.526 112.428 275.094C112.039 275.031 111.64 275.052 111.259 275.154C110.878 275.256 110.523 275.438 110.217 275.687C109.911 275.936 109.662 276.247 109.484 276.599C109.307 276.951 109.206 277.337 109.188 277.731C109.053 279.396 110.268 281.07 111.447 282.123C112.779 283.311 116.469 284.463 116.766 284.553C116.099 286.663 115.575 288.816 115.2 290.997C114.975 292.266 114.786 293.553 114.615 294.84C114.615 294.237 114.615 293.697 114.615 293.625C114.345 291.528 112.59 287.631 110.259 287.199C109.87 287.138 109.472 287.159 109.092 287.262C108.711 287.365 108.357 287.547 108.051 287.795C107.746 288.044 107.496 288.354 107.318 288.706C107.14 289.057 107.038 289.443 107.019 289.836C106.884 291.501 108.09 293.175 109.269 294.228C110.448 295.281 113.598 296.343 114.426 296.604L114.237 298.098C113.958 300.474 113.679 302.85 113.337 305.172C113.211 305.991 113.067 306.792 112.923 307.593C112.923 307.062 112.923 306.612 112.923 306.549C112.653 304.443 110.889 300.546 108.558 300.114C108.169 300.053 107.771 300.074 107.391 300.177C107.01 300.28 106.656 300.462 106.35 300.71C106.045 300.959 105.795 301.269 105.617 301.621C105.439 301.972 105.337 302.358 105.318 302.751C105.183 304.425 106.389 306.09 107.577 307.152C108.765 308.214 111.591 309.159 112.581 309.474C112.41 310.293 112.239 311.112 112.032 311.895C111.879 312.435 111.771 312.957 111.591 313.479C111.411 314.001 111.249 314.523 111.087 315.036C110.727 316.017 110.367 317.034 109.998 317.979C109.746 318.636 109.485 319.266 109.233 319.896C109.359 319.077 109.584 317.484 109.584 317.349C109.561 315.486 109.058 313.661 108.126 312.048C108.129 311.84 108.114 311.632 108.081 311.427C108.032 311.036 107.902 310.66 107.698 310.323C107.494 309.986 107.221 309.695 106.898 309.47C106.575 309.245 106.208 309.091 105.821 309.017C105.434 308.943 105.035 308.952 104.652 309.042C102.357 309.654 100.908 313.677 100.8 315.792C100.8 315.918 100.872 317.277 100.935 318.132C100.827 317.637 100.719 317.151 100.593 316.638C100.35 315.63 100.08 314.622 99.792 313.542C99.639 313.02 99.477 312.498 99.324 311.976C99.171 311.454 98.955 310.905 98.766 310.365C98.316 309.132 97.794 307.899 97.245 306.666C98.145 306.45 101.268 305.649 102.528 304.686C103.788 303.723 105.12 302.148 105.102 300.474C105.113 300.08 105.042 299.689 104.892 299.325C104.742 298.96 104.517 298.632 104.232 298.36C103.947 298.089 103.607 297.88 103.236 297.748C102.865 297.616 102.471 297.564 102.078 297.594C99.72 297.855 97.668 301.608 97.245 303.687C97.245 303.813 97.074 305.334 97.011 306.171C96.678 305.433 96.345 304.695 95.976 303.966C94.923 301.842 93.798 299.727 92.673 297.612L91.656 295.668C91.971 295.596 95.724 294.723 97.137 293.643C98.397 292.68 99.72 291.096 99.711 289.422C99.7154 289 99.6245 288.582 99.445 288.199C99.2654 287.817 99.0019 287.48 98.6741 287.213C98.3462 286.947 97.9625 286.758 97.5514 286.66C97.1404 286.563 96.7126 286.559 96.3 286.65C93.942 286.911 91.899 290.664 91.467 292.734C91.467 292.896 91.242 295.083 91.215 295.641C90.477 294.219 89.748 292.788 89.091 291.348C88.1862 289.407 87.4134 287.408 86.778 285.363C86.922 285.363 90.846 284.463 92.286 283.329C93.546 282.366 94.878 280.791 94.86 279.117C94.8701 278.723 94.7973 278.332 94.6462 277.968C94.4952 277.604 94.2693 277.276 93.9833 277.006C93.6972 276.735 93.3574 276.527 92.9859 276.396C92.6144 276.266 92.2196 276.214 91.827 276.246C89.469 276.507 87.426 280.26 87.003 282.33C87.003 282.465 86.814 284.13 86.76 284.931H86.634C86.0423 282.871 85.6357 280.763 85.419 278.631C85.293 277.452 85.23 276.318 85.194 275.22C85.941 275.13 89.352 274.671 90.765 273.816C92.178 272.961 93.618 271.584 93.789 269.919C93.8421 269.528 93.8126 269.131 93.7024 268.752C93.5922 268.374 93.4038 268.022 93.1493 267.721C92.8948 267.42 92.5799 267.176 92.225 267.004C91.8701 266.832 91.4831 266.737 91.089 266.724C88.713 266.724 86.274 270.234 85.617 272.241C85.617 272.358 85.347 273.51 85.185 274.347C85.185 273.852 85.185 273.339 85.185 272.862C85.185 271.062 85.302 269.424 85.419 267.975C85.491 267.147 85.563 266.4 85.653 265.707C86.337 265.23 89.082 263.295 89.919 261.909C90.756 260.523 91.422 258.615 90.819 257.058C90.6885 256.686 90.4808 256.346 90.2096 256.059C89.9384 255.773 89.6098 255.547 89.2452 255.397C88.8807 255.246 88.4885 255.175 88.0943 255.187C87.7002 255.198 87.3129 255.293 86.958 255.465C84.852 256.554 84.258 260.793 84.645 262.89C84.645 263.07 85.473 265.833 85.545 265.815C85.446 266.49 85.356 267.21 85.275 267.993C85.131 269.442 84.978 271.089 84.933 272.889C84.8671 274.828 84.9152 276.77 85.077 278.703C85.2413 280.87 85.5997 283.017 86.148 285.12V285.201C85.779 284.607 84.681 283.005 84.582 282.897C83.196 281.295 79.578 279.009 77.382 279.936C77.0241 280.1 76.7047 280.338 76.4447 280.634C76.1847 280.93 75.9898 281.277 75.8726 281.653C75.7555 282.029 75.7188 282.425 75.7648 282.816C75.8109 283.207 75.9387 283.585 76.14 283.923C76.986 285.3 78.912 286.065 80.478 286.29ZM103.995 317.376C105.21 318.69 108.315 320.229 108.72 320.427C108.297 321.462 107.874 322.47 107.46 323.415C106.038 326.7 104.76 329.373 103.788 331.236C103.59 331.605 103.419 331.938 103.266 332.244H103.104C103.104 331.884 103.005 331.488 102.951 331.038C102.663 328.95 102.204 325.971 101.502 322.434C101.286 321.309 101.025 320.121 100.755 318.897C101.863 318.451 102.945 317.944 103.995 317.376Z" fill="#282828"/>
<path d="M79.038 274.239C80.739 274.977 84.906 274.887 84.906 274.887C84.906 274.887 84.006 272.187 83.934 271.998C83.034 270.081 80.136 266.931 77.787 267.246C77.3981 267.31 77.0271 267.455 76.6978 267.672C76.3686 267.889 76.0885 268.172 75.8756 268.504C75.6626 268.835 75.5217 269.208 75.4618 269.597C75.402 269.987 75.4245 270.385 75.528 270.765C75.924 272.394 77.589 273.6 79.038 274.239Z" fill="#282828"/>
<path opacity="0.5" d="M80.478 286.29C82.278 286.551 85.959 285.471 86.256 285.39C86.8644 287.515 87.6161 289.595 88.506 291.618C89.019 292.806 89.568 293.976 90.135 295.155C89.802 294.651 89.487 294.21 89.442 294.156C88.056 292.554 84.438 290.277 82.242 291.204C81.8828 291.368 81.5623 291.606 81.3014 291.903C81.0405 292.199 80.8451 292.547 80.7279 292.924C80.6107 293.302 80.5743 293.699 80.6212 294.091C80.6681 294.483 80.7972 294.861 81 295.2C81.81 296.667 83.7 297.387 85.302 297.621C86.904 297.855 90.081 297 90.918 296.721C91.143 297.171 91.359 297.621 91.584 298.062C92.655 300.204 93.744 302.337 94.734 304.461C95.094 305.217 95.409 305.964 95.733 306.711C95.427 306.27 95.175 305.901 95.13 305.811C93.744 304.209 90.126 301.932 87.93 302.859C87.565 303.023 87.2393 303.263 86.9751 303.564C86.7108 303.864 86.514 304.218 86.398 304.601C86.282 304.984 86.2495 305.387 86.3026 305.784C86.3558 306.18 86.4933 306.561 86.706 306.9C87.516 308.367 89.406 309.096 91.008 309.321C92.61 309.546 95.508 308.781 96.471 308.502C96.777 309.276 97.083 310.059 97.371 310.824C97.542 311.355 97.74 311.85 97.875 312.39C98.01 312.93 98.172 313.443 98.316 313.965C98.559 314.982 98.82 316.026 99.027 317.016C99.18 317.709 99.315 318.375 99.45 319.032C99.108 318.285 98.415 316.836 98.343 316.719C97.209 314.919 93.978 312.129 91.683 312.714C91.3071 312.826 90.9588 313.015 90.6605 313.269C90.3622 313.524 90.1204 313.838 89.9509 314.191C89.7813 314.545 89.6876 314.93 89.676 315.322C89.6643 315.714 89.7348 316.104 89.883 316.467C90.459 318.033 92.259 319.041 93.771 319.509C95.436 320.013 99.126 319.554 99.585 319.509C99.801 320.607 100.008 321.687 100.188 322.704C100.809 326.223 101.187 329.175 101.43 331.245C101.475 331.614 101.511 331.947 101.538 332.253H94.401L96.642 375.867H109.539L111.78 332.253H105.129C105.174 332.154 105.228 332.055 105.273 331.947C106.173 330.048 107.451 327.312 108.819 323.973C109.251 322.92 109.719 321.786 110.142 320.607C110.592 320.706 114.237 321.444 115.938 321.066C117.486 320.715 119.349 319.842 120.042 318.312C120.216 317.959 120.315 317.573 120.33 317.179C120.346 316.786 120.278 316.393 120.132 316.028C119.986 315.662 119.765 315.331 119.483 315.056C119.201 314.781 118.864 314.569 118.494 314.433C116.244 313.677 112.815 316.233 111.555 317.934C111.483 318.042 110.799 319.221 110.376 319.968C110.556 319.491 110.736 319.068 110.916 318.537C111.276 317.556 111.6 316.566 111.96 315.504C112.113 314.991 112.275 314.469 112.428 313.938C112.581 313.407 112.707 312.849 112.851 312.3C113.157 311.013 113.409 309.699 113.625 308.367C114.48 308.673 117.54 309.744 119.124 309.627C120.708 309.51 122.724 308.943 123.624 307.539C123.853 307.22 124.012 306.855 124.091 306.47C124.17 306.085 124.167 305.688 124.082 305.304C123.997 304.92 123.832 304.559 123.598 304.243C123.364 303.927 123.066 303.664 122.724 303.471C120.618 302.382 116.838 304.371 115.344 305.883C115.245 305.973 114.291 307.161 113.778 307.827C113.904 307.026 114.03 306.234 114.129 305.415C114.426 303.066 114.651 300.672 114.876 298.296C114.948 297.558 115.029 296.838 115.11 296.109C115.407 296.226 119.016 297.567 120.798 297.441C122.373 297.333 124.398 296.748 125.298 295.353C125.526 295.032 125.684 294.668 125.762 294.282C125.84 293.897 125.837 293.499 125.752 293.115C125.667 292.731 125.503 292.369 125.27 292.052C125.036 291.735 124.74 291.471 124.398 291.276C122.283 290.196 118.512 292.176 117.009 293.688C116.892 293.805 115.524 295.488 115.209 295.974C115.38 294.372 115.56 292.779 115.812 291.213C116.131 289.086 116.585 286.982 117.171 284.913C117.315 284.967 121.077 286.389 122.895 286.263C124.47 286.146 126.45 285.57 127.395 284.166C127.621 283.843 127.776 283.477 127.851 283.09C127.926 282.703 127.918 282.305 127.829 281.921C127.74 281.538 127.571 281.177 127.333 280.863C127.096 280.549 126.795 280.288 126.45 280.098C124.344 279.009 120.564 280.998 119.061 282.51C118.962 282.609 117.918 283.914 117.432 284.553L117.315 284.49C117.961 282.436 118.792 280.445 119.799 278.541C120.339 277.488 120.915 276.507 121.491 275.562C122.166 275.904 125.262 277.407 126.891 277.47C128.52 277.533 130.491 277.173 131.562 275.877C131.822 275.582 132.017 275.236 132.135 274.86C132.252 274.485 132.289 274.089 132.243 273.699C132.198 273.308 132.07 272.931 131.869 272.593C131.668 272.255 131.397 271.964 131.076 271.737C129.096 270.423 125.127 271.998 123.471 273.321C123.381 273.393 122.571 274.221 121.941 274.833C122.211 274.41 122.481 273.978 122.751 273.582C123.741 272.088 124.74 270.774 125.631 269.631C126.153 268.974 126.63 268.398 127.08 267.831C127.917 267.831 131.265 267.714 132.732 267.021C134.199 266.328 135.801 265.095 136.152 263.421C136.247 263.038 136.259 262.64 136.19 262.252C136.12 261.864 135.97 261.495 135.748 261.169C135.527 260.843 135.239 260.567 134.904 260.36C134.569 260.153 134.194 260.018 133.803 259.965C131.445 259.713 128.646 262.944 127.782 264.879C127.71 265.05 126.882 267.795 126.882 267.795H126.927C126.486 268.299 126.027 268.848 125.505 269.46C124.605 270.594 123.552 271.881 122.526 273.357C121.396 274.938 120.362 276.585 119.43 278.289C118.378 280.188 117.496 282.175 116.793 284.229V284.31C116.793 283.617 116.793 281.673 116.793 281.52C116.523 279.423 114.759 275.526 112.428 275.094C112.039 275.031 111.64 275.052 111.259 275.154C110.878 275.256 110.523 275.438 110.217 275.687C109.911 275.936 109.662 276.247 109.484 276.599C109.307 276.951 109.206 277.337 109.188 277.731C109.053 279.396 110.268 281.07 111.447 282.123C112.779 283.311 116.469 284.463 116.766 284.553C116.099 286.663 115.575 288.816 115.2 290.997C114.975 292.266 114.786 293.553 114.615 294.84C114.615 294.237 114.615 293.697 114.615 293.625C114.345 291.528 112.59 287.631 110.259 287.199C109.87 287.138 109.472 287.159 109.092 287.262C108.711 287.365 108.357 287.547 108.051 287.795C107.746 288.044 107.496 288.354 107.318 288.706C107.14 289.057 107.038 289.443 107.019 289.836C106.884 291.501 108.09 293.175 109.269 294.228C110.448 295.281 113.598 296.343 114.426 296.604L114.237 298.098C113.958 300.474 113.679 302.85 113.337 305.172C113.211 305.991 113.067 306.792 112.923 307.593C112.923 307.062 112.923 306.612 112.923 306.549C112.653 304.443 110.889 300.546 108.558 300.114C108.169 300.053 107.771 300.074 107.391 300.177C107.01 300.28 106.656 300.462 106.35 300.71C106.045 300.959 105.795 301.269 105.617 301.621C105.439 301.972 105.337 302.358 105.318 302.751C105.183 304.425 106.389 306.09 107.577 307.152C108.765 308.214 111.591 309.159 112.581 309.474C112.41 310.293 112.239 311.112 112.032 311.895C111.879 312.435 111.771 312.957 111.591 313.479C111.411 314.001 111.249 314.523 111.087 315.036C110.727 316.017 110.367 317.034 109.998 317.979C109.746 318.636 109.485 319.266 109.233 319.896C109.359 319.077 109.584 317.484 109.584 317.349C109.561 315.486 109.058 313.661 108.126 312.048C108.129 311.84 108.114 311.632 108.081 311.427C108.032 311.036 107.902 310.66 107.698 310.323C107.494 309.986 107.221 309.695 106.898 309.47C106.575 309.245 106.208 309.091 105.821 309.017C105.434 308.943 105.035 308.952 104.652 309.042C102.357 309.654 100.908 313.677 100.8 315.792C100.8 315.918 100.872 317.277 100.935 318.132C100.827 317.637 100.719 317.151 100.593 316.638C100.35 315.63 100.08 314.622 99.792 313.542C99.639 313.02 99.477 312.498 99.324 311.976C99.171 311.454 98.955 310.905 98.766 310.365C98.316 309.132 97.794 307.899 97.245 306.666C98.145 306.45 101.268 305.649 102.528 304.686C103.788 303.723 105.12 302.148 105.102 300.474C105.113 300.08 105.042 299.689 104.892 299.325C104.742 298.96 104.517 298.632 104.232 298.36C103.947 298.089 103.607 297.88 103.236 297.748C102.865 297.616 102.471 297.564 102.078 297.594C99.72 297.855 97.668 301.608 97.245 303.687C97.245 303.813 97.074 305.334 97.011 306.171C96.678 305.433 96.345 304.695 95.976 303.966C94.923 301.842 93.798 299.727 92.673 297.612L91.656 295.668C91.971 295.596 95.724 294.723 97.137 293.643C98.397 292.68 99.72 291.096 99.711 289.422C99.7154 289 99.6245 288.582 99.445 288.199C99.2654 287.817 99.0019 287.48 98.6741 287.213C98.3462 286.947 97.9625 286.758 97.5514 286.66C97.1404 286.563 96.7126 286.559 96.3 286.65C93.942 286.911 91.899 290.664 91.467 292.734C91.467 292.896 91.242 295.083 91.215 295.641C90.477 294.219 89.748 292.788 89.091 291.348C88.1862 289.407 87.4134 287.408 86.778 285.363C86.922 285.363 90.846 284.463 92.286 283.329C93.546 282.366 94.878 280.791 94.86 279.117C94.8701 278.723 94.7973 278.332 94.6462 277.968C94.4952 277.604 94.2693 277.276 93.9833 277.006C93.6972 276.735 93.3574 276.527 92.9859 276.396C92.6144 276.266 92.2196 276.214 91.827 276.246C89.469 276.507 87.426 280.26 87.003 282.33C87.003 282.465 86.814 284.13 86.76 284.931H86.634C86.0423 282.871 85.6357 280.763 85.419 278.631C85.293 277.452 85.23 276.318 85.194 275.22C85.941 275.13 89.352 274.671 90.765 273.816C92.178 272.961 93.618 271.584 93.789 269.919C93.8421 269.528 93.8126 269.131 93.7024 268.752C93.5922 268.374 93.4038 268.022 93.1493 267.721C92.8948 267.42 92.5799 267.176 92.225 267.004C91.8701 266.832 91.4831 266.737 91.089 266.724C88.713 266.724 86.274 270.234 85.617 272.241C85.617 272.358 85.347 273.51 85.185 274.347C85.185 273.852 85.185 273.339 85.185 272.862C85.185 271.062 85.302 269.424 85.419 267.975C85.491 267.147 85.563 266.4 85.653 265.707C86.337 265.23 89.082 263.295 89.919 261.909C90.756 260.523 91.422 258.615 90.819 257.058C90.6885 256.686 90.4808 256.346 90.2096 256.059C89.9384 255.773 89.6098 255.547 89.2452 255.397C88.8807 255.246 88.4885 255.175 88.0943 255.187C87.7002 255.198 87.3129 255.293 86.958 255.465C84.852 256.554 84.258 260.793 84.645 262.89C84.645 263.07 85.473 265.833 85.545 265.815C85.446 266.49 85.356 267.21 85.275 267.993C85.131 269.442 84.978 271.089 84.933 272.889C84.8671 274.828 84.9152 276.77 85.077 278.703C85.2413 280.87 85.5997 283.017 86.148 285.12V285.201C85.779 284.607 84.681 283.005 84.582 282.897C83.196 281.295 79.578 279.009 77.382 279.936C77.0241 280.1 76.7047 280.338 76.4447 280.634C76.1847 280.93 75.9898 281.277 75.8726 281.653C75.7555 282.029 75.7188 282.425 75.7648 282.816C75.8109 283.207 75.9387 283.585 76.14 283.923C76.986 285.3 78.912 286.065 80.478 286.29ZM103.995 317.376C105.21 318.69 108.315 320.229 108.72 320.427C108.297 321.462 107.874 322.47 107.46 323.415C106.038 326.7 104.76 329.373 103.788 331.236C103.59 331.605 103.419 331.938 103.266 332.244H103.104C103.104 331.884 103.005 331.488 102.951 331.038C102.663 328.95 102.204 325.971 101.502 322.434C101.286 321.309 101.025 320.121 100.755 318.897C101.863 318.451 102.945 317.944 103.995 317.376Z" fill="white"/>
<path opacity="0.3" d="M121.149 275.148C121.149 275.148 121.905 272.385 121.932 272.205C122.22 270.108 121.554 265.905 119.412 264.852C119.053 264.69 118.664 264.605 118.27 264.604C117.875 264.603 117.486 264.684 117.125 264.844C116.765 265.004 116.443 265.238 116.179 265.531C115.916 265.824 115.717 266.169 115.596 266.544C115.029 268.11 115.749 270.045 116.613 271.368C117.621 272.934 121.14 275.148 121.149 275.148Z" fill="white"/>
<path opacity="0.3" d="M79.038 274.239C80.739 274.977 84.906 274.887 84.906 274.887C84.906 274.887 84.006 272.187 83.934 271.998C83.034 270.081 80.136 266.931 77.787 267.246C77.3981 267.31 77.0271 267.455 76.6978 267.672C76.3686 267.889 76.0885 268.172 75.8756 268.504C75.6626 268.835 75.5217 269.208 75.4618 269.597C75.402 269.987 75.4245 270.385 75.528 270.765C75.924 272.394 77.589 273.6 79.038 274.239Z" fill="white"/>
<path d="M362.808 80.298H106.875V249.48H362.808V80.298Z" fill="white"/>
<mask id="mask0_18_1693" style="mask-type:luminance" maskUnits="userSpaceOnUse" x="106" y="80" width="257" height="170">
<path d="M362.808 80.298H106.875V249.48H362.808V80.298Z" fill="white"/>
</mask>
<g mask="url(#mask0_18_1693)">
<path d="M362.808 80.298H106.875V249.48H362.808V80.298Z" fill="#263238"/>
<path opacity="0.8" d="M362.808 80.298H106.875V249.48H362.808V80.298Z" fill="white"/>
</g>
<path d="M362.808 80.298H106.875V249.48H362.808V80.298Z" stroke="#263238" stroke-linecap="round" stroke-linejoin="round"/>
<path d="M356.265 99.162H177.732V244.305H356.265V99.162Z" fill="white"/>
<path d="M228.294 112.644H202.41V165.204H228.294V112.644Z" fill="#282828"/>
<path d="M356.508 112.95H330.624V139.077H356.508V112.95Z" fill="#282828"/>
<path d="M279.468 112.95H253.584V139.077H279.468V112.95Z" fill="#282828"/>
<path d="M228.213 191.79H177.498V217.917H228.213V191.79Z" fill="#282828"/>
<path d="M362.808 80.298H106.875V96.741H362.808V80.298Z" fill="#263238" stroke="#263238" stroke-linecap="round" stroke-linejoin="round"/>
<path d="M356.265 99.162H177.732V244.305H356.265V99.162Z" stroke="#263238" stroke-linecap="round" stroke-linejoin="round"/>
<path d="M202.824 113.67V243.819" stroke="#263238" stroke-linecap="round" stroke-linejoin="round"/>
<path d="M228.393 113.67V243.819" stroke="#263238" stroke-linecap="round" stroke-linejoin="round"/>
<path d="M253.971 113.67V243.819" stroke="#263238" stroke-linecap="round" stroke-linejoin="round"/>
<path d="M279.54 113.67V243.819" stroke="#263238" stroke-linecap="round" stroke-linejoin="round"/>
<path d="M305.118 113.67V243.819" stroke="#263238" stroke-linecap="round" stroke-linejoin="round"/>
<path d="M330.687 113.67V243.819" stroke="#263238" stroke-linecap="round" stroke-linejoin="round"/>
<path d="M177.732 113.193H356.265" stroke="#263238" stroke-linecap="round" stroke-linejoin="round"/>
<path d="M177.732 139.32H356.265" stroke="#263238" stroke-linecap="round" stroke-linejoin="round"/>
<path d="M177.732 165.447H356.265" stroke="#263238" stroke-linecap="round" stroke-linejoin="round"/>
<path d="M177.732 191.574H356.265" stroke="#263238" stroke-linecap="round" stroke-linejoin="round"/>
<path d="M177.732 217.692H356.265" stroke="#263238" stroke-linecap="round" stroke-linejoin="round"/>
<path opacity="0.28" d="M118.206 109.341C119.001 109.341 119.646 108.696 119.646 107.901C119.646 107.106 119.001 106.461 118.206 106.461C117.411 106.461 116.766 107.106 116.766 107.901C116.766 108.696 117.411 109.341 118.206 109.341Z" fill="black"/>
<path opacity="0.28" d="M126.117 109.341C126.912 109.341 127.557 108.696 127.557 107.901C127.557 107.106 126.912 106.461 126.117 106.461C125.322 106.461 124.677 107.106 124.677 107.901C124.677 108.696 125.322 109.341 126.117 109.341Z" fill="black"/>
<path opacity="0.28" d="M134.019 109.341C134.814 109.341 135.459 108.696 135.459 107.901C135.459 107.106 134.814 106.461 134.019 106.461C133.224 106.461 132.579 107.106 132.579 107.901C132.579 108.696 133.224 109.341 134.019 109.341Z" fill="black"/>
<path opacity="0.28" d="M143.37 107.901C143.372 108.186 143.289 108.465 143.132 108.703C142.975 108.941 142.75 109.127 142.487 109.238C142.224 109.348 141.935 109.378 141.655 109.323C141.375 109.269 141.117 109.132 140.915 108.931C140.713 108.73 140.575 108.474 140.518 108.194C140.462 107.915 140.49 107.625 140.599 107.361C140.707 107.097 140.892 106.872 141.129 106.713C141.366 106.555 141.645 106.47 141.93 106.47C142.31 106.47 142.675 106.62 142.945 106.889C143.215 107.157 143.368 107.521 143.37 107.901Z" fill="black"/>
<path opacity="0.28" d="M149.832 109.341C150.627 109.341 151.272 108.696 151.272 107.901C151.272 107.106 150.627 106.461 149.832 106.461C149.037 106.461 148.392 107.106 148.392 107.901C148.392 108.696 149.037 109.341 149.832 109.341Z" fill="black"/>
<path opacity="0.28" d="M157.743 109.341C158.538 109.341 159.183 108.696 159.183 107.901C159.183 107.106 158.538 106.461 157.743 106.461C156.948 106.461 156.303 107.106 156.303 107.901C156.303 108.696 156.948 109.341 157.743 109.341Z" fill="black"/>
<path opacity="0.28" d="M165.654 109.341C166.449 109.341 167.094 108.696 167.094 107.901C167.094 107.106 166.449 106.461 165.654 106.461C164.859 106.461 164.214 107.106 164.214 107.901C164.214 108.696 164.859 109.341 165.654 109.341Z" fill="black"/>
<path opacity="0.28" d="M118.206 116.577C119.001 116.577 119.646 115.932 119.646 115.137C119.646 114.342 119.001 113.697 118.206 113.697C117.411 113.697 116.766 114.342 116.766 115.137C116.766 115.932 117.411 116.577 118.206 116.577Z" fill="black"/>
<path opacity="0.28" d="M126.117 116.577C126.912 116.577 127.557 115.932 127.557 115.137C127.557 114.342 126.912 113.697 126.117 113.697C125.322 113.697 124.677 114.342 124.677 115.137C124.677 115.932 125.322 116.577 126.117 116.577Z" fill="black"/>
<path opacity="0.28" d="M134.019 116.577C134.814 116.577 135.459 115.932 135.459 115.137C135.459 114.342 134.814 113.697 134.019 113.697C133.224 113.697 132.579 114.342 132.579 115.137C132.579 115.932 133.224 116.577 134.019 116.577Z" fill="black"/>
<path opacity="0.28" d="M143.37 115.137C143.372 115.422 143.289 115.701 143.132 115.939C142.975 116.177 142.75 116.363 142.487 116.474C142.224 116.584 141.935 116.614 141.655 116.559C141.375 116.505 141.117 116.368 140.915 116.167C140.713 115.966 140.575 115.71 140.518 115.43C140.462 115.151 140.49 114.861 140.599 114.597C140.707 114.333 140.892 114.108 141.129 113.949C141.366 113.791 141.645 113.706 141.93 113.706C142.31 113.706 142.675 113.856 142.945 114.125C143.215 114.393 143.368 114.757 143.37 115.137Z" fill="black"/>
<path opacity="0.28" d="M149.832 116.577C150.627 116.577 151.272 115.932 151.272 115.137C151.272 114.342 150.627 113.697 149.832 113.697C149.037 113.697 148.392 114.342 148.392 115.137C148.392 115.932 149.037 116.577 149.832 116.577Z" fill="black"/>
<path opacity="0.28" d="M157.743 116.577C158.538 116.577 159.183 115.932 159.183 115.137C159.183 114.342 158.538 113.697 157.743 113.697C156.948 113.697 156.303 114.342 156.303 115.137C156.303 115.932 156.948 116.577 157.743 116.577Z" fill="black"/>
<path opacity="0.28" d="M165.654 116.577C166.449 116.577 167.094 115.932 167.094 115.137C167.094 114.342 166.449 113.697 165.654 113.697C164.859 113.697 164.214 114.342 164.214 115.137C164.214 115.932 164.859 116.577 165.654 116.577Z" fill="black"/>
<path opacity="0.28" d="M118.206 123.813C119.001 123.813 119.646 123.168 119.646 122.373C119.646 121.578 119.001 120.933 118.206 120.933C117.411 120.933 116.766 121.578 116.766 122.373C116.766 123.168 117.411 123.813 118.206 123.813Z" fill="black"/>
<path opacity="0.28" d="M126.117 123.813C126.912 123.813 127.557 123.168 127.557 122.373C127.557 121.578 126.912 120.933 126.117 120.933C125.322 120.933 124.677 121.578 124.677 122.373C124.677 123.168 125.322 123.813 126.117 123.813Z" fill="black"/>
<path opacity="0.28" d="M134.019 123.813C134.814 123.813 135.459 123.168 135.459 122.373C135.459 121.578 134.814 120.933 134.019 120.933C133.224 120.933 132.579 121.578 132.579 122.373C132.579 123.168 133.224 123.813 134.019 123.813Z" fill="black"/>
<path opacity="0.28" d="M143.37 122.4C143.37 122.685 143.286 122.963 143.127 123.2C142.969 123.437 142.744 123.621 142.481 123.73C142.218 123.839 141.928 123.868 141.649 123.812C141.37 123.757 141.113 123.62 140.912 123.418C140.71 123.217 140.573 122.96 140.518 122.681C140.462 122.402 140.491 122.112 140.6 121.849C140.709 121.586 140.893 121.361 141.13 121.203C141.367 121.044 141.645 120.96 141.93 120.96C142.312 120.96 142.678 121.112 142.948 121.382C143.218 121.652 143.37 122.018 143.37 122.4Z" fill="black"/>
<path opacity="0.28" d="M149.832 123.813C150.627 123.813 151.272 123.168 151.272 122.373C151.272 121.578 150.627 120.933 149.832 120.933C149.037 120.933 148.392 121.578 148.392 122.373C148.392 123.168 149.037 123.813 149.832 123.813Z" fill="black"/>
<path opacity="0.28" d="M157.743 123.813C158.538 123.813 159.183 123.168 159.183 122.373C159.183 121.578 158.538 120.933 157.743 120.933C156.948 120.933 156.303 121.578 156.303 122.373C156.303 123.168 156.948 123.813 157.743 123.813Z" fill="black"/>
<path opacity="0.28" d="M165.654 123.813C166.449 123.813 167.094 123.168 167.094 122.373C167.094 121.578 166.449 120.933 165.654 120.933C164.859 120.933 164.214 121.578 164.214 122.373C164.214 123.168 164.859 123.813 165.654 123.813Z" fill="black"/>
<path opacity="0.28" d="M119.646 129.6C119.646 129.885 119.562 130.163 119.403 130.4C119.245 130.637 119.02 130.821 118.757 130.93C118.494 131.039 118.204 131.068 117.925 131.012C117.646 130.957 117.389 130.82 117.188 130.618C116.986 130.417 116.849 130.16 116.794 129.881C116.738 129.602 116.767 129.312 116.876 129.049C116.985 128.786 117.169 128.561 117.406 128.403C117.643 128.244 117.921 128.16 118.206 128.16C118.588 128.16 118.954 128.312 119.224 128.582C119.494 128.852 119.646 129.218 119.646 129.6Z" fill="black"/>
<path opacity="0.28" d="M127.557 129.6C127.557 129.885 127.473 130.163 127.314 130.4C127.156 130.637 126.931 130.821 126.668 130.93C126.405 131.039 126.115 131.068 125.836 131.012C125.557 130.957 125.3 130.82 125.099 130.618C124.897 130.417 124.76 130.16 124.705 129.881C124.649 129.602 124.678 129.312 124.787 129.049C124.896 128.786 125.08 128.561 125.317 128.403C125.554 128.244 125.832 128.16 126.117 128.16C126.499 128.16 126.865 128.312 127.135 128.582C127.405 128.852 127.557 129.218 127.557 129.6Z" fill="black"/>
<path opacity="0.28" d="M135.459 129.6C135.459 129.885 135.375 130.163 135.216 130.4C135.058 130.637 134.833 130.821 134.57 130.93C134.307 131.039 134.017 131.068 133.738 131.012C133.459 130.957 133.202 130.82 133.001 130.618C132.799 130.417 132.662 130.16 132.607 129.881C132.551 129.602 132.58 129.312 132.689 129.049C132.798 128.786 132.982 128.561 133.219 128.403C133.456 128.244 133.734 128.16 134.019 128.16C134.401 128.16 134.767 128.312 135.037 128.582C135.307 128.852 135.459 129.218 135.459 129.6Z" fill="black"/>
<path opacity="0.28" d="M143.37 129.6C143.37 129.885 143.286 130.163 143.127 130.4C142.969 130.637 142.744 130.821 142.481 130.93C142.218 131.039 141.928 131.068 141.649 131.012C141.37 130.957 141.113 130.82 140.912 130.618C140.71 130.417 140.573 130.16 140.518 129.881C140.462 129.602 140.491 129.312 140.6 129.049C140.709 128.786 140.893 128.561 141.13 128.403C141.367 128.244 141.645 128.16 141.93 128.16C142.312 128.16 142.678 128.312 142.948 128.582C143.218 128.852 143.37 129.218 143.37 129.6Z" fill="black"/>
<path opacity="0.28" d="M151.272 129.6C151.272 129.885 151.188 130.163 151.029 130.4C150.871 130.637 150.646 130.821 150.383 130.93C150.12 131.039 149.83 131.068 149.551 131.012C149.272 130.957 149.015 130.82 148.814 130.618C148.612 130.417 148.475 130.16 148.42 129.881C148.364 129.602 148.393 129.312 148.502 129.049C148.611 128.786 148.795 128.561 149.032 128.403C149.269 128.244 149.547 128.16 149.832 128.16C150.214 128.16 150.58 128.312 150.85 128.582C151.12 128.852 151.272 129.218 151.272 129.6Z" fill="black"/>
<path opacity="0.28" d="M159.183 129.6C159.183 129.885 159.099 130.163 158.94 130.4C158.782 130.637 158.557 130.821 158.294 130.93C158.031 131.039 157.741 131.068 157.462 131.012C157.183 130.957 156.926 130.82 156.725 130.618C156.523 130.417 156.386 130.16 156.331 129.881C156.275 129.602 156.304 129.312 156.413 129.049C156.522 128.786 156.706 128.561 156.943 128.403C157.18 128.244 157.458 128.16 157.743 128.16C158.125 128.16 158.491 128.312 158.761 128.582C159.031 128.852 159.183 129.218 159.183 129.6Z" fill="black"/>
<path opacity="0.28" d="M167.085 129.6C167.085 129.885 167 130.164 166.842 130.401C166.683 130.638 166.458 130.822 166.194 130.931C165.93 131.04 165.64 131.068 165.361 131.012C165.081 130.955 164.825 130.817 164.624 130.615C164.423 130.413 164.286 130.155 164.232 129.875C164.177 129.595 164.207 129.306 164.317 129.043C164.428 128.78 164.614 128.555 164.852 128.398C165.09 128.241 165.369 128.158 165.654 128.16C166.034 128.162 166.398 128.315 166.666 128.585C166.935 128.855 167.085 129.22 167.085 129.6Z" fill="black"/>
<path opacity="0.28" d="M119.646 136.845C119.646 137.13 119.562 137.408 119.403 137.645C119.245 137.882 119.02 138.066 118.757 138.175C118.494 138.284 118.204 138.313 117.925 138.257C117.646 138.202 117.389 138.065 117.188 137.863C116.986 137.662 116.849 137.405 116.794 137.126C116.738 136.847 116.767 136.557 116.876 136.294C116.985 136.031 117.169 135.806 117.406 135.648C117.643 135.489 117.921 135.405 118.206 135.405C118.588 135.405 118.954 135.557 119.224 135.827C119.494 136.097 119.646 136.463 119.646 136.845Z" fill="black"/>
<path opacity="0.28" d="M127.557 136.845C127.557 137.13 127.473 137.408 127.314 137.645C127.156 137.882 126.931 138.066 126.668 138.175C126.405 138.284 126.115 138.313 125.836 138.257C125.557 138.202 125.3 138.065 125.099 137.863C124.897 137.662 124.76 137.405 124.705 137.126C124.649 136.847 124.678 136.557 124.787 136.294C124.896 136.031 125.08 135.806 125.317 135.648C125.554 135.489 125.832 135.405 126.117 135.405C126.499 135.405 126.865 135.557 127.135 135.827C127.405 136.097 127.557 136.463 127.557 136.845Z" fill="black"/>
<path opacity="0.28" d="M135.459 136.845C135.459 137.13 135.375 137.408 135.216 137.645C135.058 137.882 134.833 138.066 134.57 138.175C134.307 138.284 134.017 138.313 133.738 138.257C133.459 138.202 133.202 138.065 133.001 137.863C132.799 137.662 132.662 137.405 132.607 137.126C132.551 136.847 132.58 136.557 132.689 136.294C132.798 136.031 132.982 135.806 133.219 135.648C133.456 135.489 133.734 135.405 134.019 135.405C134.208 135.404 134.396 135.44 134.571 135.512C134.747 135.584 134.906 135.69 135.04 135.824C135.174 135.958 135.28 136.117 135.352 136.292C135.424 136.468 135.46 136.656 135.459 136.845Z" fill="black"/>
<path opacity="0.28" d="M143.37 136.845C143.37 137.13 143.286 137.408 143.127 137.645C142.969 137.882 142.744 138.066 142.481 138.175C142.218 138.284 141.928 138.313 141.649 138.257C141.37 138.202 141.113 138.065 140.912 137.863C140.71 137.662 140.573 137.405 140.518 137.126C140.462 136.847 140.491 136.557 140.6 136.294C140.709 136.031 140.893 135.806 141.13 135.648C141.367 135.489 141.645 135.405 141.93 135.405C142.312 135.405 142.678 135.557 142.948 135.827C143.218 136.097 143.37 136.463 143.37 136.845Z" fill="black"/>
<path opacity="0.28" d="M151.272 136.845C151.272 137.13 151.188 137.408 151.029 137.645C150.871 137.882 150.646 138.066 150.383 138.175C150.12 138.284 149.83 138.313 149.551 138.257C149.272 138.202 149.015 138.065 148.814 137.863C148.612 137.662 148.475 137.405 148.42 137.126C148.364 136.847 148.393 136.557 148.502 136.294C148.611 136.031 148.795 135.806 149.032 135.648C149.269 135.489 149.547 135.405 149.832 135.405C150.021 135.404 150.209 135.44 150.384 135.512C150.56 135.584 150.719 135.69 150.853 135.824C150.987 135.958 151.093 136.117 151.165 136.292C151.237 136.468 151.273 136.656 151.272 136.845Z" fill="black"/>
<path opacity="0.28" d="M159.183 136.845C159.183 137.13 159.099 137.408 158.94 137.645C158.782 137.882 158.557 138.066 158.294 138.175C158.031 138.284 157.741 138.313 157.462 138.257C157.183 138.202 156.926 138.065 156.725 137.863C156.523 137.662 156.386 137.405 156.331 137.126C156.275 136.847 156.304 136.557 156.413 136.294C156.522 136.031 156.706 135.806 156.943 135.648C157.18 135.489 157.458 135.405 157.743 135.405C158.125 135.405 158.491 135.557 158.761 135.827C159.031 136.097 159.183 136.463 159.183 136.845Z" fill="black"/>
<path opacity="0.28" d="M167.085 136.845C167.085 137.13 167 137.409 166.842 137.646C166.683 137.883 166.458 138.067 166.194 138.176C165.93 138.285 165.64 138.313 165.361 138.257C165.081 138.2 164.825 138.062 164.624 137.86C164.423 137.658 164.286 137.4 164.232 137.12C164.177 136.84 164.207 136.551 164.317 136.288C164.428 136.025 164.614 135.8 164.852 135.643C165.09 135.486 165.369 135.403 165.654 135.405C165.843 135.405 166.029 135.442 166.204 135.515C166.378 135.587 166.536 135.693 166.669 135.827C166.802 135.961 166.907 136.12 166.979 136.295C167.05 136.469 167.086 136.656 167.085 136.845Z" fill="black"/>
<path opacity="0.28" d="M119.646 144.081C119.646 144.366 119.562 144.644 119.403 144.881C119.245 145.118 119.02 145.302 118.757 145.411C118.494 145.52 118.204 145.549 117.925 145.493C117.646 145.438 117.389 145.301 117.188 145.099C116.986 144.898 116.849 144.641 116.794 144.362C116.738 144.083 116.767 143.793 116.876 143.53C116.985 143.267 117.169 143.042 117.406 142.884C117.643 142.725 117.921 142.641 118.206 142.641C118.588 142.641 118.954 142.793 119.224 143.063C119.494 143.333 119.646 143.699 119.646 144.081Z" fill="black"/>
<path opacity="0.28" d="M127.557 144.081C127.557 144.366 127.473 144.644 127.314 144.881C127.156 145.118 126.931 145.302 126.668 145.411C126.405 145.52 126.115 145.549 125.836 145.493C125.557 145.438 125.3 145.301 125.099 145.099C124.897 144.898 124.76 144.641 124.705 144.362C124.649 144.083 124.678 143.793 124.787 143.53C124.896 143.267 125.08 143.042 125.317 142.884C125.554 142.725 125.832 142.641 126.117 142.641C126.499 142.641 126.865 142.793 127.135 143.063C127.405 143.333 127.557 143.699 127.557 144.081Z" fill="black"/>
<path opacity="0.28" d="M135.459 144.081C135.459 144.366 135.375 144.644 135.216 144.881C135.058 145.118 134.833 145.302 134.57 145.411C134.307 145.52 134.017 145.549 133.738 145.493C133.459 145.438 133.202 145.301 133.001 145.099C132.799 144.898 132.662 144.641 132.607 144.362C132.551 144.083 132.58 143.793 132.689 143.53C132.798 143.267 132.982 143.042 133.219 142.884C133.456 142.725 133.734 142.641 134.019 142.641C134.208 142.64 134.396 142.676 134.571 142.748C134.747 142.82 134.906 142.926 135.04 143.06C135.174 143.194 135.28 143.353 135.352 143.529C135.424 143.704 135.46 143.892 135.459 144.081Z" fill="black"/>
<path opacity="0.28" d="M143.37 144.081C143.37 144.366 143.286 144.644 143.127 144.881C142.969 145.118 142.744 145.302 142.481 145.411C142.218 145.52 141.928 145.549 141.649 145.493C141.37 145.438 141.113 145.301 140.912 145.099C140.71 144.898 140.573 144.641 140.518 144.362C140.462 144.083 140.491 143.793 140.6 143.53C140.709 143.267 140.893 143.042 141.13 142.884C141.367 142.725 141.645 142.641 141.93 142.641C142.312 142.641 142.678 142.793 142.948 143.063C143.218 143.333 143.37 143.699 143.37 144.081Z" fill="black"/>
<path opacity="0.28" d="M151.272 144.081C151.272 144.366 151.188 144.644 151.029 144.881C150.871 145.118 150.646 145.302 150.383 145.411C150.12 145.52 149.83 145.549 149.551 145.493C149.272 145.438 149.015 145.301 148.814 145.099C148.612 144.898 148.475 144.641 148.42 144.362C148.364 144.083 148.393 143.793 148.502 143.53C148.611 143.267 148.795 143.042 149.032 142.884C149.269 142.725 149.547 142.641 149.832 142.641C150.021 142.64 150.209 142.676 150.384 142.748C150.56 142.82 150.719 142.926 150.853 143.06C150.987 143.194 151.093 143.353 151.165 143.529C151.237 143.704 151.273 143.892 151.272 144.081Z" fill="black"/>
<path opacity="0.28" d="M159.183 144.081C159.183 144.366 159.099 144.644 158.94 144.881C158.782 145.118 158.557 145.302 158.294 145.411C158.031 145.52 157.741 145.549 157.462 145.493C157.183 145.438 156.926 145.301 156.725 145.099C156.523 144.898 156.386 144.641 156.331 144.362C156.275 144.083 156.304 143.793 156.413 143.53C156.522 143.267 156.706 143.042 156.943 142.884C157.18 142.725 157.458 142.641 157.743 142.641C158.125 142.641 158.491 142.793 158.761 143.063C159.031 143.333 159.183 143.699 159.183 144.081Z" fill="black"/>
<path opacity="0.28" d="M167.085 144.081C167.085 144.366 167 144.645 166.842 144.882C166.683 145.119 166.458 145.304 166.194 145.412C165.93 145.521 165.64 145.549 165.361 145.493C165.081 145.436 164.825 145.298 164.624 145.096C164.423 144.894 164.286 144.636 164.232 144.356C164.177 144.076 164.207 143.787 164.317 143.524C164.428 143.261 164.614 143.036 164.852 142.879C165.09 142.722 165.369 142.639 165.654 142.641C165.843 142.641 166.029 142.678 166.204 142.751C166.378 142.823 166.536 142.929 166.669 143.063C166.802 143.197 166.907 143.356 166.979 143.531C167.05 143.705 167.086 143.892 167.085 144.081Z" fill="black"/>
<path d="M116.865 160.137H138.96" stroke="#263238" stroke-linecap="round" stroke-linejoin="round"/>
<path d="M116.865 175.059H138.96" stroke="#263238" stroke-linecap="round" stroke-linejoin="round"/>
<path d="M116.865 189.981H138.96" stroke="#263238" stroke-linecap="round" stroke-linejoin="round"/>
<path d="M293.796 123.3C293.796 123.3 291.096 130.392 291.645 131.337C292.194 132.282 293.607 134.64 292.851 136.53C292.095 138.42 289.098 138.744 289.476 140.256C289.854 141.768 291.933 142.902 291.933 142.902C291.933 142.902 294.174 152.973 295.119 154.296C296.064 155.619 301.167 154.863 301.167 154.863L301.545 159.966L316.674 159.021L316.107 149.949L315.351 121.977L293.796 123.3Z" fill="white" stroke="#263238" stroke-linecap="round" stroke-linejoin="round"/>
<path d="M321.777 120.06C320.9 118.827 319.766 117.799 318.453 117.047C317.14 116.295 315.679 115.837 314.172 115.704C314.172 115.704 310.311 112.401 306.459 112.401C302.607 112.401 300.96 114.327 298.485 114.327C296.01 114.327 294.354 111.303 290.223 115.704C286.092 120.105 291.33 124.785 291.33 124.785C291.848 125.332 292.488 125.748 293.199 125.999C293.91 126.249 294.67 126.327 295.416 126.225C295.245 127.062 294.894 128.925 294.75 130.302C294.561 132.192 297.963 134.271 297.963 134.271C297.855 135.534 297.918 136.805 298.152 138.051C298.53 138.996 299.475 139.185 300.042 138.429C300.609 137.673 300.987 134.082 301.554 135.594C302.121 137.106 304.389 148.446 305.901 149.769C307.413 151.092 314.226 150.336 316.116 149.958C318.006 149.58 321.597 141.642 323.316 136.917C325.035 132.192 324.234 123.84 321.777 120.06Z" fill="#263238" stroke="#263238" stroke-linecap="round" stroke-linejoin="round"/>
<path d="M299.925 135.468C300.175 137.225 300.328 138.995 300.384 140.769C300.384 142.848 298.998 144 299.925 144.927C300.852 145.854 301.536 145.386 302.229 143.766C302.973 141.86 303.281 139.812 303.129 137.772C302.922 136.161 302.688 132.696 299.925 135.468Z" fill="white" stroke="#263238" stroke-linecap="round" stroke-linejoin="round"/>
<path d="M284.535 241.659C284.535 241.659 279.81 273.159 276.165 304.191C272.52 335.223 272.97 378.531 272.97 378.531L282.582 378.477C282.582 378.477 293.49 317.871 295.776 311.031C298.062 304.191 305.811 275.454 305.811 275.454C305.811 275.454 309.915 308.295 311.283 310.554C312.651 312.813 331.2 378.9 331.2 378.9L341.244 378.774L331.344 307.422L325.863 241.722L284.535 241.659Z" fill="#263238" stroke="#263238" stroke-linecap="round" stroke-linejoin="round"/>
<path d="M323.478 264.708L310.059 269.793L305.811 275.454" stroke="white" stroke-width="0.75" stroke-linecap="round" stroke-linejoin="round"/>
<path d="M291.195 249.84H303.165" stroke="white" stroke-width="0.75" stroke-linecap="round" stroke-linejoin="round"/>
<path d="M324.927 249.84H320.211" stroke="white" stroke-width="0.75" stroke-linecap="round" stroke-linejoin="round"/>
<path d="M272.457 378.9L270.792 381.204C270.792 381.204 256.95 386.847 256.95 387.36C256.95 387.873 256.824 388.26 257.976 388.26H275.787L277.713 387.621V388.26H282.834L282.96 378.783L272.457 378.9Z" fill="#263238"/>
<path d="M331.272 378.9L329.607 381.204C329.607 381.204 315.774 386.847 315.774 387.36C315.774 387.873 315.639 388.26 316.791 388.26H334.611L336.528 387.621V388.26H341.658L341.784 378.783L331.272 378.9Z" fill="#263238"/>
<path d="M297.954 159.372L293.796 166.932C293.796 166.932 304.191 163.908 309.861 163.908C313.856 163.979 317.84 164.358 321.777 165.042L318.78 158.913C318.78 158.913 304.758 156.159 297.954 159.372Z" fill="#282828" stroke="#263238" stroke-linecap="round" stroke-linejoin="round"/>
<path d="M336.825 170.559L349.614 222.57C349.798 223.319 349.822 224.098 349.685 224.856C349.548 225.615 349.253 226.336 348.82 226.974C348.386 227.611 347.823 228.15 347.168 228.556C346.512 228.962 345.779 229.225 345.015 229.329L317.457 233.1L318.114 224.199L331.956 217.611L328.986 202.779C328.986 202.779 332.1 170.937 336.825 170.559Z" fill="#282828" stroke="#263238" stroke-linecap="round" stroke-linejoin="round"/>
<path d="M295.065 164.808C291.385 165.55 287.806 166.722 284.4 168.3C282.555 169.218 280.662 170.039 278.73 170.757C278.73 170.757 283.617 234.126 283.617 237.357C283.617 240.588 283.428 240.759 284.517 241.704C285.606 242.649 291.519 243.081 301.914 242.892C312.309 242.703 321.57 242.838 322.515 242.838C323.279 242.783 324.019 242.549 324.676 242.155C325.332 241.761 325.887 241.218 326.295 240.57C327.429 238.869 336.618 171.36 336.807 170.604C336.996 169.848 322.524 165.474 321.192 165.087C313.785 162.9 303.849 162.972 295.065 164.808Z" fill="#282828" stroke="#263238" stroke-linecap="round" stroke-linejoin="round"/>
<path d="M318.222 214.2C317.028 215.28 315.755 216.269 314.415 217.161" stroke="#263238" stroke-linecap="round" stroke-linejoin="round"/>
<path d="M332.1 189.504C332.1 189.504 329.472 201.114 321.804 210.375" stroke="#263238" stroke-linecap="round" stroke-linejoin="round"/>
<path d="M333.288 217.8C333.288 217.8 336.06 221.688 342.837 222.138" stroke="#263238" stroke-linecap="round" stroke-linejoin="round"/>
<path d="M331.956 217.629C332.411 219.043 333.148 220.349 334.122 221.469C335.097 222.589 336.289 223.5 337.626 224.145" stroke="#263238" stroke-linecap="round" stroke-linejoin="round"/>
<path d="M278.703 170.73L252 179.1L225.495 146.07L220.347 150.363L244.098 196.056C244.828 197.466 246.005 198.595 247.444 199.268C248.883 199.94 250.504 200.118 252.054 199.773L280.386 193.5C280.386 193.5 283.878 183.96 278.703 170.73Z" fill="#282828" stroke="#263238" stroke-linecap="round" stroke-linejoin="round"/>
<path d="M251.154 180.18C251.154 180.18 248.553 183.654 248.841 187.38" stroke="#263238" stroke-linecap="round" stroke-linejoin="round"/>
<path d="M246.816 183.078C246.816 183.078 245.655 188.28 247.716 191.466" stroke="#263238" stroke-linecap="round" stroke-linejoin="round"/>
<path d="M280.386 193.5C280.386 193.5 287.019 201.267 292.221 203.868" stroke="#263238" stroke-linecap="round" stroke-linejoin="round"/>
<path d="M282.096 197.532C282.096 197.532 285.858 206.217 293.382 210.258" stroke="#263238" stroke-linecap="round" stroke-linejoin="round"/>
<path d="M222.633 154.935L228.357 151.218" stroke="#263238" stroke-linecap="round" stroke-linejoin="round"/>
<path d="M225.495 146.07C225.495 146.07 227.295 143.838 227.295 141.777C227.295 139.716 225.855 137.277 226.476 135.594C227.097 133.911 229.77 131.886 227.502 131.265C225.234 130.644 223.38 131.886 223.173 133.533C222.966 135.18 223.173 135.387 223.173 135.387C223.173 135.387 220.698 130.437 219.051 128.79C217.404 127.143 216.171 125.289 215.136 125.289C214.101 125.289 213.075 125.901 213.696 126.936C214.317 127.971 217.404 132.912 217.404 132.912L218.025 134.973C218.025 134.973 214.515 135.18 214.101 135.801C213.687 136.422 213.903 138.276 212.868 139.509C211.833 140.742 212.04 141.984 212.454 143.226C212.868 144.468 214.101 146.52 214.929 146.52C215.438 146.515 215.935 146.372 216.369 146.106L220.302 150.363L225.495 146.07Z" fill="white" stroke="#263238" stroke-linecap="round" stroke-linejoin="round"/>
<path d="M216.414 146.106L214.353 143.019" stroke="#263238" stroke-linecap="round" stroke-linejoin="round"/>
</svg>
