<svg width="450" height="450" viewBox="0 0 450 450" fill="none" xmlns="http://www.w3.org/2000/svg">
<path d="M407.052 106.884C405.558 104.4 404.004 101.964 402.39 99.576C380.79 67.842 344.79 46.116 309.888 36.279C294.66 32.0299 278.979 29.6128 263.178 29.079C160.263 25.389 122.463 110.241 89.307 132.111C56.151 153.981 5.26501 191.358 11.7 269.856C16.542 329.544 50.499 386.613 112.5 412.578C119.504 415.518 126.692 417.998 134.019 420.003C148.859 424.03 164.105 426.376 179.469 426.996C226.35 429.084 264.42 417.78 301.653 389.322C310.311 382.707 318.924 375.246 330.156 374.427C338.319 373.833 346.059 376.767 337.527 384.66C327.492 393.93 339.066 412.173 364.527 399.501C407.052 378.333 424.548 332.667 432.792 286.236C442.872 229.239 437.967 158.4 407.052 106.884Z" fill="#FAFAFA"/>
<path opacity="0.7" d="M407.052 106.884C405.558 104.4 404.004 101.964 402.39 99.576C380.79 67.842 344.79 46.116 309.888 36.279C294.66 32.0299 278.979 29.6128 263.178 29.079C160.263 25.389 122.463 110.241 89.307 132.111C56.151 153.981 5.26501 191.358 11.7 269.856C16.542 329.544 50.499 386.613 112.5 412.578C119.504 415.518 126.692 417.998 134.019 420.003C148.859 424.03 164.105 426.376 179.469 426.996C226.35 429.084 264.42 417.78 301.653 389.322C310.311 382.707 318.924 375.246 330.156 374.427C338.319 373.833 346.059 376.767 337.527 384.66C327.492 393.93 339.066 412.173 364.527 399.501C407.052 378.333 424.548 332.667 432.792 286.236C442.872 229.239 437.967 158.4 407.052 106.884Z" fill="#FAFAFA"/>
<path d="M418.617 133.659H258.813C258.732 133.658 258.653 133.636 258.584 133.595C258.514 133.554 258.457 133.495 258.417 133.425C258.378 133.357 258.357 133.279 258.357 133.2C258.357 133.121 258.378 133.043 258.417 132.975C258.615 132.651 263.295 124.929 268.911 123.327C271.773 122.508 274.869 124.371 277.857 126.162C280.845 127.953 283.5 129.6 285.3 128.133C286.2 127.404 287.19 126.432 288.225 125.433C291.726 121.968 296.082 117.657 302.859 117.045C307.278 116.631 310.266 118.584 312.894 120.303C315.522 122.022 317.394 123.273 319.995 121.824C321.309 121.068 322.587 118.962 324.207 116.298C328.815 108.693 336.528 95.976 357.273 98.937C382.77 102.537 389.007 119.844 389.826 122.544C391.282 122.385 392.702 121.986 394.029 121.365C396.9 120.213 400.149 118.908 405.405 121.005C413.316 124.173 418.77 132.633 418.995 132.993C419.037 133.062 419.059 133.142 419.059 133.222C419.059 133.303 419.037 133.383 418.995 133.452C418.954 133.515 418.898 133.567 418.832 133.603C418.766 133.639 418.692 133.658 418.617 133.659ZM259.632 132.759H417.762C416.277 130.662 411.462 124.362 405.063 121.815C400.149 119.853 397.206 121.032 394.362 122.175C392.836 122.906 391.182 123.331 389.493 123.426C389.391 123.426 389.291 123.392 389.211 123.328C389.131 123.264 389.075 123.175 389.052 123.075C389.052 122.886 384.057 103.644 357.147 99.801C336.978 96.921 329.76 108.801 324.972 116.73C323.289 119.511 321.957 121.707 320.472 122.58C317.448 124.308 315.009 122.715 312.435 121.032C309.861 119.349 307.107 117.531 302.976 117.909C296.523 118.494 292.293 122.679 288.9 126.009C287.838 127.053 286.839 128.043 285.894 128.799C283.617 130.599 280.62 128.799 277.434 126.9C274.608 125.199 271.683 123.444 269.208 124.2C264.834 125.433 260.919 130.833 259.632 132.759Z" fill="white"/>
<path d="M145.062 189.9H30.519C30.4393 189.899 30.3611 189.878 30.2918 189.839C30.2225 189.8 30.1644 189.743 30.123 189.675C30.0836 189.605 30.0629 189.526 30.0629 189.445C30.0629 189.365 30.0836 189.286 30.123 189.216C30.267 188.982 33.642 183.411 37.719 182.25C39.825 181.647 42.066 182.988 44.235 184.293C46.404 185.598 48.204 186.687 49.41 185.715C50.058 185.193 50.76 184.5 51.507 183.771C54.027 181.269 57.168 178.164 62.064 177.714C65.286 177.426 67.536 178.893 69.345 180.072C71.154 181.251 72.54 182.169 74.295 181.161C75.195 180.639 76.167 179.064 77.274 177.246C80.595 171.765 86.148 162.603 101.106 164.745C119.169 167.319 123.804 179.415 124.506 181.656C125.5 181.528 126.468 181.249 127.377 180.828C129.456 179.991 131.814 179.028 135.621 180.567C141.336 182.853 145.26 188.955 145.431 189.207C145.47 189.277 145.491 189.356 145.491 189.436C145.491 189.517 145.47 189.596 145.431 189.666C145.395 189.734 145.342 189.791 145.278 189.832C145.213 189.873 145.139 189.896 145.062 189.9ZM31.347 189H144.207C143.001 187.344 139.644 183.141 135.306 181.404C131.832 180.009 129.744 180.855 127.728 181.656C126.62 182.188 125.418 182.494 124.191 182.556C124.09 182.557 123.991 182.524 123.911 182.462C123.831 182.4 123.774 182.312 123.75 182.214C123.75 182.07 120.15 168.363 100.989 165.627C86.589 163.566 81.459 172.071 78.048 177.705C76.833 179.712 75.87 181.305 74.754 181.935C72.522 183.213 70.74 182.052 68.859 180.819C66.978 179.586 65.07 178.335 62.154 178.605C57.582 179.019 54.567 182.007 52.146 184.401C51.39 185.148 50.67 185.859 49.986 186.408C48.285 187.767 46.098 186.408 43.776 185.058C41.778 183.852 39.708 182.61 37.98 183.105C35.046 183.906 32.4 187.452 31.347 189Z" fill="white"/>
<path d="M188.919 67.959H116.343C116.263 67.9611 116.183 67.9412 116.114 67.9016C116.044 67.8619 115.986 67.804 115.947 67.734C115.905 67.6666 115.882 67.5886 115.882 67.509C115.882 67.4294 115.905 67.3514 115.947 67.284C116.037 67.131 118.215 63.54 120.852 62.784C122.256 62.388 123.768 63.297 125.109 64.107C126.45 64.917 127.53 65.556 128.205 65.007C128.664 64.6222 129.103 64.2136 129.519 63.783C131.139 62.181 133.119 60.183 136.314 59.904C138.018 59.8225 139.694 60.3631 141.03 61.425C142.299 62.262 143.01 62.667 143.991 62.109C144.743 61.4236 145.355 60.5982 145.791 59.679C147.915 56.178 151.47 50.319 161.091 51.687C172.305 53.289 175.428 60.687 176.013 62.388C176.579 62.2939 177.13 62.1244 177.651 61.884C178.476 61.4665 179.382 61.2355 180.306 61.2075C181.23 61.1795 182.149 61.3552 182.997 61.722C186.669 63.189 189.189 67.122 189.297 67.257C189.341 67.3249 189.365 67.4033 189.368 67.484C189.371 67.5647 189.352 67.6446 189.313 67.7155C189.275 67.7863 189.218 67.8455 189.148 67.8867C189.079 67.928 189 67.9498 188.919 67.95V67.959ZM117.18 67.059H188.1C186.711 65.1254 184.852 63.5768 182.7 62.559C181.958 62.233 181.152 62.0782 180.342 62.1063C179.531 62.1343 178.738 62.3444 178.02 62.721C177.298 63.0656 176.515 63.2644 175.716 63.306C175.616 63.3065 175.519 63.2729 175.44 63.2108C175.362 63.1486 175.306 63.0616 175.284 62.964C175.194 62.604 173.034 54.297 160.992 52.578C151.992 51.282 148.761 56.619 146.592 60.147C146.082 61.1937 145.347 62.1155 144.441 62.847C142.938 63.747 141.741 62.901 140.535 62.136C139.37 61.1855 137.897 60.6955 136.395 60.759C133.551 61.011 131.67 62.883 130.149 64.359C129.663 64.836 129.249 65.259 128.772 65.646C127.602 66.546 126.072 65.646 124.65 64.8C123.408 64.062 122.13 63.288 121.104 63.585C119.448 64.125 117.9 66.024 117.18 67.059Z" fill="white"/>
<path d="M278.505 81.738C274.323 81.7398 270.234 80.5012 266.756 78.1789C263.278 75.8565 260.567 72.5549 258.966 68.6915C257.365 64.8281 256.945 60.5766 257.761 56.4748C258.576 52.373 260.59 48.6052 263.547 45.6481C266.504 42.6909 270.272 40.6772 274.374 39.8618C278.476 39.0463 282.727 39.4658 286.591 41.067C290.454 42.6682 293.756 45.3793 296.078 48.8573C298.4 52.3353 299.639 56.4239 299.637 60.606C299.63 66.2084 297.401 71.5792 293.44 75.5407C289.478 79.5022 284.107 81.7309 278.505 81.738ZM278.505 40.338C274.501 40.3362 270.587 41.5218 267.257 43.7448C263.927 45.9679 261.332 49.1285 259.798 52.8269C258.265 56.5253 257.863 60.5953 258.643 64.5223C259.423 68.4493 261.35 72.0567 264.18 74.8884C267.011 77.72 270.617 79.6487 274.544 80.4304C278.471 81.2122 282.541 80.8118 286.24 79.2801C289.939 77.7484 293.101 75.154 295.325 71.8252C297.55 68.4964 298.737 64.5827 298.737 60.579C298.723 55.2192 296.586 50.0832 292.794 46.295C289.003 42.5067 283.865 40.3745 278.505 40.365V40.338Z" fill="white"/>
<path d="M278.505 34.758C278.386 34.758 278.271 34.7106 278.187 34.6262C278.102 34.5418 278.055 34.4273 278.055 34.308V25.893C278.055 25.7736 278.102 25.6592 278.187 25.5748C278.271 25.4904 278.386 25.443 278.505 25.443C278.624 25.443 278.739 25.4904 278.823 25.5748C278.908 25.6592 278.955 25.7736 278.955 25.893V34.308C278.955 34.4273 278.908 34.5418 278.823 34.6262C278.739 34.7106 278.624 34.758 278.505 34.758Z" fill="white"/>
<path d="M278.505 97.2C278.386 97.2 278.271 97.1526 278.187 97.0682C278.102 96.9838 278.055 96.8693 278.055 96.75V88.308C278.055 88.1886 278.102 88.0742 278.187 87.9898C278.271 87.9054 278.386 87.858 278.505 87.858C278.624 87.858 278.739 87.9054 278.823 87.9898C278.908 88.0742 278.955 88.1886 278.955 88.308V96.714C278.96 96.776 278.952 96.8384 278.932 96.8973C278.911 96.9561 278.879 97.01 278.837 97.0557C278.794 97.1014 278.743 97.1378 278.686 97.1626C278.629 97.1874 278.567 97.2002 278.505 97.2Z" fill="white"/>
<path d="M297.594 42.669C297.472 42.6687 297.356 42.6202 297.27 42.534C297.187 42.4484 297.141 42.3338 297.141 42.2145C297.141 42.0952 297.187 41.9807 297.27 41.895L303.228 35.946C303.312 35.8636 303.425 35.8174 303.543 35.8174C303.661 35.8174 303.774 35.8636 303.858 35.946C303.9 35.9879 303.934 36.0376 303.957 36.0925C303.979 36.1473 303.991 36.2061 303.991 36.2655C303.991 36.3249 303.979 36.3837 303.957 36.4386C303.934 36.4934 303.9 36.5432 303.858 36.585L297.9 42.534C297.82 42.6175 297.71 42.6659 297.594 42.669Z" fill="white"/>
<path d="M253.458 86.796C253.339 86.7943 253.226 86.7458 253.143 86.661C253.1 86.6206 253.066 86.5718 253.042 86.5176C253.019 86.4635 253.007 86.4051 253.007 86.346C253.007 86.287 253.019 86.2286 253.042 86.1744C253.066 86.1202 253.1 86.0714 253.143 86.031L259.092 80.1C259.134 80.0578 259.184 80.0244 259.238 80.0015C259.293 79.9787 259.352 79.9669 259.412 79.9669C259.471 79.9669 259.53 79.9787 259.585 80.0015C259.639 80.0244 259.689 80.0578 259.731 80.1C259.813 80.1841 259.86 80.2972 259.86 80.415C259.86 80.5328 259.813 80.6459 259.731 80.73L253.8 86.661C253.755 86.7059 253.702 86.741 253.643 86.7643C253.584 86.7875 253.521 86.7983 253.458 86.796Z" fill="white"/>
<path d="M313.911 61.758H305.496C305.377 61.7557 305.264 61.7075 305.18 61.6236C305.096 61.5397 305.048 61.4266 305.046 61.308C305.046 61.1886 305.093 61.0742 305.178 60.9898C305.262 60.9054 305.377 60.858 305.496 60.858H313.911C314.03 60.858 314.145 60.9054 314.229 60.9898C314.314 61.0742 314.361 61.1886 314.361 61.308C314.361 61.4273 314.314 61.5418 314.229 61.6262C314.145 61.7106 314.03 61.758 313.911 61.758Z" fill="white"/>
<path d="M251.505 61.758H243.09C242.971 61.758 242.856 61.7106 242.772 61.6262C242.687 61.5418 242.64 61.4273 242.64 61.308C242.64 61.1886 242.687 61.0742 242.772 60.9898C242.856 60.9054 242.971 60.858 243.09 60.858H251.505C251.624 60.858 251.739 60.9054 251.823 60.9898C251.908 61.0742 251.955 61.1886 251.955 61.308C251.955 61.3671 251.943 61.4256 251.921 61.4802C251.898 61.5348 251.865 61.5844 251.823 61.6262C251.781 61.668 251.732 61.7011 251.677 61.7237C251.623 61.7463 251.564 61.758 251.505 61.758Z" fill="white"/>
<path d="M303.543 86.796C303.484 86.7967 303.425 86.785 303.371 86.7618C303.317 86.7385 303.268 86.7042 303.228 86.661L297.27 80.712C297.188 80.6278 297.141 80.5148 297.141 80.397C297.141 80.2792 297.188 80.1661 297.27 80.082C297.312 80.0398 297.362 80.0063 297.416 79.9835C297.471 79.9606 297.53 79.9489 297.59 79.9489C297.649 79.9489 297.708 79.9606 297.763 79.9835C297.817 80.0063 297.867 80.0398 297.909 80.082L303.858 86.031C303.92 86.0939 303.962 86.1735 303.978 86.2599C303.995 86.3464 303.986 86.4359 303.953 86.5173C303.919 86.5988 303.863 86.6686 303.79 86.7181C303.717 86.7677 303.631 86.7947 303.543 86.796Z" fill="white"/>
<path d="M259.407 42.669C259.288 42.6673 259.175 42.6188 259.092 42.534L253.143 36.585C253.101 36.5432 253.067 36.4934 253.045 36.4385C253.022 36.3837 253.01 36.3249 253.01 36.2655C253.01 36.2061 253.022 36.1473 253.045 36.0924C253.067 36.0376 253.101 35.9878 253.143 35.946C253.229 35.863 253.343 35.8165 253.463 35.8165C253.582 35.8165 253.696 35.863 253.782 35.946L259.731 41.895C259.814 41.9806 259.86 42.0952 259.86 42.2145C259.86 42.3338 259.814 42.4483 259.731 42.534C259.645 42.6201 259.529 42.6687 259.407 42.669Z" fill="white"/>
<path d="M328.383 175.698C328.383 175.698 332.532 174.663 333.783 175.077C335.034 175.491 332.955 176.967 332.955 176.967C333.7 177.47 334.276 178.185 334.611 179.019C335.232 180.477 332.541 179.847 332.541 179.847C332.764 180.108 332.887 180.44 332.887 180.783C332.887 181.126 332.764 181.458 332.541 181.719C331.713 182.556 327.978 178.398 327.978 178.398C327.978 178.398 325.278 180.063 322.776 179.856C320.274 179.649 318.834 179.019 317.169 176.526C316.316 175.195 315.343 173.945 314.262 172.791L312.597 172.17L315.09 170.712C315.09 170.712 317.169 168.84 319.248 169.047C320.272 169.078 321.271 169.366 322.155 169.884C322.155 169.884 323.406 166.554 325.269 165.312C327.132 164.07 332.955 162.405 334.827 161.361C336.699 160.317 336.285 161.991 335.664 163.026C335.043 164.061 333.171 164.898 332.334 165.312C331.497 165.726 336.699 165.933 335.871 166.977C335.043 168.021 331.92 168.426 331.92 168.426C331.92 168.426 334.827 169.47 334.206 170.298C333.585 171.126 331.092 171.126 331.092 171.126C331.092 171.126 331.92 173.205 330.678 173.205H329.4C329.4 173.205 330.039 176.112 328.383 175.698Z" fill="#282828"/>
<path d="M332.244 182.286C331.056 182.286 328.761 179.901 327.906 178.965C326.342 179.866 324.563 180.326 322.758 180.297C320.238 180.09 318.618 179.487 316.818 176.778C315.987 175.504 315.054 174.3 314.028 173.178L312.462 172.584C312.382 172.557 312.311 172.507 312.26 172.439C312.209 172.372 312.179 172.291 312.174 172.206C312.166 172.121 312.182 172.036 312.221 171.959C312.259 171.883 312.317 171.819 312.39 171.774L314.847 170.343C315.153 170.082 317.196 168.399 319.347 168.606C320.255 168.674 321.146 168.889 321.984 169.245C322.416 168.246 323.532 165.969 325.08 164.934C326.846 163.988 328.696 163.208 330.606 162.603C331.99 162.14 333.345 161.596 334.665 160.974C334.971 160.803 335.907 160.281 336.465 160.83C337.023 161.379 336.303 162.972 336.123 163.26C335.41 164.159 334.481 164.861 333.423 165.303L333.657 165.348C335.178 165.654 336.186 165.897 336.411 166.518C336.454 166.643 336.464 166.777 336.439 166.906C336.413 167.036 336.354 167.157 336.267 167.256C335.479 167.963 334.504 168.429 333.459 168.597C334.017 168.837 334.475 169.263 334.755 169.803C334.79 169.933 334.795 170.07 334.77 170.202C334.745 170.334 334.691 170.459 334.611 170.568C334.062 171.297 332.613 171.468 331.74 171.558C331.925 172.099 331.89 172.691 331.641 173.205C331.542 173.35 331.407 173.468 331.249 173.547C331.092 173.626 330.917 173.663 330.741 173.655H330.021C330.075 174.067 330.075 174.485 330.021 174.897C331.322 174.559 332.675 174.473 334.008 174.645C334.183 174.684 334.342 174.774 334.466 174.904C334.589 175.034 334.671 175.197 334.701 175.374C334.791 175.941 334.251 176.544 333.801 176.958C334.382 177.481 334.84 178.127 335.142 178.848C335.247 179.026 335.295 179.231 335.281 179.437C335.266 179.642 335.19 179.839 335.061 180C334.837 180.189 334.574 180.326 334.29 180.399C334.007 180.472 333.71 180.481 333.423 180.423C333.498 180.709 333.497 181.009 333.418 181.294C333.338 181.579 333.185 181.837 332.973 182.043C332.877 182.135 332.762 182.204 332.636 182.246C332.51 182.288 332.376 182.302 332.244 182.286ZM327.969 177.948C328.032 177.949 328.094 177.964 328.151 177.99C328.209 178.016 328.26 178.054 328.302 178.101C329.949 179.901 331.794 181.485 332.253 181.386C332.757 180.864 332.208 180.162 332.19 180.126C332.138 180.051 332.11 179.961 332.11 179.87C332.11 179.778 332.138 179.688 332.19 179.613C332.239 179.534 332.311 179.472 332.396 179.437C332.482 179.401 332.577 179.394 332.667 179.415C333.195 179.575 333.759 179.575 334.287 179.415C334.284 179.336 334.263 179.259 334.224 179.19C333.926 178.445 333.416 177.803 332.757 177.345C332.692 177.307 332.638 177.253 332.598 177.189C332.559 177.124 332.536 177.051 332.532 176.976C332.53 176.901 332.546 176.827 332.579 176.76C332.612 176.692 332.661 176.634 332.721 176.589C333.14 176.316 333.494 175.953 333.756 175.527H333.666C333 175.311 331.029 175.608 329.481 175.941C329.319 176.074 329.126 176.165 328.92 176.204C328.714 176.244 328.502 176.23 328.302 176.166C328.204 176.142 328.116 176.085 328.054 176.005C327.992 175.925 327.959 175.826 327.96 175.725C327.958 175.624 327.991 175.526 328.053 175.447C328.116 175.369 328.204 175.314 328.302 175.293C328.392 175.293 328.644 175.203 328.986 175.131C329.138 174.541 329.138 173.921 328.986 173.331C328.973 173.266 328.974 173.198 328.99 173.133C329.006 173.069 329.036 173.008 329.078 172.956C329.121 172.905 329.174 172.863 329.234 172.834C329.294 172.806 329.36 172.791 329.427 172.791H330.678C330.813 172.791 330.84 172.791 330.849 172.737C330.94 172.262 330.877 171.77 330.669 171.333C330.643 171.264 330.633 171.19 330.641 171.116C330.648 171.043 330.674 170.972 330.714 170.91C330.756 170.849 330.813 170.799 330.879 170.764C330.944 170.73 331.018 170.712 331.092 170.712C331.992 170.712 333.513 170.514 333.846 170.064C333.256 169.512 332.543 169.108 331.767 168.885C331.648 168.873 331.538 168.814 331.462 168.721C331.386 168.629 331.35 168.509 331.362 168.39C331.374 168.271 331.433 168.161 331.526 168.085C331.618 168.009 331.738 167.973 331.857 167.985C332.946 167.832 334.818 167.382 335.457 166.779C334.811 166.521 334.138 166.337 333.45 166.23C332.307 165.996 331.875 165.915 331.821 165.465C331.805 165.348 331.83 165.229 331.89 165.128C331.951 165.027 332.044 164.949 332.154 164.907L332.442 164.763C333.27 164.367 334.8 163.611 335.295 162.792C335.563 162.397 335.722 161.937 335.754 161.46C335.516 161.534 335.287 161.634 335.07 161.757C333.708 162.403 332.307 162.965 330.876 163.44C329.038 164.037 327.252 164.786 325.539 165.681C323.811 166.842 322.605 170.01 322.596 170.037C322.571 170.103 322.532 170.163 322.48 170.211C322.429 170.26 322.367 170.296 322.299 170.316C322.232 170.334 322.161 170.336 322.093 170.324C322.025 170.311 321.96 170.284 321.903 170.244C321.077 169.779 320.15 169.523 319.203 169.497C317.349 169.308 315.414 171.027 315.396 171.045C315.378 171.063 315.351 171.045 315.324 171.099L313.65 172.08L314.424 172.368C314.48 172.392 314.532 172.426 314.577 172.467C315.68 173.647 316.674 174.924 317.547 176.283C319.158 178.695 320.526 179.217 322.821 179.406C324.554 179.388 326.251 178.907 327.735 178.011C327.808 177.974 327.887 177.952 327.969 177.948Z" fill="#282828"/>
<path d="M322.146 169.884C322.146 169.884 320.49 166.554 321.318 164.484C322.146 162.414 329.832 157.005 329.625 159.084C329.496 159.767 329.226 160.416 328.832 160.989C328.439 161.563 327.93 162.048 327.339 162.414C327.339 162.414 330.462 161.37 330.462 162.207V163.035C330.462 163.035 326.925 163.863 325.26 165.321C323.981 166.662 322.929 168.204 322.146 169.884Z" fill="#282828"/>
<path d="M322.146 170.334C322.063 170.334 321.982 170.31 321.912 170.265C321.842 170.221 321.786 170.157 321.75 170.082C321.678 169.938 320.004 166.554 320.895 164.313C321.66 162.396 327.789 157.788 329.472 158.193C329.666 158.242 329.835 158.361 329.946 158.527C330.057 158.694 330.103 158.895 330.075 159.093C329.968 159.97 329.605 160.797 329.031 161.469C329.557 161.326 330.116 161.367 330.615 161.586C330.707 161.653 330.781 161.741 330.831 161.843C330.881 161.945 330.906 162.058 330.903 162.171V162.999C330.904 163.1 330.871 163.199 330.809 163.279C330.747 163.359 330.659 163.416 330.561 163.44C330.561 163.44 327.114 164.259 325.557 165.627C324.317 166.942 323.305 168.454 322.56 170.1C322.521 170.175 322.463 170.238 322.392 170.284C322.321 170.33 322.239 170.356 322.155 170.361L322.146 170.334ZM329.148 159.048C327.942 159.048 322.416 162.945 321.732 164.646C321.228 165.906 321.732 167.751 322.182 168.822C322.899 167.397 323.841 166.096 324.972 164.97C326.483 163.885 328.193 163.105 330.003 162.675V162.324C329.141 162.353 328.29 162.523 327.483 162.828C327.379 162.858 327.269 162.849 327.171 162.804C327.073 162.759 326.994 162.68 326.95 162.582C326.905 162.484 326.897 162.373 326.927 162.269C326.957 162.166 327.024 162.077 327.114 162.018C327.641 161.69 328.095 161.259 328.45 160.75C328.804 160.241 329.051 159.665 329.175 159.057L329.148 159.048Z" fill="#282828"/>
<path d="M317.286 172.125C317.629 172.125 317.907 171.847 317.907 171.504C317.907 171.161 317.629 170.883 317.286 170.883C316.943 170.883 316.665 171.161 316.665 171.504C316.665 171.847 316.943 172.125 317.286 172.125Z" fill="#282828"/>
<path d="M325.629 177.849C325.26 179.109 323.271 179.649 321.21 179.019C319.149 178.389 317.763 176.886 318.132 175.626C318.501 174.366 320.49 173.826 322.56 174.456C324.63 175.086 326.007 176.589 325.629 177.849Z" fill="white"/>
<path d="M322.911 179.496C322.301 179.498 321.695 179.41 321.111 179.235C320.14 178.969 319.259 178.443 318.564 177.714C318.249 177.463 318.015 177.124 317.894 176.739C317.772 176.355 317.768 175.943 317.882 175.556C317.996 175.17 318.223 174.826 318.534 174.569C318.845 174.312 319.225 174.154 319.626 174.114C320.611 173.905 321.632 173.945 322.597 174.231C323.562 174.517 324.44 175.04 325.152 175.752C325.468 176.004 325.701 176.344 325.822 176.729C325.943 177.114 325.946 177.527 325.831 177.913C325.716 178.3 325.488 178.644 325.176 178.9C324.864 179.157 324.483 179.314 324.081 179.352C323.699 179.45 323.306 179.498 322.911 179.496ZM320.85 174.42C320.486 174.418 320.123 174.463 319.77 174.555C319.455 174.605 319.159 174.736 318.91 174.935C318.66 175.133 318.467 175.393 318.348 175.689C318.283 176.001 318.303 176.324 318.404 176.626C318.505 176.928 318.684 177.198 318.924 177.408C319.58 178.059 320.386 178.538 321.272 178.802C322.158 179.066 323.095 179.107 324 178.92C324.315 178.873 324.611 178.743 324.86 178.544C325.108 178.345 325.299 178.083 325.413 177.786C325.48 177.474 325.463 177.149 325.364 176.845C325.264 176.541 325.085 176.27 324.846 176.058C324.198 175.398 323.388 174.92 322.497 174.672C321.963 174.511 321.408 174.426 320.85 174.42Z" fill="#282828"/>
<path d="M121.743 122.454C121.743 122.454 117.594 121.41 116.343 121.833C115.092 122.256 117.171 123.714 117.171 123.714C116.429 124.224 115.853 124.941 115.515 125.775C114.885 127.233 117.585 126.603 117.585 126.603C117.362 126.864 117.239 127.196 117.239 127.539C117.239 127.882 117.362 128.214 117.585 128.475C118.413 129.312 122.148 125.154 122.148 125.154C122.148 125.154 124.848 126.819 127.341 126.603C129.834 126.387 131.292 125.775 132.957 123.282C133.81 121.951 134.783 120.701 135.864 119.547L137.529 118.917L135.036 117.468C135.036 117.468 132.957 115.596 130.878 115.803C129.856 115.835 128.857 116.119 127.971 116.631C127.971 116.631 126.72 113.31 124.848 112.068C122.976 110.826 117.162 109.161 115.299 108.117C113.436 107.073 113.841 108.738 114.462 109.782C115.083 110.826 116.955 111.654 117.792 112.068C118.629 112.482 113.427 112.689 114.255 113.724C115.083 114.759 118.206 115.182 118.206 115.182C118.206 115.182 115.299 116.217 115.92 117.054C116.541 117.891 119.034 117.882 119.034 117.882C119.034 117.882 118.206 119.961 119.448 119.961H120.699C120.699 119.961 120.087 122.868 121.743 122.454Z" fill="#282828"/>
<path d="M117.9 129.033C117.674 129.035 117.455 128.951 117.288 128.799C117.076 128.593 116.923 128.335 116.843 128.05C116.764 127.765 116.763 127.465 116.838 127.179C116.551 127.234 116.255 127.224 115.972 127.151C115.688 127.078 115.425 126.943 115.2 126.756C115.072 126.593 114.995 126.395 114.981 126.188C114.966 125.981 115.015 125.774 115.119 125.595C115.421 124.879 115.876 124.237 116.451 123.714C115.974 123.3 115.434 122.697 115.551 122.13C115.581 121.953 115.663 121.79 115.786 121.66C115.91 121.53 116.069 121.44 116.244 121.401C117.576 121.23 118.929 121.313 120.231 121.644C120.177 121.235 120.177 120.82 120.231 120.411H119.511C119.335 120.419 119.16 120.381 119.003 120.303C118.845 120.224 118.71 120.106 118.611 119.961C118.486 119.707 118.413 119.43 118.396 119.147C118.379 118.865 118.418 118.581 118.512 118.314C117.612 118.251 116.19 118.053 115.641 117.324C115.56 117.214 115.505 117.088 115.48 116.954C115.455 116.819 115.461 116.681 115.497 116.55C115.778 116.013 116.236 115.59 116.793 115.353C115.749 115.181 114.775 114.716 113.985 114.012C113.898 113.911 113.839 113.789 113.814 113.658C113.788 113.527 113.798 113.391 113.841 113.265C114.066 112.653 115.074 112.41 116.595 112.104L116.829 112.05C115.769 111.611 114.839 110.908 114.129 110.007C113.958 109.728 113.139 108.261 113.787 107.586C114.435 106.911 115.263 107.586 115.587 107.721C116.904 108.35 118.26 108.894 119.646 109.35C121.555 109.961 123.405 110.744 125.172 111.69C126.72 112.725 127.872 115.002 128.268 116.001C129.105 115.641 129.996 115.422 130.905 115.353C133.02 115.146 135.063 116.829 135.405 117.099L137.862 118.53C137.935 118.575 137.993 118.639 138.031 118.715C138.07 118.792 138.086 118.877 138.078 118.962C138.071 119.046 138.04 119.126 137.989 119.193C137.938 119.26 137.869 119.311 137.79 119.34L136.224 119.934C135.195 121.054 134.261 122.258 133.434 123.534C131.634 126.234 130.014 126.846 127.494 127.053C125.689 127.087 123.908 126.626 122.346 125.721C121.446 126.621 119.196 129.006 118.008 129.033H117.9ZM117.603 126.153C117.678 126.153 117.752 126.172 117.818 126.208C117.884 126.244 117.94 126.297 117.981 126.36C118.034 126.437 118.062 126.528 118.062 126.621C118.062 126.714 118.034 126.805 117.981 126.882C117.927 126.954 117.432 127.638 117.981 128.16C118.404 128.232 120.24 126.693 121.896 124.848C121.97 124.773 122.066 124.724 122.17 124.71C122.274 124.695 122.38 124.715 122.472 124.767C123.957 125.66 125.653 126.141 127.386 126.162C129.672 125.964 131.049 125.451 132.66 123.03C133.534 121.677 134.524 120.403 135.621 119.223C135.668 119.18 135.723 119.147 135.783 119.124L136.557 118.836L134.811 117.9L134.739 117.846C134.739 117.846 132.777 116.109 130.932 116.298C129.985 116.329 129.06 116.585 128.232 117.045C128.176 117.086 128.11 117.113 128.042 117.124C127.973 117.135 127.902 117.13 127.836 117.108C127.769 117.091 127.708 117.057 127.658 117.01C127.607 116.962 127.57 116.903 127.548 116.838C127.548 116.838 126.324 113.634 124.605 112.482C122.893 111.584 121.108 110.834 119.268 110.241C117.837 109.766 116.436 109.204 115.074 108.558C114.525 108.252 114.345 108.288 114.336 108.288C114.427 108.75 114.601 109.192 114.849 109.593C115.344 110.412 116.883 111.168 117.702 111.564L117.99 111.708C118.1 111.75 118.193 111.828 118.254 111.929C118.314 112.03 118.339 112.149 118.323 112.266C118.269 112.716 117.837 112.797 116.694 113.031C116.007 113.136 115.334 113.317 114.687 113.571C115.317 114.192 117.18 114.633 118.287 114.777C118.388 114.792 118.482 114.84 118.553 114.913C118.625 114.986 118.67 115.08 118.683 115.182C118.691 115.282 118.667 115.381 118.613 115.466C118.559 115.55 118.48 115.615 118.386 115.65C117.6 115.864 116.883 116.28 116.307 116.856C116.64 117.27 118.107 117.477 119.061 117.477C119.135 117.477 119.209 117.495 119.274 117.529C119.34 117.564 119.397 117.614 119.439 117.675C119.479 117.737 119.505 117.808 119.512 117.881C119.52 117.955 119.51 118.029 119.484 118.098C119.271 118.533 119.207 119.027 119.304 119.502C119.304 119.502 119.304 119.556 119.475 119.556H120.726C120.793 119.557 120.858 119.572 120.919 119.6C120.979 119.628 121.033 119.668 121.077 119.718C121.118 119.771 121.147 119.832 121.162 119.897C121.178 119.963 121.179 120.03 121.167 120.096C121.015 120.686 121.015 121.306 121.167 121.896L121.851 122.058C121.949 122.082 122.037 122.139 122.099 122.219C122.161 122.299 122.194 122.398 122.193 122.499C122.195 122.6 122.162 122.698 122.1 122.777C122.037 122.855 121.949 122.91 121.851 122.931C121.652 122.998 121.44 123.014 121.233 122.976C121.027 122.938 120.834 122.848 120.672 122.715C119.124 122.382 117.153 122.076 116.487 122.301C116.445 122.31 116.405 122.329 116.37 122.355C116.658 122.764 117.018 123.118 117.432 123.399C117.495 123.441 117.545 123.499 117.578 123.567C117.611 123.635 117.626 123.711 117.621 123.786C117.617 123.861 117.594 123.934 117.555 123.999C117.515 124.063 117.461 124.117 117.396 124.155C116.744 124.601 116.235 125.226 115.929 125.955C115.888 126.023 115.87 126.101 115.875 126.18C116.396 126.349 116.956 126.349 117.477 126.18L117.603 126.153Z" fill="#282828"/>
<path d="M127.98 116.631C127.98 116.631 129.636 113.31 128.808 111.231C127.98 109.152 120.294 103.752 120.501 105.831C120.63 106.514 120.9 107.163 121.294 107.736C121.687 108.31 122.196 108.795 122.787 109.161C122.787 109.161 119.664 108.117 119.664 108.945V109.8C119.664 109.8 123.201 110.628 124.857 112.086C126.139 113.42 127.194 114.956 127.98 116.631Z" fill="#282828"/>
<path d="M127.98 117.081C127.896 117.081 127.813 117.058 127.741 117.013C127.67 116.969 127.612 116.905 127.575 116.829C126.824 115.2 125.812 113.704 124.578 112.401C123.012 111.042 119.61 110.223 119.574 110.214C119.475 110.193 119.386 110.139 119.322 110.06C119.258 109.982 119.223 109.883 119.223 109.782V108.945C119.222 108.832 119.248 108.721 119.3 108.62C119.352 108.52 119.427 108.434 119.52 108.369C120.018 108.146 120.579 108.104 121.104 108.252C120.53 107.58 120.167 106.753 120.06 105.876C120.032 105.678 120.078 105.477 120.189 105.31C120.3 105.144 120.469 105.025 120.663 104.976C122.355 104.553 128.466 109.179 129.231 111.096C130.131 113.337 128.457 116.721 128.385 116.865C128.345 116.935 128.285 116.993 128.214 117.031C128.142 117.069 128.061 117.087 127.98 117.081ZM120.114 109.431C121.927 109.861 123.639 110.64 125.154 111.726C126.282 112.85 127.224 114.148 127.944 115.569C128.349 114.498 128.898 112.662 128.394 111.402C127.701 109.683 122.094 105.759 120.951 105.804C121.08 106.411 121.329 106.987 121.683 107.497C122.036 108.006 122.488 108.441 123.012 108.774C123.107 108.829 123.179 108.918 123.212 109.023C123.245 109.128 123.238 109.241 123.192 109.341C123.148 109.443 123.067 109.525 122.965 109.57C122.863 109.615 122.748 109.62 122.643 109.584C121.833 109.28 120.979 109.11 120.114 109.08V109.431Z" fill="#282828"/>
<path d="M132.219 118.251C132.219 118.416 132.284 118.574 132.401 118.69C132.517 118.807 132.675 118.872 132.84 118.872C133.005 118.872 133.163 118.807 133.279 118.69C133.396 118.574 133.461 118.416 133.461 118.251C133.461 118.086 133.396 117.928 133.279 117.812C133.163 117.695 133.005 117.63 132.84 117.63C132.675 117.63 132.517 117.695 132.401 117.812C132.284 117.928 132.219 118.086 132.219 118.251Z" fill="#282828"/>
<path d="M124.497 124.605C124.866 125.865 126.846 126.405 128.916 125.775C130.986 125.145 132.363 123.642 131.994 122.382C131.625 121.122 129.636 120.582 127.566 121.212C125.496 121.842 124.119 123.345 124.497 124.605Z" fill="white"/>
<path d="M127.233 126.252C125.766 126.252 124.533 125.667 124.281 124.668C123.867 123.291 125.316 121.644 127.503 120.996C129.69 120.348 131.796 120.942 132.21 122.31C132.296 122.698 132.278 123.101 132.16 123.48C132.041 123.859 131.826 124.2 131.535 124.47C130.833 125.195 129.951 125.72 128.979 125.991C128.412 126.158 127.824 126.246 127.233 126.252ZM124.713 124.542C125.046 125.676 126.909 126.135 128.853 125.559C129.747 125.314 130.559 124.832 131.202 124.164C131.441 123.954 131.621 123.684 131.722 123.382C131.823 123.08 131.843 122.757 131.778 122.445C131.436 121.302 129.573 120.843 127.629 121.428C125.685 122.013 124.371 123.399 124.713 124.542Z" fill="#282828"/>
<path d="M110.592 277.2C104.665 268.524 96.7423 261.397 87.489 256.419C72.603 248.697 66.249 241.074 73.989 241.524C83.358 242.082 104.589 249.525 114.237 275.724C118.404 287.019 110.637 277.209 110.637 277.209" fill="#282828"/>
<path d="M115.002 281.565C113.715 281.565 111.51 279.054 110.232 277.452C110.151 277.326 101.907 264.402 87.309 256.833C76.509 251.244 69.534 245.367 70.308 242.541C70.605 241.452 71.865 240.975 74.034 241.101C83.934 241.677 105.12 249.633 114.678 275.58C116.379 280.206 116.046 281.16 115.425 281.511C115.291 281.565 115.145 281.584 115.002 281.565ZM110.952 276.912C112.617 279 114.498 280.791 114.975 280.674C114.975 280.674 115.344 280.017 113.805 275.841C104.409 250.335 83.628 242.541 73.953 241.947C72.306 241.857 71.316 242.136 71.154 242.73C70.614 244.701 76.779 250.326 87.696 255.987C102.231 263.529 110.556 276.3 110.952 276.912Z" fill="#282828"/>
<path d="M110.097 274.203C110.014 274.204 109.932 274.182 109.86 274.139C109.789 274.096 109.73 274.034 109.692 273.96C109.62 273.807 102.15 259.119 88.389 252.099C88.3357 252.073 88.2881 252.037 88.2491 251.992C88.2101 251.948 88.1804 251.896 88.162 251.84C88.1435 251.783 88.1365 251.724 88.1415 251.665C88.1465 251.606 88.1633 251.548 88.191 251.496C88.2449 251.39 88.3387 251.31 88.4517 251.273C88.5646 251.235 88.6877 251.245 88.794 251.298C102.825 258.453 110.394 273.402 110.493 273.555C110.521 273.607 110.537 273.665 110.542 273.724C110.547 273.783 110.541 273.842 110.522 273.899C110.504 273.955 110.474 274.007 110.435 274.051C110.396 274.096 110.348 274.132 110.295 274.158C110.234 274.19 110.166 274.205 110.097 274.203Z" fill="#282828"/>
<path d="M119.538 286.2C116.687 277.144 116.048 267.537 117.675 258.183C120.501 243.288 118.629 234.522 114.642 240.264C109.8 247.23 103.23 266.481 116.442 287.964C122.148 297.234 119.529 286.164 119.529 286.164" fill="#282828"/>
<path d="M119.601 292.122C118.989 292.122 118.044 291.402 116.073 288.198C102.96 266.895 109.161 247.365 114.273 240.003C115.407 238.374 116.469 237.753 117.423 238.149C119.889 239.184 120.168 247.455 118.116 258.264C116.507 267.537 117.123 277.059 119.916 286.047C119.92 286.065 119.92 286.083 119.916 286.101C120.501 288.567 120.969 291.6 119.862 292.059C119.779 292.093 119.691 292.114 119.601 292.122ZM116.901 238.941C116.415 238.941 115.758 239.499 115.047 240.525C110.052 247.725 104.004 266.823 116.847 287.721C118.908 291.078 119.547 291.213 119.628 291.222C119.871 290.925 119.628 288.63 119.115 286.326C116.265 277.196 115.624 267.52 117.243 258.093C119.529 246.06 118.503 239.58 117.081 238.986C117.014 238.952 116.94 238.936 116.865 238.941H116.901Z" fill="#282828"/>
<path d="M117.396 284.4C117.31 284.401 117.226 284.378 117.153 284.333C117.08 284.289 117.021 284.224 116.982 284.148C116.919 284.004 110.529 270.243 113.283 256.248C113.306 256.129 113.375 256.023 113.475 255.955C113.576 255.887 113.699 255.861 113.818 255.884C113.938 255.906 114.043 255.975 114.112 256.076C114.18 256.176 114.206 256.3 114.183 256.419C111.483 270.108 117.783 283.608 117.783 283.743C117.809 283.797 117.824 283.855 117.827 283.915C117.83 283.974 117.821 284.034 117.801 284.09C117.781 284.146 117.75 284.197 117.71 284.241C117.67 284.285 117.621 284.321 117.567 284.346C117.514 284.375 117.456 284.393 117.396 284.4Z" fill="#282828"/>
<path d="M111.195 270.603C108.342 261.544 107.704 251.934 109.332 242.577C112.158 227.691 110.286 218.925 106.299 224.667C101.457 231.633 94.887 250.875 108.099 272.367C113.805 281.637 111.186 270.612 111.186 270.612" fill="#282828"/>
<path d="M111.258 276.525C110.646 276.525 109.701 275.805 107.73 272.601C94.617 251.298 100.818 231.759 105.93 224.406C107.064 222.777 108.126 222.156 109.08 222.552C111.537 223.587 111.78 231.858 109.773 242.667C108.164 251.94 108.78 261.462 111.573 270.45V270.495C112.158 272.961 112.626 276.003 111.519 276.462C111.436 276.496 111.348 276.517 111.258 276.525ZM108.558 223.344C108.072 223.344 107.415 223.902 106.704 224.919C101.709 232.119 95.661 251.217 108.504 272.124C110.565 275.472 111.204 275.616 111.285 275.616C111.528 275.319 111.285 273.024 110.772 270.729C107.922 261.599 107.281 251.923 108.9 242.496C111.186 230.463 110.151 223.974 108.738 223.38C108.669 223.353 108.596 223.341 108.522 223.344H108.558Z" fill="#282828"/>
<path d="M110.097 274.203C110.007 274.203 109.919 274.177 109.843 274.127C109.768 274.078 109.709 274.007 109.674 273.924C109.602 273.726 102.195 254.619 104.94 240.624C104.964 240.507 105.033 240.403 105.132 240.336C105.231 240.269 105.353 240.243 105.471 240.264C105.529 240.276 105.584 240.299 105.633 240.332C105.682 240.365 105.724 240.407 105.756 240.457C105.789 240.506 105.812 240.561 105.823 240.619C105.834 240.677 105.834 240.737 105.822 240.795C103.122 254.502 110.439 273.366 110.511 273.555C110.533 273.61 110.544 273.669 110.543 273.728C110.542 273.787 110.53 273.845 110.506 273.9C110.483 273.954 110.449 274.003 110.407 274.045C110.364 274.086 110.314 274.118 110.259 274.14C110.209 274.17 110.154 274.191 110.097 274.203Z" fill="#282828"/>
<path d="M298.08 260.901C304.006 252.227 311.925 245.101 321.174 240.12C336.069 232.398 342.414 224.775 334.674 225.234C325.305 225.783 304.074 233.226 294.426 259.434C290.268 270.738 298.071 260.919 298.071 260.919" fill="#282828"/>
<path d="M293.661 265.293C293.522 265.298 293.385 265.264 293.265 265.194C292.644 264.852 292.311 263.889 294.012 259.263C303.57 233.316 324.783 225.36 334.656 224.784C336.825 224.658 338.085 225.135 338.382 226.224C339.156 229.05 332.172 234.927 321.381 240.516C306.783 248.094 298.539 261.009 298.458 261.144C297.153 262.8 294.948 265.293 293.661 265.293ZM335.322 225.693C335.133 225.693 334.926 225.693 334.71 225.693C325.035 226.26 304.254 234.072 294.858 259.587C293.319 263.754 293.679 264.375 293.724 264.438C294.165 264.537 296.046 262.737 297.711 260.649C298.107 260.028 306.432 247.266 320.967 239.733C331.884 234.072 338.067 228.438 337.509 226.467C337.374 225.9 336.6 225.666 335.322 225.666V225.693Z" fill="#282828"/>
<path d="M298.575 257.94C298.502 257.94 298.431 257.922 298.368 257.886C298.262 257.832 298.182 257.738 298.145 257.625C298.107 257.512 298.117 257.389 298.17 257.283C298.242 257.139 305.838 242.181 319.869 235.035C319.921 235.007 319.978 234.99 320.036 234.984C320.095 234.978 320.154 234.985 320.21 235.002C320.267 235.02 320.319 235.049 320.364 235.087C320.409 235.125 320.445 235.171 320.472 235.224C320.526 235.331 320.537 235.454 320.502 235.568C320.467 235.683 320.388 235.779 320.283 235.836C306.522 242.847 299.052 257.544 298.971 257.688C298.936 257.764 298.88 257.828 298.81 257.872C298.74 257.917 298.658 257.941 298.575 257.94Z" fill="#282828"/>
<path d="M289.125 269.937C291.981 260.879 292.62 251.267 290.988 241.911C288.162 227.016 290.034 218.25 294.021 223.992C298.872 230.967 305.433 250.209 292.221 271.692C286.515 280.962 289.134 269.937 289.134 269.937" fill="#282828"/>
<path d="M289.062 275.859C288.95 275.859 288.84 275.834 288.738 275.787C287.631 275.328 288.099 272.295 288.684 269.829C288.684 269.829 288.684 269.829 288.684 269.784C291.49 260.797 292.122 251.271 290.529 241.992C288.477 231.192 288.729 222.912 291.222 221.886C292.188 221.484 293.241 222.102 294.381 223.74C299.484 231.093 305.685 250.623 292.581 271.926C290.619 275.139 289.674 275.859 289.062 275.859ZM289.557 270.063C289.017 272.358 288.81 274.653 289.116 274.977C289.116 274.977 289.764 274.806 291.816 271.458C304.686 250.551 298.638 231.435 293.616 224.253C292.788 223.065 292.041 222.507 291.546 222.714C290.133 223.308 289.098 229.788 291.384 241.821C293.017 251.247 292.391 260.926 289.557 270.063Z" fill="#282828"/>
<path d="M291.276 268.128C291.208 268.127 291.14 268.112 291.078 268.083C290.971 268.03 290.888 267.938 290.847 267.825C290.807 267.713 290.812 267.589 290.862 267.48C290.925 267.345 297.162 253.845 294.462 240.165C294.449 240.107 294.448 240.047 294.458 239.988C294.469 239.93 294.491 239.874 294.524 239.825C294.557 239.775 294.6 239.733 294.649 239.7C294.699 239.667 294.755 239.645 294.813 239.634C294.871 239.622 294.931 239.622 294.989 239.633C295.047 239.644 295.102 239.667 295.151 239.699C295.201 239.732 295.243 239.774 295.276 239.823C295.309 239.872 295.332 239.927 295.344 239.985C298.098 253.971 291.744 267.732 291.645 267.885C291.609 267.953 291.556 268.011 291.492 268.054C291.427 268.096 291.353 268.122 291.276 268.128Z" fill="#282828"/>
<path d="M297.468 254.331C300.324 245.276 300.963 235.667 299.331 226.314C296.505 211.419 298.377 202.653 302.373 208.395C307.215 215.361 313.776 234.612 300.573 256.095C294.867 265.365 297.486 254.295 297.486 254.295" fill="#282828"/>
<path d="M297.405 260.253C297.294 260.256 297.183 260.234 297.081 260.19C295.983 259.731 296.442 256.698 297.027 254.232C297.027 254.232 297.027 254.232 297.027 254.178C299.835 245.194 300.467 235.671 298.872 226.395C296.82 215.595 297.072 207.315 299.565 206.28C300.519 205.884 301.581 206.505 302.724 208.143C307.827 215.496 314.028 235.026 300.924 256.329C298.962 259.533 298.017 260.253 297.405 260.253ZM297.9 254.457C297.36 256.761 297.153 259.047 297.459 259.38C297.459 259.38 298.107 259.209 300.159 255.861C313.029 234.954 306.981 215.838 301.959 208.656C301.131 207.468 300.384 206.91 299.889 207.117C298.476 207.711 297.441 214.191 299.727 226.224C301.361 235.647 300.735 245.323 297.9 254.457Z" fill="#282828"/>
<path d="M298.575 257.94C298.519 257.953 298.46 257.953 298.404 257.94C298.295 257.896 298.208 257.811 298.161 257.703C298.114 257.596 298.111 257.474 298.152 257.364C298.224 257.175 305.541 238.302 302.841 224.595C302.828 224.538 302.827 224.478 302.838 224.42C302.848 224.362 302.871 224.307 302.904 224.258C302.937 224.209 302.979 224.168 303.029 224.136C303.078 224.104 303.134 224.083 303.192 224.073C303.25 224.061 303.31 224.061 303.368 224.072C303.426 224.083 303.481 224.106 303.53 224.139C303.58 224.171 303.622 224.213 303.655 224.262C303.688 224.311 303.711 224.366 303.723 224.424C306.477 238.383 299.061 257.499 298.989 257.724C298.947 257.795 298.886 257.853 298.813 257.891C298.74 257.929 298.657 257.946 298.575 257.94Z" fill="#282828"/>
<path d="M296.482 200.101H210.928L163.066 123.997H248.62L296.482 200.101Z" fill="#282828"/>
<path d="M296.482 200.551H210.928C210.853 200.553 210.778 200.534 210.711 200.498C210.645 200.462 210.59 200.409 210.55 200.344L162.688 124.231C162.646 124.162 162.624 124.082 162.624 124.001C162.624 123.921 162.646 123.841 162.688 123.772C162.73 123.704 162.788 123.647 162.857 123.608C162.926 123.569 163.004 123.548 163.084 123.547H248.638C248.714 123.545 248.788 123.564 248.855 123.6C248.921 123.636 248.977 123.689 249.016 123.754L296.878 199.867C296.92 199.936 296.943 200.016 296.943 200.096C296.943 200.177 296.92 200.257 296.878 200.326C296.837 200.394 296.779 200.451 296.709 200.49C296.64 200.529 296.562 200.55 296.482 200.551ZM211.18 199.651H295.672L248.368 124.447H163.858L211.18 199.651Z" fill="#282828"/>
<path d="M199.021 197.491H111.334V274.945H199.021V197.491Z" fill="#C7C7C7"/>
<path d="M199.021 275.395H111.334C111.215 275.395 111.1 275.348 111.016 275.263C110.932 275.179 110.884 275.064 110.884 274.945V197.491C110.884 197.372 110.932 197.257 111.016 197.173C111.1 197.088 111.215 197.041 111.334 197.041H199.021C199.14 197.041 199.255 197.088 199.339 197.173C199.424 197.257 199.471 197.372 199.471 197.491V274.945C199.471 275.064 199.424 275.179 199.339 275.263C199.255 275.348 199.14 275.395 199.021 275.395ZM111.784 274.495H198.571V197.941H111.784V274.495Z" fill="#282828"/>
<path d="M286.708 274.945H199.021V197.491L243.598 126.607L286.708 197.491V274.945Z" fill="white"/>
<path d="M286.708 275.395H199.021C198.902 275.395 198.787 275.348 198.703 275.263C198.619 275.179 198.571 275.064 198.571 274.945V197.491C198.571 197.405 198.596 197.32 198.643 197.248L243.22 126.373C243.259 126.307 243.314 126.253 243.381 126.215C243.447 126.177 243.522 126.157 243.598 126.157C243.674 126.157 243.749 126.177 243.816 126.215C243.882 126.253 243.937 126.307 243.976 126.373L287.095 197.275C287.138 197.345 287.16 197.427 287.158 197.509V274.945C287.158 275.064 287.111 275.179 287.026 275.263C286.942 275.348 286.827 275.395 286.708 275.395ZM199.471 274.495H286.258V197.617L243.589 127.462L199.489 197.617L199.471 274.495Z" fill="#282828"/>
<path d="M218.02 211.369H209.254V237.676H218.02V211.369Z" fill="#C7C7C7"/>
<path d="M218.02 238.126H209.254C209.135 238.126 209.02 238.079 208.936 237.994C208.852 237.91 208.804 237.795 208.804 237.676V211.369C208.804 211.25 208.852 211.135 208.936 211.051C209.02 210.966 209.135 210.919 209.254 210.919H218.02C218.139 210.919 218.254 210.966 218.338 211.051C218.423 211.135 218.47 211.25 218.47 211.369V237.676C218.47 237.795 218.423 237.91 218.338 237.994C218.254 238.079 218.139 238.126 218.02 238.126ZM209.704 237.226H217.57V211.819H209.704V237.226Z" fill="#282828"/>
<path d="M226.786 211.369H218.02V237.676H226.786V211.369Z" fill="#282828"/>
<path d="M226.795 238.126H218.02C217.901 238.126 217.786 238.079 217.702 237.994C217.618 237.91 217.57 237.795 217.57 237.676V211.369C217.572 211.25 217.621 211.137 217.704 211.053C217.788 210.969 217.902 210.921 218.02 210.919H226.795C226.914 210.921 227.027 210.969 227.111 211.053C227.195 211.137 227.243 211.25 227.245 211.369V237.676C227.245 237.795 227.198 237.91 227.113 237.994C227.029 238.079 226.914 238.126 226.795 238.126ZM218.47 237.226H226.345V211.819H218.47V237.226Z" fill="#282828"/>
<path d="M235.561 211.369H226.795V237.676H235.561V211.369Z" fill="#C7C7C7"/>
<path d="M235.561 238.126H226.795C226.676 238.126 226.561 238.079 226.477 237.994C226.393 237.91 226.345 237.795 226.345 237.676V211.369C226.345 211.25 226.393 211.135 226.477 211.051C226.561 210.966 226.676 210.919 226.795 210.919H235.561C235.68 210.919 235.795 210.966 235.879 211.051C235.964 211.135 236.011 211.25 236.011 211.369V237.676C236.011 237.795 235.964 237.91 235.879 237.994C235.795 238.079 235.68 238.126 235.561 238.126ZM227.245 237.226H235.111V211.819H227.245V237.226Z" fill="#282828"/>
<path d="M177.835 211.369H170.527V237.676H177.835V211.369Z" fill="#919191"/>
<path d="M177.835 238.126H170.527C170.408 238.126 170.293 238.079 170.209 237.994C170.125 237.91 170.077 237.795 170.077 237.676V211.369C170.077 211.25 170.125 211.135 170.209 211.051C170.293 210.966 170.408 210.919 170.527 210.919H177.835C177.954 210.919 178.069 210.966 178.153 211.051C178.238 211.135 178.285 211.25 178.285 211.369V237.676C178.285 237.795 178.238 237.91 178.153 237.994C178.069 238.079 177.954 238.126 177.835 238.126ZM170.977 237.226H177.358V211.819H170.95L170.977 237.226Z" fill="#282828"/>
<path d="M185.143 211.369H177.835V237.676H185.143V211.369Z" fill="#282828"/>
<path d="M185.143 238.126H177.835C177.716 238.126 177.601 238.079 177.517 237.994C177.433 237.91 177.385 237.795 177.385 237.676V211.369C177.385 211.25 177.433 211.135 177.517 211.051C177.601 210.966 177.716 210.919 177.835 210.919H185.143C185.262 210.921 185.375 210.969 185.459 211.053C185.543 211.137 185.591 211.25 185.593 211.369V237.676C185.593 237.795 185.546 237.91 185.461 237.994C185.377 238.079 185.262 238.126 185.143 238.126ZM178.285 237.226H184.693V211.819H178.258L178.285 237.226Z" fill="#282828"/>
<path d="M192.451 211.369H185.143V237.676H192.451V211.369Z" fill="#919191"/>
<path d="M192.451 238.126H185.143C185.024 238.126 184.909 238.079 184.825 237.994C184.741 237.91 184.693 237.795 184.693 237.676V211.369C184.693 211.25 184.741 211.135 184.825 211.051C184.909 210.966 185.024 210.919 185.143 210.919H192.451C192.57 210.921 192.683 210.969 192.767 211.053C192.851 211.137 192.899 211.25 192.901 211.369V237.676C192.901 237.795 192.854 237.91 192.769 237.994C192.685 238.079 192.57 238.126 192.451 238.126ZM185.593 237.226H192.001V211.819H185.593V237.226Z" fill="#282828"/>
<path d="M123.763 211.369H116.455V237.676H123.763V211.369Z" fill="#919191"/>
<path d="M123.763 238.126H116.455C116.336 238.126 116.221 238.079 116.137 237.994C116.053 237.91 116.005 237.795 116.005 237.676V211.369C116.005 211.25 116.053 211.135 116.137 211.051C116.221 210.966 116.336 210.919 116.455 210.919H123.763C123.882 210.921 123.995 210.969 124.079 211.053C124.163 211.137 124.211 211.25 124.213 211.369V237.676C124.213 237.795 124.166 237.91 124.081 237.994C123.997 238.079 123.882 238.126 123.763 238.126ZM116.905 237.226H123.358V211.819H116.95L116.905 237.226Z" fill="#282828"/>
<path d="M131.071 211.369H123.763V237.676H131.071V211.369Z" fill="#282828"/>
<path d="M131.071 238.126H123.763C123.644 238.126 123.529 238.079 123.445 237.994C123.361 237.91 123.313 237.795 123.313 237.676V211.369C123.313 211.25 123.361 211.135 123.445 211.051C123.529 210.966 123.644 210.919 123.763 210.919H131.071C131.19 210.921 131.303 210.969 131.387 211.053C131.471 211.137 131.519 211.25 131.521 211.369V237.676C131.521 237.795 131.474 237.91 131.389 237.994C131.305 238.079 131.19 238.126 131.071 238.126ZM124.213 237.226H130.621V211.819H124.258L124.213 237.226Z" fill="#282828"/>
<path d="M138.379 211.369H131.071V237.676H138.379V211.369Z" fill="#919191"/>
<path d="M138.379 238.126H131.071C130.952 238.126 130.837 238.079 130.753 237.994C130.669 237.91 130.621 237.795 130.621 237.676V211.369C130.621 211.25 130.669 211.135 130.753 211.051C130.837 210.966 130.952 210.919 131.071 210.919H138.379C138.498 210.921 138.611 210.969 138.695 211.053C138.779 211.137 138.827 211.25 138.829 211.369V237.676C138.829 237.795 138.782 237.91 138.697 237.994C138.613 238.079 138.498 238.126 138.379 238.126ZM131.521 237.226H137.929V211.819H131.521V237.226Z" fill="#282828"/>
<path d="M262.597 211.369H253.831V237.676H262.597V211.369Z" fill="#C7C7C7"/>
<path d="M262.597 238.126H253.858C253.739 238.126 253.624 238.079 253.54 237.994C253.456 237.91 253.408 237.795 253.408 237.676V211.369C253.408 211.25 253.456 211.135 253.54 211.051C253.624 210.966 253.739 210.919 253.858 210.919H262.624C262.743 210.919 262.858 210.966 262.942 211.051C263.027 211.135 263.074 211.25 263.074 211.369V237.676C263.074 237.737 263.062 237.798 263.037 237.855C263.013 237.911 262.978 237.962 262.933 238.004C262.888 238.046 262.835 238.079 262.778 238.1C262.72 238.121 262.658 238.13 262.597 238.126ZM254.281 237.226H262.147V211.819H254.281V237.226Z" fill="#282828"/>
<path d="M271.363 211.369H262.597V237.676H271.363V211.369Z" fill="#282828"/>
<path d="M271.363 238.126H262.597C262.478 238.126 262.363 238.079 262.279 237.994C262.195 237.91 262.147 237.795 262.147 237.676V211.369C262.147 211.25 262.195 211.135 262.279 211.051C262.363 210.966 262.478 210.919 262.597 210.919H271.363C271.482 210.919 271.597 210.966 271.681 211.051C271.766 211.135 271.813 211.25 271.813 211.369V237.676C271.813 237.795 271.766 237.91 271.681 237.994C271.597 238.079 271.482 238.126 271.363 238.126ZM263.047 237.226H270.958V211.819H263.092L263.047 237.226Z" fill="#282828"/>
<path d="M280.129 211.369H271.363V237.676H280.129V211.369Z" fill="#C7C7C7"/>
<path d="M280.138 238.126H271.363C271.244 238.126 271.129 238.079 271.045 237.994C270.961 237.91 270.913 237.795 270.913 237.676V211.369C270.915 211.25 270.964 211.137 271.047 211.053C271.131 210.969 271.245 210.921 271.363 210.919H280.138C280.257 210.921 280.37 210.969 280.454 211.053C280.538 211.137 280.586 211.25 280.588 211.369V237.676C280.588 237.795 280.541 237.91 280.456 237.994C280.372 238.079 280.257 238.126 280.138 238.126ZM271.813 237.226H279.688V211.819H271.858L271.813 237.226Z" fill="#282828"/>
<path d="M242.14 168.259H236.29V184.333H242.14V168.259Z" fill="#C7C7C7"/>
<path d="M242.158 184.783H236.308C236.189 184.783 236.074 184.736 235.99 184.651C235.906 184.567 235.858 184.452 235.858 184.333V168.259C235.858 168.14 235.906 168.025 235.99 167.941C236.074 167.856 236.189 167.809 236.308 167.809H242.158C242.278 167.809 242.392 167.856 242.476 167.941C242.561 168.025 242.608 168.14 242.608 168.259V184.333C242.608 184.452 242.561 184.567 242.476 184.651C242.392 184.736 242.278 184.783 242.158 184.783ZM236.758 183.883H241.708V168.709H236.758V183.883Z" fill="#282828"/>
<path d="M247.99 168.259H242.14V184.333H247.99V168.259Z" fill="#282828"/>
<path d="M247.981 184.783H242.158C242.039 184.783 241.924 184.736 241.84 184.651C241.756 184.567 241.708 184.452 241.708 184.333V168.259C241.708 168.14 241.756 168.025 241.84 167.941C241.924 167.856 242.039 167.809 242.158 167.809H247.999C248.118 167.809 248.233 167.856 248.317 167.941C248.402 168.025 248.449 168.14 248.449 168.259V184.333C248.449 184.394 248.437 184.454 248.413 184.509C248.39 184.565 248.355 184.616 248.311 184.658C248.267 184.7 248.216 184.733 248.159 184.754C248.102 184.776 248.042 184.785 247.981 184.783ZM242.581 183.883H247.558V168.709H242.617L242.581 183.883Z" fill="#282828"/>
<path d="M253.831 168.259H247.981V184.333H253.831V168.259Z" fill="#C7C7C7"/>
<path d="M253.858 184.783H248.008C247.889 184.783 247.774 184.736 247.69 184.651C247.606 184.567 247.558 184.452 247.558 184.333V168.259C247.558 168.14 247.606 168.025 247.69 167.941C247.774 167.856 247.889 167.809 248.008 167.809H253.858C253.977 167.809 254.092 167.856 254.176 167.941C254.261 168.025 254.308 168.14 254.308 168.259V184.333C254.308 184.452 254.261 184.567 254.176 184.651C254.092 184.736 253.977 184.783 253.858 184.783ZM248.458 183.883H253.408V168.709H248.458V183.883Z" fill="#282828"/>
<path d="M106.456 200.101H200.614L248.476 123.997H154.318L106.456 200.101Z" fill="#282828"/>
<path d="M200.614 200.551H106.456C106.376 200.55 106.298 200.529 106.229 200.49C106.16 200.451 106.102 200.394 106.06 200.326C106.021 200.256 106 200.177 106 200.096C106 200.016 106.021 199.937 106.06 199.867L153.958 123.754C153.998 123.689 154.053 123.636 154.119 123.6C154.186 123.564 154.261 123.545 154.336 123.547H248.458C248.538 123.547 248.617 123.567 248.686 123.607C248.755 123.646 248.813 123.703 248.854 123.772C248.894 123.842 248.914 123.921 248.914 124.001C248.914 124.082 248.894 124.161 248.854 124.231L200.992 200.344C200.951 200.407 200.895 200.459 200.829 200.495C200.763 200.531 200.689 200.55 200.614 200.551ZM107.275 199.651H200.371L247.666 124.447H154.57L107.275 199.651Z" fill="#282828"/>
<path d="M179.968 158.368H142.789V182.974H179.968V158.368Z" fill="#C7C7C7"/>
<path d="M179.977 183.433H142.789C142.671 183.431 142.557 183.383 142.473 183.299C142.39 183.215 142.341 183.102 142.339 182.983V158.368C142.341 158.249 142.39 158.136 142.473 158.052C142.557 157.968 142.671 157.92 142.789 157.918H179.977C180.096 157.92 180.209 157.968 180.293 158.052C180.377 158.136 180.425 158.249 180.427 158.368V182.983C180.425 183.102 180.377 183.215 180.293 183.299C180.209 183.383 180.096 183.431 179.977 183.433ZM143.239 182.533H179.527V158.818H143.239V182.533Z" fill="#282828"/>
<path d="M179.977 158.377L205.672 140.728L179.977 182.983V158.377Z" fill="white"/>
<path d="M179.977 183.433H179.851C179.758 183.406 179.676 183.349 179.617 183.271C179.559 183.193 179.527 183.098 179.527 183.001V158.368C179.528 158.296 179.546 158.225 179.579 158.161C179.611 158.097 179.658 158.042 179.716 157.999L205.411 140.359C205.491 140.294 205.591 140.258 205.695 140.258C205.798 140.258 205.898 140.294 205.978 140.359C206.051 140.432 206.098 140.528 206.111 140.63C206.124 140.733 206.102 140.837 206.05 140.926L180.355 183.181C180.321 183.253 180.268 183.315 180.201 183.359C180.134 183.404 180.057 183.429 179.977 183.433ZM180.427 158.611V181.372L204.196 142.285L180.427 158.611Z" fill="#282828"/>
<path d="M139.81 159.205H178.753L205.672 140.728H166.729L139.81 159.205Z" fill="#282828"/>
<path d="M178.753 159.655H139.81C139.714 159.656 139.62 159.625 139.542 159.569C139.465 159.512 139.407 159.432 139.378 159.34C139.352 159.248 139.355 159.149 139.387 159.059C139.419 158.969 139.479 158.891 139.558 158.836L166.477 140.359C166.55 140.306 166.639 140.277 166.729 140.278H205.672C205.767 140.279 205.86 140.311 205.936 140.368C206.012 140.425 206.069 140.505 206.097 140.596C206.125 140.687 206.123 140.784 206.092 140.874C206.061 140.965 206.002 141.042 205.924 141.097L179.014 159.583C178.935 159.629 178.845 159.654 178.753 159.655ZM141.259 158.755H178.618L204.214 141.178H166.873L141.259 158.755Z" fill="#282828"/>
<path d="M157.747 163.597H151.897V179.671H157.747V163.597Z" fill="#919191"/>
<path d="M157.738 180.121H151.897C151.778 180.121 151.663 180.074 151.579 179.989C151.495 179.905 151.447 179.79 151.447 179.671V163.597C151.447 163.478 151.495 163.363 151.579 163.279C151.663 163.194 151.778 163.147 151.897 163.147H157.738C157.857 163.147 157.972 163.194 158.056 163.279C158.141 163.363 158.188 163.478 158.188 163.597V179.671C158.188 179.79 158.141 179.905 158.056 179.989C157.972 180.074 157.857 180.121 157.738 180.121ZM152.338 179.221H157.279V164.047H152.338V179.221Z" fill="#282828"/>
<path d="M163.588 163.597H157.738V179.671H163.588V163.597Z" fill="#282828"/>
<path d="M163.588 180.121H157.738C157.619 180.121 157.504 180.074 157.42 179.989C157.336 179.905 157.288 179.79 157.288 179.671V163.597C157.288 163.478 157.336 163.363 157.42 163.279C157.504 163.194 157.619 163.147 157.738 163.147H163.588C163.707 163.147 163.822 163.194 163.906 163.279C163.991 163.363 164.038 163.478 164.038 163.597V179.671C164.038 179.79 163.991 179.905 163.906 179.989C163.822 180.074 163.707 180.121 163.588 180.121ZM158.188 179.221H163.138V164.047H158.188V179.221Z" fill="#282828"/>
<path d="M169.438 163.597H163.588V179.671H169.438V163.597Z" fill="#919191"/>
<path d="M169.429 180.121H163.588C163.469 180.121 163.354 180.074 163.27 179.989C163.186 179.905 163.138 179.79 163.138 179.671V163.597C163.138 163.478 163.186 163.363 163.27 163.279C163.354 163.194 163.469 163.147 163.588 163.147H169.429C169.548 163.147 169.663 163.194 169.747 163.279C169.832 163.363 169.879 163.478 169.879 163.597V179.671C169.879 179.79 169.832 179.905 169.747 179.989C169.663 180.074 169.548 180.121 169.429 180.121ZM164.029 179.221H168.97V164.047H164.038L164.029 179.221Z" fill="#282828"/>
<path d="M225.814 112.45H222.538V136.327L225.814 131.053V112.45Z" fill="white"/>
<path d="M222.538 136.777H222.421C222.325 136.75 222.241 136.692 222.181 136.612C222.121 136.533 222.088 136.436 222.088 136.336V112.45C222.088 112.331 222.136 112.216 222.22 112.132C222.304 112.047 222.419 112 222.538 112H225.814C225.933 112 226.048 112.047 226.132 112.132C226.217 112.216 226.264 112.331 226.264 112.45V131.053C226.262 131.136 226.237 131.217 226.192 131.287L222.925 136.57C222.884 136.635 222.826 136.688 222.759 136.724C222.691 136.76 222.615 136.778 222.538 136.777ZM222.988 112.9V134.752L225.364 130.927V112.927L222.988 112.9Z" fill="#282828"/>
<path d="M222.691 112.45H213.025V136.327H222.691V112.45Z" fill="#C7C7C7"/>
<path d="M222.691 136.777H213.025C212.906 136.777 212.791 136.73 212.707 136.645C212.623 136.561 212.575 136.446 212.575 136.327V112.45C212.575 112.331 212.623 112.216 212.707 112.132C212.791 112.047 212.906 112 213.025 112H222.691C222.81 112 222.925 112.047 223.009 112.132C223.094 112.216 223.141 112.331 223.141 112.45V136.327C223.141 136.446 223.094 136.561 223.009 136.645C222.925 136.73 222.81 136.777 222.691 136.777ZM213.475 135.877H222.241V112.9H213.475V135.877Z" fill="#282828"/>
<path d="M166.441 215.797H143.932V274.945H166.441V215.797Z" fill="#282828"/>
<path d="M166.432 275.395H143.932C143.813 275.395 143.698 275.348 143.614 275.263C143.53 275.179 143.482 275.064 143.482 274.945V215.797C143.482 215.678 143.53 215.563 143.614 215.479C143.698 215.394 143.813 215.347 143.932 215.347H166.432C166.551 215.347 166.666 215.394 166.75 215.479C166.835 215.563 166.882 215.678 166.882 215.797V274.945C166.882 275.064 166.835 275.179 166.75 275.263C166.666 275.348 166.551 275.395 166.432 275.395ZM144.382 274.495H165.982V216.247H144.382V274.495Z" fill="#282828"/>
<path d="M165.244 245.299C165.244 244.906 165.127 244.521 164.909 244.194C164.69 243.867 164.38 243.612 164.016 243.461C163.653 243.311 163.253 243.272 162.867 243.348C162.481 243.425 162.127 243.614 161.849 243.893C161.571 244.171 161.381 244.525 161.304 244.911C161.228 245.297 161.267 245.697 161.418 246.06C161.568 246.424 161.823 246.734 162.15 246.953C162.477 247.171 162.862 247.288 163.255 247.288C163.783 247.288 164.289 247.078 164.662 246.705C165.035 246.332 165.244 245.827 165.244 245.299Z" fill="white"/>
<path d="M163.255 247.738C162.77 247.74 162.296 247.597 161.892 247.329C161.488 247.061 161.173 246.679 160.986 246.231C160.8 245.783 160.751 245.29 160.845 244.815C160.939 244.339 161.172 243.902 161.515 243.559C161.858 243.216 162.295 242.983 162.771 242.889C163.246 242.794 163.739 242.844 164.187 243.03C164.635 243.216 165.017 243.532 165.285 243.936C165.554 244.339 165.696 244.814 165.694 245.299C165.694 245.619 165.631 245.936 165.508 246.232C165.386 246.528 165.206 246.797 164.98 247.024C164.753 247.25 164.484 247.43 164.189 247.552C163.893 247.675 163.575 247.738 163.255 247.738ZM163.255 243.751C162.949 243.749 162.648 243.838 162.393 244.007C162.137 244.176 161.937 244.418 161.819 244.7C161.7 244.983 161.668 245.295 161.727 245.595C161.786 245.896 161.932 246.173 162.148 246.39C162.364 246.608 162.64 246.756 162.941 246.817C163.241 246.877 163.553 246.847 163.836 246.73C164.12 246.613 164.362 246.415 164.533 246.16C164.703 245.905 164.794 245.605 164.794 245.299C164.795 245.096 164.756 244.895 164.68 244.707C164.603 244.519 164.49 244.349 164.347 244.205C164.204 244.061 164.033 243.947 163.846 243.869C163.659 243.791 163.458 243.751 163.255 243.751Z" fill="#282828"/>
<path d="M112.041 276.795C112.041 276.795 93.186 266.481 75.6 264.6C58.014 262.719 47.808 270.9 47.898 274.446C47.988 277.992 60.201 278.28 62.523 278.874C64.845 279.468 78.993 275.553 99.882 280.521C120.771 285.489 123.453 286.506 123.453 286.506L112.041 276.795Z" fill="white"/>
<path d="M123.444 286.92C123.39 286.929 123.336 286.929 123.282 286.92C123.165 286.92 120.276 285.822 99.774 280.944C88.894 278.388 77.6474 277.779 66.555 279.144C65.1826 279.383 63.7854 279.447 62.397 279.333C61.4266 279.148 60.4473 279.012 59.463 278.928C54.711 278.406 47.52 277.605 47.439 274.491C47.439 273.303 48.276 271.854 49.869 270.387C54.099 266.4 63.099 262.8 75.6 264.123C93.087 266.022 112.032 276.3 112.221 276.399L112.293 276.453L123.696 286.128C123.766 286.188 123.815 286.267 123.839 286.356C123.862 286.444 123.858 286.538 123.826 286.624C123.795 286.71 123.738 286.784 123.664 286.837C123.589 286.89 123.5 286.919 123.408 286.92H123.444ZM78.3 277.488C85.6048 277.493 92.8841 278.351 99.99 280.044C112.878 283.113 118.836 284.67 121.518 285.444L111.78 277.2C110.808 276.669 92.466 266.886 75.537 265.041C63.297 263.709 54.567 267.255 50.472 271.008C49.113 272.259 48.321 273.537 48.339 274.428C48.393 276.759 55.665 277.569 59.562 278.028C60.5886 278.116 61.6099 278.258 62.622 278.451C63.907 278.521 65.1959 278.448 66.465 278.235C70.3939 277.775 74.3445 277.526 78.3 277.488Z" fill="#282828"/>
<path d="M104.157 276.561C104.157 276.561 84.483 267.912 66.789 267.516C49.095 267.12 39.645 276.165 40.041 279.711C40.437 283.257 52.641 282.465 54.99 282.852C57.339 283.239 71.1 278.1 92.358 281.286C113.616 284.472 116.352 285.219 116.352 285.219L104.157 276.561Z" fill="white"/>
<path d="M116.343 285.669H116.226C116.109 285.669 113.139 284.832 92.286 281.745C81.2272 280.123 69.9687 280.47 59.031 282.771C57.6857 283.127 56.3007 283.312 54.909 283.32C54.387 283.23 53.262 283.203 51.948 283.167C47.169 283.05 39.933 282.87 39.591 279.774C39.465 278.604 40.194 277.074 41.652 275.481C45.54 271.242 54.18 266.787 66.798 267.084C84.384 267.471 104.139 276.084 104.337 276.165L104.418 276.21L116.604 284.868C116.691 284.928 116.754 285.017 116.782 285.119C116.81 285.221 116.801 285.33 116.757 285.426C116.716 285.5 116.656 285.562 116.584 285.605C116.511 285.647 116.428 285.67 116.343 285.669ZM78.543 279.81C83.1871 279.798 87.8257 280.129 92.421 280.8C105.525 282.744 111.591 283.788 114.336 284.301L103.932 276.921C102.915 276.48 83.799 268.308 66.78 267.921C54.468 267.624 46.08 271.926 42.318 276.021C41.076 277.38 40.392 278.721 40.518 279.621C40.77 281.934 48.078 282.123 52.002 282.213C53.0331 282.212 54.0636 282.266 55.089 282.375C56.3735 282.33 57.6496 282.149 58.896 281.835C65.3728 280.504 71.9668 279.826 78.579 279.81H78.543Z" fill="#282828"/>
<path d="M355.563 269.28L328.248 261.9C328.248 261.9 308.907 246.546 285.579 248.247C262.251 249.948 241.2 259.047 234.369 264.177C227.538 269.307 219.006 274.419 217.269 275.562C215.532 276.705 192.231 270.441 179.712 275.562C167.193 280.683 157.527 290.925 157.527 290.925C157.527 290.925 104.607 274.986 91.521 272.718C78.435 270.45 63.072 271.575 52.263 279.54C41.454 287.505 43.767 292.608 49.5 293.751C55.233 294.894 56.331 289.197 87.624 297.729C118.917 306.261 156.987 328.5 172.35 336.987C187.713 345.474 213.3 357.471 230.4 352.35C247.5 347.229 294.12 329.589 304.929 329.589C315.738 329.589 350.451 331.866 350.451 331.866L355.563 269.28Z" fill="white"/>
<path d="M221.22 354.033C205.731 354.033 186.606 345.42 172.134 337.383L167.805 334.962C151.011 325.548 116.1 306 87.462 298.161C65.052 292.05 58.149 293.274 54.018 294.003C52.4952 294.376 50.9131 294.44 49.365 294.192C46.602 293.634 44.775 292.203 44.343 290.259C43.866 288.135 44.82 284.481 52.038 279.162C61.659 272.07 76.095 269.55 91.638 272.25C104.13 274.428 153.369 289.179 157.428 290.394C158.868 288.927 168.084 279.828 179.577 275.094C188.334 271.494 202.23 273.42 210.528 274.554C213.507 274.968 216.585 275.382 217.053 275.139C217.521 274.896 218.142 274.437 219.096 273.843C222.489 271.71 228.789 267.759 234.099 263.772C241.398 258.3 262.8 249.417 285.543 247.752C308.043 246.114 327.105 260.406 328.455 261.45L355.68 268.821C355.781 268.848 355.868 268.91 355.928 268.996C355.987 269.081 356.014 269.185 356.004 269.289L350.883 331.875C350.88 331.934 350.865 331.991 350.839 332.044C350.813 332.097 350.776 332.144 350.732 332.183C350.687 332.221 350.636 332.25 350.58 332.269C350.524 332.287 350.465 332.294 350.406 332.289C350.064 332.289 315.594 330.012 304.92 330.012C297.513 330.012 272.7 338.517 252.765 345.312C243.648 348.444 235.773 351.144 230.517 352.719C227.498 353.606 224.366 354.049 221.22 354.033ZM60.471 292.5C65.547 292.5 73.584 293.463 87.696 297.315C116.415 305.145 151.416 324.765 168.246 334.215C169.83 335.115 171.279 335.916 172.575 336.627C189.972 346.302 214.101 356.805 230.256 351.927C235.494 350.361 243.369 347.661 252.477 344.538C272.475 337.68 297.36 329.148 304.92 329.148C314.964 329.148 345.951 331.137 350.028 331.398L355.077 269.631L328.131 262.332C328.072 262.316 328.017 262.288 327.969 262.251C327.78 262.098 308.502 247.005 285.606 248.688C263.052 250.335 241.857 259.119 234.639 264.528C229.302 268.533 222.939 272.502 219.573 274.635C218.628 275.229 217.926 275.67 217.548 275.922C216.909 276.354 215.01 276.12 210.411 275.481C202.194 274.356 188.451 272.475 179.919 275.967C167.634 280.989 157.986 291.123 157.887 291.222C157.83 291.283 157.756 291.327 157.675 291.347C157.593 291.368 157.508 291.365 157.428 291.339C156.897 291.186 104.391 275.391 91.485 273.15C76.185 270.45 62.001 272.943 52.569 279.891C45.369 285.192 44.883 288.549 45.216 290.07C45.549 291.591 47.151 292.833 49.545 293.319C50.9837 293.543 52.4528 293.476 53.865 293.121C56.0417 292.701 58.2541 292.493 60.471 292.5Z" fill="#282828"/>
<path d="M340.704 306.918L317.232 329.454L350.442 331.866L340.704 306.918Z" fill="#282828"/>
<path d="M350.442 332.316L317.241 329.904C317.154 329.897 317.07 329.866 317 329.813C316.929 329.761 316.876 329.689 316.845 329.607C316.818 329.524 316.815 329.436 316.836 329.352C316.857 329.268 316.9 329.191 316.962 329.13L340.434 306.63C340.488 306.581 340.554 306.546 340.624 306.528C340.695 306.509 340.769 306.508 340.84 306.524C340.911 306.539 340.978 306.572 341.034 306.619C341.09 306.665 341.134 306.725 341.163 306.792L350.892 331.74C350.919 331.811 350.929 331.887 350.919 331.963C350.91 332.038 350.882 332.11 350.838 332.172C350.788 332.226 350.726 332.267 350.657 332.292C350.589 332.317 350.515 332.325 350.442 332.316ZM318.276 329.076L349.776 331.371L340.533 307.71L318.276 329.076Z" fill="#282828"/>
<path d="M160.92 311.256C157.185 311.256 154.854 310.14 154.062 306.954C153.413 304.164 153.357 301.27 153.898 298.457C154.439 295.645 155.565 292.978 157.203 290.628C157.278 290.542 157.384 290.488 157.498 290.477C157.612 290.465 157.726 290.498 157.817 290.568C157.907 290.638 157.968 290.74 157.986 290.853C158.004 290.966 157.978 291.082 157.914 291.177C157.869 291.24 152.793 298.062 154.935 306.738C156.177 311.733 161.703 310.851 174.078 308.376C178.065 307.575 179.379 306.891 180.531 306.279C182.799 305.091 184.293 304.299 202.482 304.038C222.399 303.759 242.982 303.273 253.998 303.012C258.147 302.922 260.658 302.859 261.099 302.859C261.218 302.859 261.333 302.906 261.417 302.991C261.502 303.075 261.549 303.19 261.549 303.309C261.549 303.428 261.502 303.543 261.417 303.627C261.333 303.712 261.218 303.759 261.099 303.759C260.667 303.759 258.021 303.822 254.016 303.912C242.973 304.173 222.417 304.659 202.5 304.938C184.5 305.199 183.096 305.946 180.945 307.08C178.854 308.176 176.593 308.912 174.258 309.258C168.741 310.356 164.268 311.256 160.92 311.256Z" fill="#282828"/>
<path d="M157.365 310.653H157.293C157.234 310.644 157.178 310.624 157.128 310.593C157.077 310.563 157.033 310.523 156.998 310.475C156.962 310.427 156.937 310.373 156.923 310.316C156.909 310.258 156.906 310.199 156.915 310.14C157.193 308.849 157.747 307.634 158.537 306.576C159.328 305.518 160.337 304.643 161.496 304.011C161.784 303.858 168.201 300.555 172.377 300.555C173.756 300.609 175.097 301.024 176.265 301.759C177.434 302.493 178.39 303.521 179.037 304.74C179.268 305.091 179.392 305.503 179.392 305.923C179.392 306.344 179.268 306.756 179.037 307.107C178.999 307.152 178.953 307.19 178.9 307.218C178.848 307.245 178.791 307.262 178.732 307.268C178.613 307.279 178.494 307.242 178.403 307.165C178.311 307.089 178.253 306.979 178.242 306.86C178.231 306.741 178.268 306.623 178.344 306.531C178.569 306.261 178.533 305.748 178.245 305.127C177.668 304.064 176.826 303.167 175.801 302.524C174.777 301.881 173.604 301.513 172.395 301.455C168.435 301.455 162.009 304.767 161.946 304.794C160.913 305.368 160.013 306.152 159.303 307.097C158.593 308.041 158.089 309.124 157.824 310.275C157.807 310.383 157.75 310.481 157.666 310.551C157.581 310.62 157.474 310.657 157.365 310.653Z" fill="#282828"/>
<path d="M192.726 303.867C192.607 303.867 192.492 303.82 192.408 303.735C192.323 303.651 192.276 303.536 192.276 303.417V298.575C192.276 298.456 192.323 298.341 192.408 298.257C192.492 298.172 192.607 298.125 192.726 298.125C192.845 298.125 192.96 298.172 193.044 298.257C193.129 298.341 193.176 298.456 193.176 298.575V303.417C193.176 303.536 193.129 303.651 193.044 303.735C192.96 303.82 192.845 303.867 192.726 303.867Z" fill="#282828"/>
<path d="M195.39 301.203H195.3C195.241 301.196 195.183 301.178 195.131 301.149C195.079 301.12 195.033 301.081 194.997 301.034C194.96 300.987 194.933 300.933 194.917 300.876C194.901 300.818 194.896 300.758 194.904 300.699C195.21 298.5 195.131 296.265 194.67 294.093C194.64 293.976 194.657 293.852 194.717 293.747C194.778 293.643 194.877 293.567 194.994 293.535C195.109 293.505 195.23 293.521 195.333 293.58C195.436 293.639 195.511 293.736 195.543 293.85C196.037 296.136 196.123 298.491 195.795 300.807C195.783 300.909 195.736 301.005 195.663 301.077C195.589 301.149 195.493 301.193 195.39 301.203Z" fill="#282828"/>
<path d="M342.801 257.967H379.494V358.11H342.801C341.729 358.11 340.701 357.684 339.944 356.926C339.186 356.169 338.76 355.141 338.76 354.069V262.008C338.76 260.936 339.186 259.908 339.944 259.151C340.701 258.393 341.729 257.967 342.801 257.967Z" fill="#282828"/>
<path d="M379.494 358.56H342.801C341.608 358.56 340.463 358.086 339.619 357.242C338.775 356.398 338.301 355.253 338.301 354.06V262.008C338.301 260.815 338.775 259.67 339.619 258.826C340.463 257.982 341.608 257.508 342.801 257.508H379.494C379.613 257.508 379.728 257.555 379.812 257.64C379.897 257.724 379.944 257.839 379.944 257.958V358.11C379.944 358.229 379.897 358.344 379.812 358.428C379.728 358.513 379.613 358.56 379.494 358.56ZM342.801 258.417C341.846 258.417 340.931 258.796 340.255 259.471C339.58 260.147 339.201 261.062 339.201 262.017V354.069C339.201 355.024 339.58 355.939 340.255 356.615C340.931 357.29 341.846 357.669 342.801 357.669H379.044V258.417H342.801Z" fill="#282828"/>
<path d="M379.8 252.819H444.771V365.931H379.8C378.986 365.931 378.205 365.608 377.63 365.032C377.054 364.457 376.731 363.676 376.731 362.862V255.897C376.73 255.493 376.808 255.093 376.962 254.72C377.116 254.346 377.342 254.007 377.627 253.721C377.912 253.435 378.251 253.208 378.624 253.054C378.996 252.899 379.396 252.819 379.8 252.819Z" fill="#282828"/>
<path d="M444.771 366.381H379.8C378.866 366.381 377.97 366.011 377.309 365.351C376.647 364.691 376.274 363.796 376.272 362.862V255.897C376.274 254.963 376.647 254.068 377.309 253.408C377.97 252.748 378.866 252.378 379.8 252.378H444.771C444.89 252.378 445.005 252.425 445.089 252.51C445.174 252.594 445.221 252.709 445.221 252.828V365.931C445.221 366.05 445.174 366.165 445.089 366.249C445.005 366.334 444.89 366.381 444.771 366.381ZM379.8 253.278C379.455 253.277 379.114 253.344 378.795 253.475C378.476 253.606 378.186 253.799 377.942 254.042C377.698 254.285 377.504 254.574 377.372 254.893C377.24 255.211 377.172 255.552 377.172 255.897V362.862C377.172 363.207 377.24 363.548 377.372 363.866C377.504 364.185 377.698 364.474 377.942 364.717C378.186 364.96 378.476 365.153 378.795 365.284C379.114 365.415 379.455 365.482 379.8 365.481H444.321V253.278H379.8Z" fill="#282828"/>
<path d="M374.688 267.588H344.403C344.284 267.588 344.169 267.541 344.085 267.456C344 267.372 343.953 267.257 343.953 267.138C343.955 267.019 344.003 266.906 344.087 266.822C344.171 266.738 344.284 266.69 344.403 266.688H374.688C374.807 266.688 374.922 266.735 375.006 266.82C375.091 266.904 375.138 267.019 375.138 267.138C375.138 267.257 375.091 267.372 375.006 267.456C374.922 267.541 374.807 267.588 374.688 267.588Z" fill="#282828"/>
<path d="M374.283 279.477H343.494C343.375 279.477 343.26 279.43 343.176 279.345C343.091 279.261 343.044 279.146 343.044 279.027C343.044 278.908 343.091 278.793 343.176 278.709C343.26 278.624 343.375 278.577 343.494 278.577H374.283C374.402 278.577 374.517 278.624 374.601 278.709C374.686 278.793 374.733 278.908 374.733 279.027C374.731 279.146 374.683 279.259 374.599 279.343C374.515 279.427 374.402 279.475 374.283 279.477Z" fill="#282828"/>
<path d="M363.474 301.077H342.414C342.295 301.077 342.18 301.03 342.096 300.945C342.011 300.861 341.964 300.746 341.964 300.627C341.964 300.508 342.011 300.393 342.096 300.309C342.18 300.224 342.295 300.177 342.414 300.177H363.474C363.593 300.177 363.708 300.224 363.792 300.309C363.877 300.393 363.924 300.508 363.924 300.627C363.924 300.746 363.877 300.861 363.792 300.945C363.708 301.03 363.593 301.077 363.474 301.077Z" fill="#282828"/>
<path d="M374.283 301.077H367.254C367.135 301.077 367.02 301.03 366.936 300.945C366.851 300.861 366.804 300.746 366.804 300.627C366.806 300.508 366.854 300.395 366.938 300.311C367.022 300.227 367.135 300.179 367.254 300.177H374.283C374.402 300.179 374.515 300.227 374.599 300.311C374.683 300.395 374.731 300.508 374.733 300.627C374.733 300.746 374.686 300.861 374.601 300.945C374.517 301.03 374.402 301.077 374.283 301.077Z" fill="#282828"/>
</svg>
